M48
; DRILL file {KiCad (5.1.9)-1} date 03/12/21 00:47:38
; FORMAT={-:-/ absolute / metric / decimal}
; #@! TF.CreationDate,2021-03-12T00:47:38-05:00
; #@! TF.GenerationSoftware,Kicad,Pcbnew,(5.1.9)-1
; #@! TF.FileFunction,Plated,1,2,PTH
FMAT,2
METRIC
T1C0.400
T2C0.700
T3C0.762
T4C0.800
T5C0.900
T6C1.000
%
G90
G05
T1
X62.0Y-48.5
X62.0Y-57.5
X62.0Y-61.5
X62.0Y-70.5
X64.0Y-46.5
X64.0Y-72.5
X66.5Y-75.0
X66.5Y-80.5
X68.0Y-46.5
X68.0Y-72.5
X69.6Y-77.8
X72.5Y-46.5
X72.5Y-72.5
X73.5Y-77.5
X73.5Y-80.5
X75.5Y-49.5
X75.5Y-57.5
X75.5Y-61.5
X75.5Y-69.5
X78.25Y-75.25
X79.5Y-80.5
X80.25Y-57.25
X80.25Y-62.0
X80.75Y-75.5
X82.75Y-66.25
X82.75Y-69.0
X82.75Y-75.5
X84.75Y-60.25
X84.75Y-62.25
X88.25Y-59.5
X96.25Y-75.25
X97.25Y-72.5
T2
X71.0Y-79.0
X73.54Y-79.0
X89.46Y-51.5
X89.46Y-67.5
X92.0Y-51.5
X92.0Y-67.5
X94.46Y-51.5
X94.46Y-67.5
X94.54Y-71.86
X94.54Y-74.4
X97.0Y-51.5
X97.0Y-67.5
X99.5Y-71.86
X99.5Y-74.4
T3
X74.0Y-48.0
X74.0Y-55.0
X74.0Y-64.0
X74.0Y-71.0
X84.0Y-48.0
X84.0Y-55.0
X84.0Y-64.0
X84.0Y-71.0
T4
X88.25Y-55.25
X88.25Y-57.75
X88.25Y-61.25
X88.25Y-63.75
X91.944Y-55.69
X91.944Y-63.31
X94.483Y-55.69
X94.483Y-63.31
X97.023Y-55.69
X97.023Y-63.31
X99.563Y-55.69
X99.563Y-63.31
T5
X68.0Y-76.46
X68.0Y-79.0
T6
X76.88Y-78.0
X79.42Y-78.0
X81.96Y-78.0
X84.5Y-78.0
X92.0Y-78.0
X94.54Y-78.0
X97.08Y-78.0
X99.62Y-78.0
T5
G00X63.0Y-59.15
M15
G01X63.0Y-59.85
M16
G05
G00X67.65Y-54.5
M15
G01X68.35Y-54.5
M16
G05
G00X67.65Y-57.0
M15
G01X68.35Y-57.0
M16
G05
G00X67.65Y-62.0
M15
G01X68.35Y-62.0
M16
G05
G00X67.65Y-64.5
M15
G01X68.35Y-64.5
M16
G05
T0
M30
