G04 #@! TF.GenerationSoftware,KiCad,Pcbnew,(5.1.9)-1*
G04 #@! TF.CreationDate,2021-03-12T00:47:26-05:00*
G04 #@! TF.ProjectId,InputBuffer,496e7075-7442-4756-9666-65722e6b6963,rev?*
G04 #@! TF.SameCoordinates,Original*
G04 #@! TF.FileFunction,Soldermask,Top*
G04 #@! TF.FilePolarity,Negative*
%FSLAX46Y46*%
G04 Gerber Fmt 4.6, Leading zero omitted, Abs format (unit mm)*
G04 Created by KiCad (PCBNEW (5.1.9)-1) date 2021-03-12 00:47:26*
%MOMM*%
%LPD*%
G01*
G04 APERTURE LIST*
G04 #@! TA.AperFunction,Profile*
%ADD10C,0.150000*%
G04 #@! TD*
%ADD11R,1.800000X1.800000*%
%ADD12C,1.800000*%
%ADD13C,1.400000*%
%ADD14O,1.400000X1.400000*%
%ADD15O,2.200000X1.400000*%
%ADD16O,1.400000X2.200000*%
%ADD17C,1.600000*%
%ADD18O,1.600000X1.600000*%
%ADD19R,1.600000X1.600000*%
%ADD20O,1.700000X1.700000*%
%ADD21R,1.700000X1.700000*%
%ADD22C,1.524000*%
G04 APERTURE END LIST*
D10*
X78500000Y-46500000D02*
G75*
G02*
X79500000Y-46500000I500000J0D01*
G01*
X79500000Y-56500000D02*
G75*
G02*
X78500000Y-56500000I-500000J0D01*
G01*
X78500000Y-62500000D02*
G75*
G02*
X79500000Y-62500000I500000J0D01*
G01*
X79500000Y-72500000D02*
G75*
G02*
X78500000Y-72500000I-500000J0D01*
G01*
X78500000Y-62500000D02*
X78500000Y-72500000D01*
X79500000Y-72500000D02*
X79500000Y-62500000D01*
X79500000Y-56500000D02*
X79500000Y-46500000D01*
X78500000Y-46500000D02*
X78500000Y-56500000D01*
X105000000Y-43000000D02*
X106000000Y-44000000D01*
X106000000Y-81000000D02*
X105000000Y-82000000D01*
X58500000Y-57500000D02*
X58500000Y-46000000D01*
X60000000Y-57500000D02*
X58500000Y-57500000D01*
X60000000Y-61500000D02*
X60000000Y-57500000D01*
X58500000Y-61500000D02*
X60000000Y-61500000D01*
X58500000Y-79000000D02*
X58500000Y-61500000D01*
X61500000Y-82000000D02*
X58500000Y-79000000D01*
X105000000Y-82000000D02*
X61500000Y-82000000D01*
X106000000Y-44000000D02*
X106000000Y-81000000D01*
X61500000Y-43000000D02*
X105000000Y-43000000D01*
X58500000Y-46000000D02*
X61500000Y-43000000D01*
D11*
X68000000Y-76460000D03*
D12*
X68000000Y-79000000D03*
D13*
X94540000Y-74400000D03*
D14*
X94540000Y-71860000D03*
D13*
X99500000Y-74400000D03*
D14*
X99500000Y-71860000D03*
D13*
X71000000Y-79000000D03*
D14*
X73540000Y-79000000D03*
D13*
X92000000Y-67500000D03*
D14*
X89460000Y-67500000D03*
D13*
X92000000Y-51500000D03*
D14*
X89460000Y-51500000D03*
D13*
X97000000Y-67500000D03*
D14*
X94460000Y-67500000D03*
D13*
X97000000Y-51500000D03*
D14*
X94460000Y-51500000D03*
D15*
X68000000Y-57000000D03*
D13*
X63000000Y-54500000D03*
X60500000Y-54500000D03*
X60500000Y-64500000D03*
X63000000Y-64500000D03*
X68000000Y-59500000D03*
D15*
X68000000Y-62000000D03*
X68000000Y-54500000D03*
X68000000Y-64500000D03*
D16*
X63000000Y-59500000D03*
D17*
X88250000Y-55250000D03*
X88250000Y-57750000D03*
X88250000Y-61250000D03*
X88250000Y-63750000D03*
D18*
X99563500Y-63310000D03*
X91943500Y-55690000D03*
X97023500Y-63310000D03*
X94483500Y-55690000D03*
X94483500Y-63310000D03*
X97023500Y-55690000D03*
X91943500Y-63310000D03*
D19*
X99563500Y-55690000D03*
D20*
X99620000Y-78000000D03*
X97080000Y-78000000D03*
X94540000Y-78000000D03*
D21*
X92000000Y-78000000D03*
X84500000Y-78000000D03*
D20*
X81960000Y-78000000D03*
X79420000Y-78000000D03*
X76880000Y-78000000D03*
D22*
X74000000Y-48000000D03*
X74000000Y-55000000D03*
X84000000Y-48000000D03*
X84000000Y-55000000D03*
X84000000Y-71000000D03*
X84000000Y-64000000D03*
X74000000Y-71000000D03*
X74000000Y-64000000D03*
M02*
