G04 #@! TF.GenerationSoftware,KiCad,Pcbnew,(5.1.9)-1*
G04 #@! TF.CreationDate,2021-03-12T00:47:26-05:00*
G04 #@! TF.ProjectId,InputBuffer,496e7075-7442-4756-9666-65722e6b6963,rev?*
G04 #@! TF.SameCoordinates,Original*
G04 #@! TF.FileFunction,Paste,Top*
G04 #@! TF.FilePolarity,Positive*
%FSLAX46Y46*%
G04 Gerber Fmt 4.6, Leading zero omitted, Abs format (unit mm)*
G04 Created by KiCad (PCBNEW (5.1.9)-1) date 2021-03-12 00:47:26*
%MOMM*%
%LPD*%
G01*
G04 APERTURE LIST*
G04 #@! TA.AperFunction,Profile*
%ADD10C,0.150000*%
G04 #@! TD*
G04 APERTURE END LIST*
D10*
X78500000Y-46500000D02*
G75*
G02*
X79500000Y-46500000I500000J0D01*
G01*
X79500000Y-56500000D02*
G75*
G02*
X78500000Y-56500000I-500000J0D01*
G01*
X78500000Y-62500000D02*
G75*
G02*
X79500000Y-62500000I500000J0D01*
G01*
X79500000Y-72500000D02*
G75*
G02*
X78500000Y-72500000I-500000J0D01*
G01*
X78500000Y-62500000D02*
X78500000Y-72500000D01*
X79500000Y-72500000D02*
X79500000Y-62500000D01*
X79500000Y-56500000D02*
X79500000Y-46500000D01*
X78500000Y-46500000D02*
X78500000Y-56500000D01*
X105000000Y-43000000D02*
X106000000Y-44000000D01*
X106000000Y-81000000D02*
X105000000Y-82000000D01*
X58500000Y-57500000D02*
X58500000Y-46000000D01*
X60000000Y-57500000D02*
X58500000Y-57500000D01*
X60000000Y-61500000D02*
X60000000Y-57500000D01*
X58500000Y-61500000D02*
X60000000Y-61500000D01*
X58500000Y-79000000D02*
X58500000Y-61500000D01*
X61500000Y-82000000D02*
X58500000Y-79000000D01*
X105000000Y-82000000D02*
X61500000Y-82000000D01*
X106000000Y-44000000D02*
X106000000Y-81000000D01*
X61500000Y-43000000D02*
X105000000Y-43000000D01*
X58500000Y-46000000D02*
X61500000Y-43000000D01*
M02*
