G04 #@! TF.GenerationSoftware,KiCad,Pcbnew,(5.1.9)-1*
G04 #@! TF.CreationDate,2021-03-12T00:47:26-05:00*
G04 #@! TF.ProjectId,InputBuffer,496e7075-7442-4756-9666-65722e6b6963,rev?*
G04 #@! TF.SameCoordinates,Original*
G04 #@! TF.FileFunction,Legend,Top*
G04 #@! TF.FilePolarity,Positive*
%FSLAX46Y46*%
G04 Gerber Fmt 4.6, Leading zero omitted, Abs format (unit mm)*
G04 Created by KiCad (PCBNEW (5.1.9)-1) date 2021-03-12 00:47:26*
%MOMM*%
%LPD*%
G01*
G04 APERTURE LIST*
%ADD10C,0.120000*%
G04 #@! TA.AperFunction,Profile*
%ADD11C,0.150000*%
G04 #@! TD*
%ADD12C,0.300000*%
%ADD13C,0.350000*%
%ADD14C,0.150000*%
G04 APERTURE END LIST*
D10*
X75304761Y-73561904D02*
X75304761Y-74133333D01*
X75266666Y-74247619D01*
X75190476Y-74323809D01*
X75076190Y-74361904D01*
X75000000Y-74361904D01*
X76066666Y-74361904D02*
X75685714Y-74361904D01*
X75685714Y-73561904D01*
X76790476Y-74285714D02*
X76752380Y-74323809D01*
X76638095Y-74361904D01*
X76561904Y-74361904D01*
X76447619Y-74323809D01*
X76371428Y-74247619D01*
X76333333Y-74171428D01*
X76295238Y-74019047D01*
X76295238Y-73904761D01*
X76333333Y-73752380D01*
X76371428Y-73676190D01*
X76447619Y-73600000D01*
X76561904Y-73561904D01*
X76638095Y-73561904D01*
X76752380Y-73600000D01*
X76790476Y-73638095D01*
X77361904Y-73561904D02*
X77361904Y-74133333D01*
X77323809Y-74247619D01*
X77247619Y-74323809D01*
X77133333Y-74361904D01*
X77057142Y-74361904D01*
X78123809Y-74361904D02*
X77742857Y-74361904D01*
X77742857Y-73561904D01*
X78847619Y-74285714D02*
X78809523Y-74323809D01*
X78695238Y-74361904D01*
X78619047Y-74361904D01*
X78504761Y-74323809D01*
X78428571Y-74247619D01*
X78390476Y-74171428D01*
X78352380Y-74019047D01*
X78352380Y-73904761D01*
X78390476Y-73752380D01*
X78428571Y-73676190D01*
X78504761Y-73600000D01*
X78619047Y-73561904D01*
X78695238Y-73561904D01*
X78809523Y-73600000D01*
X78847619Y-73638095D01*
X79419047Y-73561904D02*
X79419047Y-74133333D01*
X79380952Y-74247619D01*
X79304761Y-74323809D01*
X79190476Y-74361904D01*
X79114285Y-74361904D01*
X80180952Y-74361904D02*
X79800000Y-74361904D01*
X79800000Y-73561904D01*
X80904761Y-74285714D02*
X80866666Y-74323809D01*
X80752380Y-74361904D01*
X80676190Y-74361904D01*
X80561904Y-74323809D01*
X80485714Y-74247619D01*
X80447619Y-74171428D01*
X80409523Y-74019047D01*
X80409523Y-73904761D01*
X80447619Y-73752380D01*
X80485714Y-73676190D01*
X80561904Y-73600000D01*
X80676190Y-73561904D01*
X80752380Y-73561904D01*
X80866666Y-73600000D01*
X80904761Y-73638095D01*
X81476190Y-73561904D02*
X81476190Y-74133333D01*
X81438095Y-74247619D01*
X81361904Y-74323809D01*
X81247619Y-74361904D01*
X81171428Y-74361904D01*
X82238095Y-74361904D02*
X81857142Y-74361904D01*
X81857142Y-73561904D01*
X82961904Y-74285714D02*
X82923809Y-74323809D01*
X82809523Y-74361904D01*
X82733333Y-74361904D01*
X82619047Y-74323809D01*
X82542857Y-74247619D01*
X82504761Y-74171428D01*
X82466666Y-74019047D01*
X82466666Y-73904761D01*
X82504761Y-73752380D01*
X82542857Y-73676190D01*
X82619047Y-73600000D01*
X82733333Y-73561904D01*
X82809523Y-73561904D01*
X82923809Y-73600000D01*
X82961904Y-73638095D01*
D11*
X78500000Y-46500000D02*
G75*
G02*
X79500000Y-46500000I500000J0D01*
G01*
X79500000Y-56500000D02*
G75*
G02*
X78500000Y-56500000I-500000J0D01*
G01*
X78500000Y-62500000D02*
G75*
G02*
X79500000Y-62500000I500000J0D01*
G01*
X79500000Y-72500000D02*
G75*
G02*
X78500000Y-72500000I-500000J0D01*
G01*
X78500000Y-62500000D02*
X78500000Y-72500000D01*
X79500000Y-72500000D02*
X79500000Y-62500000D01*
X79500000Y-56500000D02*
X79500000Y-46500000D01*
X78500000Y-46500000D02*
X78500000Y-56500000D01*
D12*
X100071428Y-48321428D02*
X100142857Y-48250000D01*
X100285714Y-48178571D01*
X100642857Y-48178571D01*
X100785714Y-48250000D01*
X100857142Y-48321428D01*
X100928571Y-48464285D01*
X100928571Y-48607142D01*
X100857142Y-48821428D01*
X100000000Y-49678571D01*
X100928571Y-49678571D01*
D13*
X88857142Y-47000000D02*
X88738095Y-47133333D01*
X88380952Y-47266666D01*
X88142857Y-47266666D01*
X87785714Y-47133333D01*
X87547619Y-46866666D01*
X87428571Y-46600000D01*
X87309523Y-46066666D01*
X87309523Y-45666666D01*
X87428571Y-45133333D01*
X87547619Y-44866666D01*
X87785714Y-44600000D01*
X88142857Y-44466666D01*
X88380952Y-44466666D01*
X88738095Y-44600000D01*
X88857142Y-44733333D01*
X91000000Y-47266666D02*
X91000000Y-45800000D01*
X90880952Y-45533333D01*
X90642857Y-45400000D01*
X90166666Y-45400000D01*
X89928571Y-45533333D01*
X91000000Y-47133333D02*
X90761904Y-47266666D01*
X90166666Y-47266666D01*
X89928571Y-47133333D01*
X89809523Y-46866666D01*
X89809523Y-46600000D01*
X89928571Y-46333333D01*
X90166666Y-46200000D01*
X90761904Y-46200000D01*
X91000000Y-46066666D01*
X92904761Y-48333333D02*
X92785714Y-48200000D01*
X92547619Y-47800000D01*
X92428571Y-47533333D01*
X92309523Y-47133333D01*
X92190476Y-46466666D01*
X92190476Y-45933333D01*
X92309523Y-45266666D01*
X92428571Y-44866666D01*
X92547619Y-44600000D01*
X92785714Y-44200000D01*
X92904761Y-44066666D01*
X94333333Y-44466666D02*
X94809523Y-44466666D01*
X95047619Y-44600000D01*
X95285714Y-44866666D01*
X95404761Y-45400000D01*
X95404761Y-46333333D01*
X95285714Y-46866666D01*
X95047619Y-47133333D01*
X94809523Y-47266666D01*
X94333333Y-47266666D01*
X94095238Y-47133333D01*
X93857142Y-46866666D01*
X93738095Y-46333333D01*
X93738095Y-45400000D01*
X93857142Y-44866666D01*
X94095238Y-44600000D01*
X94333333Y-44466666D01*
X96476190Y-47266666D02*
X96476190Y-44466666D01*
X96476190Y-45800000D02*
X97904761Y-45800000D01*
X97904761Y-47266666D02*
X97904761Y-44466666D01*
X98857142Y-48333333D02*
X98976190Y-48200000D01*
X99214285Y-47800000D01*
X99333333Y-47533333D01*
X99452380Y-47133333D01*
X99571428Y-46466666D01*
X99571428Y-45933333D01*
X99452380Y-45266666D01*
X99333333Y-44866666D01*
X99214285Y-44600000D01*
X98976190Y-44200000D01*
X98857142Y-44066666D01*
D11*
X105000000Y-43000000D02*
X106000000Y-44000000D01*
X106000000Y-81000000D02*
X105000000Y-82000000D01*
X58500000Y-57500000D02*
X58500000Y-46000000D01*
X60000000Y-57500000D02*
X58500000Y-57500000D01*
X60000000Y-61500000D02*
X60000000Y-57500000D01*
X58500000Y-61500000D02*
X60000000Y-61500000D01*
X58500000Y-79000000D02*
X58500000Y-61500000D01*
X61500000Y-82000000D02*
X58500000Y-79000000D01*
X105000000Y-82000000D02*
X61500000Y-82000000D01*
X106000000Y-44000000D02*
X106000000Y-81000000D01*
X61500000Y-43000000D02*
X105000000Y-43000000D01*
X58500000Y-46000000D02*
X61500000Y-43000000D01*
D10*
X69310000Y-75270000D02*
X69310000Y-80190000D01*
X66690000Y-75270000D02*
X66690000Y-80190000D01*
X69310000Y-75270000D02*
X66690000Y-75270000D01*
X69310000Y-80190000D02*
X66690000Y-80190000D01*
X69310000Y-75390000D02*
X69080000Y-75390000D01*
X66920000Y-75390000D02*
X66690000Y-75390000D01*
X69310000Y-75510000D02*
X69080000Y-75510000D01*
X66920000Y-75510000D02*
X66690000Y-75510000D01*
X94540000Y-73540000D02*
X94540000Y-72860000D01*
X95400000Y-74400000D02*
G75*
G03*
X95400000Y-74400000I-860000J0D01*
G01*
X99500000Y-73540000D02*
X99500000Y-72860000D01*
X100360000Y-74400000D02*
G75*
G03*
X100360000Y-74400000I-860000J0D01*
G01*
X71860000Y-79000000D02*
X72540000Y-79000000D01*
X71860000Y-79000000D02*
G75*
G03*
X71860000Y-79000000I-860000J0D01*
G01*
X91140000Y-67500000D02*
X90460000Y-67500000D01*
X92860000Y-67500000D02*
G75*
G03*
X92860000Y-67500000I-860000J0D01*
G01*
X91140000Y-51500000D02*
X90460000Y-51500000D01*
X92860000Y-51500000D02*
G75*
G03*
X92860000Y-51500000I-860000J0D01*
G01*
X96140000Y-67500000D02*
X95460000Y-67500000D01*
X97860000Y-67500000D02*
G75*
G03*
X97860000Y-67500000I-860000J0D01*
G01*
X96140000Y-51500000D02*
X95460000Y-51500000D01*
X97860000Y-51500000D02*
G75*
G03*
X97860000Y-51500000I-860000J0D01*
G01*
D14*
X58500000Y-53500000D02*
X70700000Y-53500000D01*
X70700000Y-53500000D02*
X70700000Y-65500000D01*
X60000000Y-57500000D02*
X58500000Y-57500000D01*
X58500000Y-53500000D02*
X58500000Y-57500000D01*
X58500000Y-65500000D02*
X70700000Y-65500000D01*
X60000000Y-61500000D02*
X58500000Y-61500000D01*
X58500000Y-65500000D02*
X58500000Y-61500000D01*
X60000000Y-57500000D02*
X60000000Y-61500000D01*
D10*
X87500000Y-58460000D02*
X86890000Y-58460000D01*
X89610000Y-58460000D02*
X89000000Y-58460000D01*
X87500000Y-54540000D02*
X86890000Y-54540000D01*
X89610000Y-54540000D02*
X89000000Y-54540000D01*
X86890000Y-54540000D02*
X86890000Y-58460000D01*
X89610000Y-54540000D02*
X89610000Y-58460000D01*
X87500000Y-64460000D02*
X86890000Y-64460000D01*
X89610000Y-64460000D02*
X89000000Y-64460000D01*
X87500000Y-60540000D02*
X86890000Y-60540000D01*
X89610000Y-60540000D02*
X89000000Y-60540000D01*
X86890000Y-60540000D02*
X86890000Y-64460000D01*
X89610000Y-60540000D02*
X89610000Y-64460000D01*
X100953500Y-64640000D02*
X100953500Y-54360000D01*
X90553500Y-64640000D02*
X100953500Y-64640000D01*
X90553500Y-54360000D02*
X90553500Y-64640000D01*
X100953500Y-54360000D02*
X90553500Y-54360000D01*
X100893500Y-62150000D02*
X100893500Y-60500000D01*
X90613500Y-62150000D02*
X100893500Y-62150000D01*
X90613500Y-56850000D02*
X90613500Y-62150000D01*
X100893500Y-56850000D02*
X90613500Y-56850000D01*
X100893500Y-58500000D02*
X100893500Y-56850000D01*
X100893500Y-60500000D02*
G75*
G02*
X100893500Y-58500000I0J1000000D01*
G01*
X90670000Y-79330000D02*
X90670000Y-78000000D01*
X92000000Y-79330000D02*
X90670000Y-79330000D01*
X93270000Y-76670000D02*
X93270000Y-79330000D01*
X100950000Y-76670000D02*
X93270000Y-76670000D01*
X100950000Y-79330000D02*
X100950000Y-76670000D01*
X93270000Y-79330000D02*
X100950000Y-79330000D01*
X83230000Y-76670000D02*
X75550000Y-76670000D01*
X75550000Y-76670000D02*
X75550000Y-79330000D01*
X75550000Y-79330000D02*
X83230000Y-79330000D01*
X83230000Y-79330000D02*
X83230000Y-76670000D01*
X84500000Y-76670000D02*
X85830000Y-76670000D01*
X85830000Y-76670000D02*
X85830000Y-78000000D01*
D14*
X72000000Y-59000000D02*
X86000000Y-59000000D01*
X72000000Y-44000000D02*
X72000000Y-59000000D01*
X72000000Y-44000000D02*
X86000000Y-44000000D01*
X86000000Y-44000000D02*
X86000000Y-59000000D01*
X78500000Y-46500000D02*
X78500000Y-56500000D01*
X79500000Y-46500000D02*
X79500000Y-56500000D01*
X77200000Y-48000000D02*
X75000000Y-48000000D01*
X77200000Y-55000000D02*
X75000000Y-55000000D01*
X83000000Y-55000000D02*
X80800000Y-55000000D01*
X83000000Y-48000000D02*
X80800000Y-48000000D01*
D12*
X77100000Y-47500000D02*
G75*
G03*
X77100000Y-47500000I-100000J0D01*
G01*
X81100000Y-55500000D02*
G75*
G03*
X81100000Y-55500000I-100000J0D01*
G01*
D14*
X77200000Y-53600000D02*
G75*
G02*
X77200000Y-55000000I-200000J-700000D01*
G01*
X77200000Y-52200000D02*
G75*
G02*
X77200000Y-53600000I-200000J-700000D01*
G01*
X77200000Y-50800000D02*
G75*
G02*
X77200000Y-52200000I-200000J-700000D01*
G01*
X77200000Y-49400000D02*
G75*
G02*
X77200000Y-50800000I-200000J-700000D01*
G01*
X77200000Y-48000000D02*
G75*
G02*
X77200000Y-49400000I-200000J-700000D01*
G01*
X80800000Y-48000000D02*
G75*
G03*
X80800000Y-49400000I200000J-700000D01*
G01*
X80800000Y-50800000D02*
G75*
G03*
X80800000Y-52200000I200000J-700000D01*
G01*
X80800000Y-49400000D02*
G75*
G03*
X80800000Y-50800000I200000J-700000D01*
G01*
X80800000Y-52200000D02*
G75*
G03*
X80800000Y-53600000I200000J-700000D01*
G01*
X80800000Y-53600000D02*
G75*
G03*
X80800000Y-55000000I200000J-700000D01*
G01*
D12*
X81100000Y-71500000D02*
G75*
G03*
X81100000Y-71500000I-100000J0D01*
G01*
X77100000Y-63500000D02*
G75*
G03*
X77100000Y-63500000I-100000J0D01*
G01*
D14*
X83000000Y-64000000D02*
X80800000Y-64000000D01*
X83000000Y-71000000D02*
X80800000Y-71000000D01*
X77200000Y-71000000D02*
X75000000Y-71000000D01*
X77200000Y-64000000D02*
X75000000Y-64000000D01*
X79500000Y-62500000D02*
X79500000Y-72500000D01*
X78500000Y-62500000D02*
X78500000Y-72500000D01*
X86000000Y-60000000D02*
X86000000Y-75000000D01*
X72000000Y-60000000D02*
X86000000Y-60000000D01*
X72000000Y-60000000D02*
X72000000Y-75000000D01*
X72000000Y-75000000D02*
X86000000Y-75000000D01*
X80800000Y-69600000D02*
G75*
G03*
X80800000Y-71000000I200000J-700000D01*
G01*
X80800000Y-68200000D02*
G75*
G03*
X80800000Y-69600000I200000J-700000D01*
G01*
X80800000Y-65400000D02*
G75*
G03*
X80800000Y-66800000I200000J-700000D01*
G01*
X80800000Y-66800000D02*
G75*
G03*
X80800000Y-68200000I200000J-700000D01*
G01*
X80800000Y-64000000D02*
G75*
G03*
X80800000Y-65400000I200000J-700000D01*
G01*
X77200000Y-64000000D02*
G75*
G02*
X77200000Y-65400000I-200000J-700000D01*
G01*
X77200000Y-65400000D02*
G75*
G02*
X77200000Y-66800000I-200000J-700000D01*
G01*
X77200000Y-66800000D02*
G75*
G02*
X77200000Y-68200000I-200000J-700000D01*
G01*
X77200000Y-68200000D02*
G75*
G02*
X77200000Y-69600000I-200000J-700000D01*
G01*
X77200000Y-69600000D02*
G75*
G02*
X77200000Y-71000000I-200000J-700000D01*
G01*
X65861904Y-77050476D02*
X65061904Y-77050476D01*
X65061904Y-76860000D01*
X65100000Y-76745714D01*
X65176190Y-76669523D01*
X65252380Y-76631428D01*
X65404761Y-76593333D01*
X65519047Y-76593333D01*
X65671428Y-76631428D01*
X65747619Y-76669523D01*
X65823809Y-76745714D01*
X65861904Y-76860000D01*
X65861904Y-77050476D01*
X65138095Y-76288571D02*
X65100000Y-76250476D01*
X65061904Y-76174285D01*
X65061904Y-75983809D01*
X65100000Y-75907619D01*
X65138095Y-75869523D01*
X65214285Y-75831428D01*
X65290476Y-75831428D01*
X65404761Y-75869523D01*
X65861904Y-76326666D01*
X65861904Y-75831428D01*
X65861904Y-79974285D02*
X65861904Y-80355238D01*
X65061904Y-80355238D01*
X65442857Y-79707619D02*
X65442857Y-79440952D01*
X65861904Y-79326666D02*
X65861904Y-79707619D01*
X65061904Y-79707619D01*
X65061904Y-79326666D01*
X65861904Y-78983809D02*
X65061904Y-78983809D01*
X65061904Y-78793333D01*
X65100000Y-78679047D01*
X65176190Y-78602857D01*
X65252380Y-78564761D01*
X65404761Y-78526666D01*
X65519047Y-78526666D01*
X65671428Y-78564761D01*
X65747619Y-78602857D01*
X65823809Y-78679047D01*
X65861904Y-78793333D01*
X65861904Y-78983809D01*
X93151904Y-74995238D02*
X92770952Y-75261904D01*
X93151904Y-75452380D02*
X92351904Y-75452380D01*
X92351904Y-75147619D01*
X92390000Y-75071428D01*
X92428095Y-75033333D01*
X92504285Y-74995238D01*
X92618571Y-74995238D01*
X92694761Y-75033333D01*
X92732857Y-75071428D01*
X92770952Y-75147619D01*
X92770952Y-75452380D01*
X93151904Y-74538095D02*
X93113809Y-74614285D01*
X93075714Y-74652380D01*
X92999523Y-74690476D01*
X92770952Y-74690476D01*
X92694761Y-74652380D01*
X92656666Y-74614285D01*
X92618571Y-74538095D01*
X92618571Y-74423809D01*
X92656666Y-74347619D01*
X92694761Y-74309523D01*
X92770952Y-74271428D01*
X92999523Y-74271428D01*
X93075714Y-74309523D01*
X93113809Y-74347619D01*
X93151904Y-74423809D01*
X93151904Y-74538095D01*
X92428095Y-73966666D02*
X92390000Y-73928571D01*
X92351904Y-73852380D01*
X92351904Y-73661904D01*
X92390000Y-73585714D01*
X92428095Y-73547619D01*
X92504285Y-73509523D01*
X92580476Y-73509523D01*
X92694761Y-73547619D01*
X93151904Y-74004761D01*
X93151904Y-73509523D01*
X93151904Y-71345238D02*
X93151904Y-71802380D01*
X93151904Y-71573809D02*
X92351904Y-71573809D01*
X92466190Y-71650000D01*
X92542380Y-71726190D01*
X92580476Y-71802380D01*
X93151904Y-71002380D02*
X92351904Y-71002380D01*
X92847142Y-70926190D02*
X93151904Y-70697619D01*
X92618571Y-70697619D02*
X92923333Y-71002380D01*
X98111904Y-74995238D02*
X97730952Y-75261904D01*
X98111904Y-75452380D02*
X97311904Y-75452380D01*
X97311904Y-75147619D01*
X97350000Y-75071428D01*
X97388095Y-75033333D01*
X97464285Y-74995238D01*
X97578571Y-74995238D01*
X97654761Y-75033333D01*
X97692857Y-75071428D01*
X97730952Y-75147619D01*
X97730952Y-75452380D01*
X98111904Y-74538095D02*
X98073809Y-74614285D01*
X98035714Y-74652380D01*
X97959523Y-74690476D01*
X97730952Y-74690476D01*
X97654761Y-74652380D01*
X97616666Y-74614285D01*
X97578571Y-74538095D01*
X97578571Y-74423809D01*
X97616666Y-74347619D01*
X97654761Y-74309523D01*
X97730952Y-74271428D01*
X97959523Y-74271428D01*
X98035714Y-74309523D01*
X98073809Y-74347619D01*
X98111904Y-74423809D01*
X98111904Y-74538095D01*
X98111904Y-73509523D02*
X98111904Y-73966666D01*
X98111904Y-73738095D02*
X97311904Y-73738095D01*
X97426190Y-73814285D01*
X97502380Y-73890476D01*
X97540476Y-73966666D01*
X98111904Y-71345238D02*
X98111904Y-71802380D01*
X98111904Y-71573809D02*
X97311904Y-71573809D01*
X97426190Y-71650000D01*
X97502380Y-71726190D01*
X97540476Y-71802380D01*
X98111904Y-71002380D02*
X97311904Y-71002380D01*
X97807142Y-70926190D02*
X98111904Y-70697619D01*
X97578571Y-70697619D02*
X97883333Y-71002380D01*
X71222380Y-77501904D02*
X70955714Y-77120952D01*
X70765238Y-77501904D02*
X70765238Y-76701904D01*
X71070000Y-76701904D01*
X71146190Y-76740000D01*
X71184285Y-76778095D01*
X71222380Y-76854285D01*
X71222380Y-76968571D01*
X71184285Y-77044761D01*
X71146190Y-77082857D01*
X71070000Y-77120952D01*
X70765238Y-77120952D01*
X71679523Y-77501904D02*
X71603333Y-77463809D01*
X71565238Y-77387619D01*
X71565238Y-76701904D01*
X72289047Y-77463809D02*
X72212857Y-77501904D01*
X72060476Y-77501904D01*
X71984285Y-77463809D01*
X71946190Y-77387619D01*
X71946190Y-77082857D01*
X71984285Y-77006666D01*
X72060476Y-76968571D01*
X72212857Y-76968571D01*
X72289047Y-77006666D01*
X72327142Y-77082857D01*
X72327142Y-77159047D01*
X71946190Y-77235238D01*
X73012857Y-77501904D02*
X73012857Y-76701904D01*
X73012857Y-77463809D02*
X72936666Y-77501904D01*
X72784285Y-77501904D01*
X72708095Y-77463809D01*
X72670000Y-77425714D01*
X72631904Y-77349523D01*
X72631904Y-77120952D01*
X72670000Y-77044761D01*
X72708095Y-77006666D01*
X72784285Y-76968571D01*
X72936666Y-76968571D01*
X73012857Y-77006666D01*
X73812857Y-77501904D02*
X73355714Y-77501904D01*
X73584285Y-77501904D02*
X73584285Y-76701904D01*
X73508095Y-76816190D01*
X73431904Y-76892380D01*
X73355714Y-76930476D01*
X75328571Y-79171428D02*
X75861904Y-79171428D01*
X75023809Y-79361904D02*
X75595238Y-79552380D01*
X75595238Y-79057142D01*
X75861904Y-78752380D02*
X75061904Y-78752380D01*
X75557142Y-78676190D02*
X75861904Y-78447619D01*
X75328571Y-78447619D02*
X75633333Y-78752380D01*
X89176190Y-69861904D02*
X88909523Y-69480952D01*
X88719047Y-69861904D02*
X88719047Y-69061904D01*
X89023809Y-69061904D01*
X89100000Y-69100000D01*
X89138095Y-69138095D01*
X89176190Y-69214285D01*
X89176190Y-69328571D01*
X89138095Y-69404761D01*
X89100000Y-69442857D01*
X89023809Y-69480952D01*
X88719047Y-69480952D01*
X89519047Y-69861904D02*
X89519047Y-69328571D01*
X89519047Y-69061904D02*
X89480952Y-69100000D01*
X89519047Y-69138095D01*
X89557142Y-69100000D01*
X89519047Y-69061904D01*
X89519047Y-69138095D01*
X89861904Y-69138095D02*
X89900000Y-69100000D01*
X89976190Y-69061904D01*
X90166666Y-69061904D01*
X90242857Y-69100000D01*
X90280952Y-69138095D01*
X90319047Y-69214285D01*
X90319047Y-69290476D01*
X90280952Y-69404761D01*
X89823809Y-69861904D01*
X90319047Y-69861904D01*
X91523809Y-69861904D02*
X91066666Y-69861904D01*
X91295238Y-69861904D02*
X91295238Y-69061904D01*
X91219047Y-69176190D01*
X91142857Y-69252380D01*
X91066666Y-69290476D01*
X92019047Y-69061904D02*
X92095238Y-69061904D01*
X92171428Y-69100000D01*
X92209523Y-69138095D01*
X92247619Y-69214285D01*
X92285714Y-69366666D01*
X92285714Y-69557142D01*
X92247619Y-69709523D01*
X92209523Y-69785714D01*
X92171428Y-69823809D01*
X92095238Y-69861904D01*
X92019047Y-69861904D01*
X91942857Y-69823809D01*
X91904761Y-69785714D01*
X91866666Y-69709523D01*
X91828571Y-69557142D01*
X91828571Y-69366666D01*
X91866666Y-69214285D01*
X91904761Y-69138095D01*
X91942857Y-69100000D01*
X92019047Y-69061904D01*
X92628571Y-69861904D02*
X92628571Y-69061904D01*
X92704761Y-69557142D02*
X92933333Y-69861904D01*
X92933333Y-69328571D02*
X92628571Y-69633333D01*
X89176190Y-49861904D02*
X88909523Y-49480952D01*
X88719047Y-49861904D02*
X88719047Y-49061904D01*
X89023809Y-49061904D01*
X89100000Y-49100000D01*
X89138095Y-49138095D01*
X89176190Y-49214285D01*
X89176190Y-49328571D01*
X89138095Y-49404761D01*
X89100000Y-49442857D01*
X89023809Y-49480952D01*
X88719047Y-49480952D01*
X89519047Y-49861904D02*
X89519047Y-49328571D01*
X89519047Y-49061904D02*
X89480952Y-49100000D01*
X89519047Y-49138095D01*
X89557142Y-49100000D01*
X89519047Y-49061904D01*
X89519047Y-49138095D01*
X90319047Y-49861904D02*
X89861904Y-49861904D01*
X90090476Y-49861904D02*
X90090476Y-49061904D01*
X90014285Y-49176190D01*
X89938095Y-49252380D01*
X89861904Y-49290476D01*
X91523809Y-49861904D02*
X91066666Y-49861904D01*
X91295238Y-49861904D02*
X91295238Y-49061904D01*
X91219047Y-49176190D01*
X91142857Y-49252380D01*
X91066666Y-49290476D01*
X92019047Y-49061904D02*
X92095238Y-49061904D01*
X92171428Y-49100000D01*
X92209523Y-49138095D01*
X92247619Y-49214285D01*
X92285714Y-49366666D01*
X92285714Y-49557142D01*
X92247619Y-49709523D01*
X92209523Y-49785714D01*
X92171428Y-49823809D01*
X92095238Y-49861904D01*
X92019047Y-49861904D01*
X91942857Y-49823809D01*
X91904761Y-49785714D01*
X91866666Y-49709523D01*
X91828571Y-49557142D01*
X91828571Y-49366666D01*
X91866666Y-49214285D01*
X91904761Y-49138095D01*
X91942857Y-49100000D01*
X92019047Y-49061904D01*
X92628571Y-49861904D02*
X92628571Y-49061904D01*
X92704761Y-49557142D02*
X92933333Y-49861904D01*
X92933333Y-49328571D02*
X92628571Y-49633333D01*
X94138095Y-69861904D02*
X93871428Y-69480952D01*
X93680952Y-69861904D02*
X93680952Y-69061904D01*
X93985714Y-69061904D01*
X94061904Y-69100000D01*
X94100000Y-69138095D01*
X94138095Y-69214285D01*
X94138095Y-69328571D01*
X94100000Y-69404761D01*
X94061904Y-69442857D01*
X93985714Y-69480952D01*
X93680952Y-69480952D01*
X94366666Y-69328571D02*
X94671428Y-69328571D01*
X94480952Y-69861904D02*
X94480952Y-69176190D01*
X94519047Y-69100000D01*
X94595238Y-69061904D01*
X94671428Y-69061904D01*
X95280952Y-69328571D02*
X95280952Y-69861904D01*
X95090476Y-69023809D02*
X94900000Y-69595238D01*
X95395238Y-69595238D01*
X96523809Y-69861904D02*
X96066666Y-69861904D01*
X96295238Y-69861904D02*
X96295238Y-69061904D01*
X96219047Y-69176190D01*
X96142857Y-69252380D01*
X96066666Y-69290476D01*
X97019047Y-69061904D02*
X97095238Y-69061904D01*
X97171428Y-69100000D01*
X97209523Y-69138095D01*
X97247619Y-69214285D01*
X97285714Y-69366666D01*
X97285714Y-69557142D01*
X97247619Y-69709523D01*
X97209523Y-69785714D01*
X97171428Y-69823809D01*
X97095238Y-69861904D01*
X97019047Y-69861904D01*
X96942857Y-69823809D01*
X96904761Y-69785714D01*
X96866666Y-69709523D01*
X96828571Y-69557142D01*
X96828571Y-69366666D01*
X96866666Y-69214285D01*
X96904761Y-69138095D01*
X96942857Y-69100000D01*
X97019047Y-69061904D01*
X97628571Y-69861904D02*
X97628571Y-69061904D01*
X97704761Y-69557142D02*
X97933333Y-69861904D01*
X97933333Y-69328571D02*
X97628571Y-69633333D01*
X94138095Y-49861904D02*
X93871428Y-49480952D01*
X93680952Y-49861904D02*
X93680952Y-49061904D01*
X93985714Y-49061904D01*
X94061904Y-49100000D01*
X94100000Y-49138095D01*
X94138095Y-49214285D01*
X94138095Y-49328571D01*
X94100000Y-49404761D01*
X94061904Y-49442857D01*
X93985714Y-49480952D01*
X93680952Y-49480952D01*
X94366666Y-49328571D02*
X94671428Y-49328571D01*
X94480952Y-49861904D02*
X94480952Y-49176190D01*
X94519047Y-49100000D01*
X94595238Y-49061904D01*
X94671428Y-49061904D01*
X94861904Y-49061904D02*
X95357142Y-49061904D01*
X95090476Y-49366666D01*
X95204761Y-49366666D01*
X95280952Y-49404761D01*
X95319047Y-49442857D01*
X95357142Y-49519047D01*
X95357142Y-49709523D01*
X95319047Y-49785714D01*
X95280952Y-49823809D01*
X95204761Y-49861904D01*
X94976190Y-49861904D01*
X94900000Y-49823809D01*
X94861904Y-49785714D01*
X96523809Y-49861904D02*
X96066666Y-49861904D01*
X96295238Y-49861904D02*
X96295238Y-49061904D01*
X96219047Y-49176190D01*
X96142857Y-49252380D01*
X96066666Y-49290476D01*
X97019047Y-49061904D02*
X97095238Y-49061904D01*
X97171428Y-49100000D01*
X97209523Y-49138095D01*
X97247619Y-49214285D01*
X97285714Y-49366666D01*
X97285714Y-49557142D01*
X97247619Y-49709523D01*
X97209523Y-49785714D01*
X97171428Y-49823809D01*
X97095238Y-49861904D01*
X97019047Y-49861904D01*
X96942857Y-49823809D01*
X96904761Y-49785714D01*
X96866666Y-49709523D01*
X96828571Y-49557142D01*
X96828571Y-49366666D01*
X96866666Y-49214285D01*
X96904761Y-49138095D01*
X96942857Y-49100000D01*
X97019047Y-49061904D01*
X97628571Y-49861904D02*
X97628571Y-49061904D01*
X97704761Y-49557142D02*
X97933333Y-49861904D01*
X97933333Y-49328571D02*
X97628571Y-49633333D01*
X64061904Y-59516666D02*
X64633333Y-59516666D01*
X64747619Y-59554761D01*
X64823809Y-59630952D01*
X64861904Y-59745238D01*
X64861904Y-59821428D01*
X64861904Y-58716666D02*
X64861904Y-59173809D01*
X64861904Y-58945238D02*
X64061904Y-58945238D01*
X64176190Y-59021428D01*
X64252380Y-59097619D01*
X64290476Y-59173809D01*
X66573809Y-63061904D02*
X66611904Y-62947619D01*
X66611904Y-62757142D01*
X66573809Y-62680952D01*
X66535714Y-62642857D01*
X66459523Y-62604761D01*
X66383333Y-62604761D01*
X66307142Y-62642857D01*
X66269047Y-62680952D01*
X66230952Y-62757142D01*
X66192857Y-62909523D01*
X66154761Y-62985714D01*
X66116666Y-63023809D01*
X66040476Y-63061904D01*
X65964285Y-63061904D01*
X65888095Y-63023809D01*
X65850000Y-62985714D01*
X65811904Y-62909523D01*
X65811904Y-62719047D01*
X65850000Y-62604761D01*
X65811904Y-62033333D02*
X66383333Y-62033333D01*
X66497619Y-62071428D01*
X66573809Y-62147619D01*
X66611904Y-62261904D01*
X66611904Y-62338095D01*
X66611904Y-61233333D02*
X66611904Y-61690476D01*
X66611904Y-61461904D02*
X65811904Y-61461904D01*
X65926190Y-61538095D01*
X66002380Y-61614285D01*
X66040476Y-61690476D01*
X66688095Y-61080952D02*
X66688095Y-60471428D01*
X65811904Y-60357142D02*
X65811904Y-59861904D01*
X66116666Y-60128571D01*
X66116666Y-60014285D01*
X66154761Y-59938095D01*
X66192857Y-59900000D01*
X66269047Y-59861904D01*
X66459523Y-59861904D01*
X66535714Y-59900000D01*
X66573809Y-59938095D01*
X66611904Y-60014285D01*
X66611904Y-60242857D01*
X66573809Y-60319047D01*
X66535714Y-60357142D01*
X65811904Y-59138095D02*
X65811904Y-59519047D01*
X66192857Y-59557142D01*
X66154761Y-59519047D01*
X66116666Y-59442857D01*
X66116666Y-59252380D01*
X66154761Y-59176190D01*
X66192857Y-59138095D01*
X66269047Y-59100000D01*
X66459523Y-59100000D01*
X66535714Y-59138095D01*
X66573809Y-59176190D01*
X66611904Y-59252380D01*
X66611904Y-59442857D01*
X66573809Y-59519047D01*
X66535714Y-59557142D01*
X65888095Y-58795238D02*
X65850000Y-58757142D01*
X65811904Y-58680952D01*
X65811904Y-58490476D01*
X65850000Y-58414285D01*
X65888095Y-58376190D01*
X65964285Y-58338095D01*
X66040476Y-58338095D01*
X66154761Y-58376190D01*
X66611904Y-58833333D01*
X66611904Y-58338095D01*
X65811904Y-57614285D02*
X65811904Y-57995238D01*
X66192857Y-58033333D01*
X66154761Y-57995238D01*
X66116666Y-57919047D01*
X66116666Y-57728571D01*
X66154761Y-57652380D01*
X66192857Y-57614285D01*
X66269047Y-57576190D01*
X66459523Y-57576190D01*
X66535714Y-57614285D01*
X66573809Y-57652380D01*
X66611904Y-57728571D01*
X66611904Y-57919047D01*
X66573809Y-57995238D01*
X66535714Y-58033333D01*
X66611904Y-57233333D02*
X65811904Y-57233333D01*
X66611904Y-56776190D01*
X65811904Y-56776190D01*
X65850000Y-55976190D02*
X65811904Y-56052380D01*
X65811904Y-56166666D01*
X65850000Y-56280952D01*
X65926190Y-56357142D01*
X66002380Y-56395238D01*
X66154761Y-56433333D01*
X66269047Y-56433333D01*
X66421428Y-56395238D01*
X66497619Y-56357142D01*
X66573809Y-56280952D01*
X66611904Y-56166666D01*
X66611904Y-56090476D01*
X66573809Y-55976190D01*
X66535714Y-55938095D01*
X66269047Y-55938095D01*
X66269047Y-56090476D01*
X87116666Y-53785714D02*
X87078571Y-53823809D01*
X86964285Y-53861904D01*
X86888095Y-53861904D01*
X86773809Y-53823809D01*
X86697619Y-53747619D01*
X86659523Y-53671428D01*
X86621428Y-53519047D01*
X86621428Y-53404761D01*
X86659523Y-53252380D01*
X86697619Y-53176190D01*
X86773809Y-53100000D01*
X86888095Y-53061904D01*
X86964285Y-53061904D01*
X87078571Y-53100000D01*
X87116666Y-53138095D01*
X87421428Y-53138095D02*
X87459523Y-53100000D01*
X87535714Y-53061904D01*
X87726190Y-53061904D01*
X87802380Y-53100000D01*
X87840476Y-53138095D01*
X87878571Y-53214285D01*
X87878571Y-53290476D01*
X87840476Y-53404761D01*
X87383333Y-53861904D01*
X87878571Y-53861904D01*
X89261904Y-53861904D02*
X88804761Y-53861904D01*
X89033333Y-53861904D02*
X89033333Y-53061904D01*
X88957142Y-53176190D01*
X88880952Y-53252380D01*
X88804761Y-53290476D01*
X89757142Y-53061904D02*
X89833333Y-53061904D01*
X89909523Y-53100000D01*
X89947619Y-53138095D01*
X89985714Y-53214285D01*
X90023809Y-53366666D01*
X90023809Y-53557142D01*
X89985714Y-53709523D01*
X89947619Y-53785714D01*
X89909523Y-53823809D01*
X89833333Y-53861904D01*
X89757142Y-53861904D01*
X89680952Y-53823809D01*
X89642857Y-53785714D01*
X89604761Y-53709523D01*
X89566666Y-53557142D01*
X89566666Y-53366666D01*
X89604761Y-53214285D01*
X89642857Y-53138095D01*
X89680952Y-53100000D01*
X89757142Y-53061904D01*
X90519047Y-53061904D02*
X90595238Y-53061904D01*
X90671428Y-53100000D01*
X90709523Y-53138095D01*
X90747619Y-53214285D01*
X90785714Y-53366666D01*
X90785714Y-53557142D01*
X90747619Y-53709523D01*
X90709523Y-53785714D01*
X90671428Y-53823809D01*
X90595238Y-53861904D01*
X90519047Y-53861904D01*
X90442857Y-53823809D01*
X90404761Y-53785714D01*
X90366666Y-53709523D01*
X90328571Y-53557142D01*
X90328571Y-53366666D01*
X90366666Y-53214285D01*
X90404761Y-53138095D01*
X90442857Y-53100000D01*
X90519047Y-53061904D01*
X91128571Y-53328571D02*
X91128571Y-53861904D01*
X91128571Y-53404761D02*
X91166666Y-53366666D01*
X91242857Y-53328571D01*
X91357142Y-53328571D01*
X91433333Y-53366666D01*
X91471428Y-53442857D01*
X91471428Y-53861904D01*
X92119047Y-53442857D02*
X91852380Y-53442857D01*
X91852380Y-53861904D02*
X91852380Y-53061904D01*
X92233333Y-53061904D01*
X86866666Y-65785714D02*
X86828571Y-65823809D01*
X86714285Y-65861904D01*
X86638095Y-65861904D01*
X86523809Y-65823809D01*
X86447619Y-65747619D01*
X86409523Y-65671428D01*
X86371428Y-65519047D01*
X86371428Y-65404761D01*
X86409523Y-65252380D01*
X86447619Y-65176190D01*
X86523809Y-65100000D01*
X86638095Y-65061904D01*
X86714285Y-65061904D01*
X86828571Y-65100000D01*
X86866666Y-65138095D01*
X87628571Y-65861904D02*
X87171428Y-65861904D01*
X87400000Y-65861904D02*
X87400000Y-65061904D01*
X87323809Y-65176190D01*
X87247619Y-65252380D01*
X87171428Y-65290476D01*
X88761904Y-65861904D02*
X88304761Y-65861904D01*
X88533333Y-65861904D02*
X88533333Y-65061904D01*
X88457142Y-65176190D01*
X88380952Y-65252380D01*
X88304761Y-65290476D01*
X89257142Y-65061904D02*
X89333333Y-65061904D01*
X89409523Y-65100000D01*
X89447619Y-65138095D01*
X89485714Y-65214285D01*
X89523809Y-65366666D01*
X89523809Y-65557142D01*
X89485714Y-65709523D01*
X89447619Y-65785714D01*
X89409523Y-65823809D01*
X89333333Y-65861904D01*
X89257142Y-65861904D01*
X89180952Y-65823809D01*
X89142857Y-65785714D01*
X89104761Y-65709523D01*
X89066666Y-65557142D01*
X89066666Y-65366666D01*
X89104761Y-65214285D01*
X89142857Y-65138095D01*
X89180952Y-65100000D01*
X89257142Y-65061904D01*
X90019047Y-65061904D02*
X90095238Y-65061904D01*
X90171428Y-65100000D01*
X90209523Y-65138095D01*
X90247619Y-65214285D01*
X90285714Y-65366666D01*
X90285714Y-65557142D01*
X90247619Y-65709523D01*
X90209523Y-65785714D01*
X90171428Y-65823809D01*
X90095238Y-65861904D01*
X90019047Y-65861904D01*
X89942857Y-65823809D01*
X89904761Y-65785714D01*
X89866666Y-65709523D01*
X89828571Y-65557142D01*
X89828571Y-65366666D01*
X89866666Y-65214285D01*
X89904761Y-65138095D01*
X89942857Y-65100000D01*
X90019047Y-65061904D01*
X90628571Y-65328571D02*
X90628571Y-65861904D01*
X90628571Y-65404761D02*
X90666666Y-65366666D01*
X90742857Y-65328571D01*
X90857142Y-65328571D01*
X90933333Y-65366666D01*
X90971428Y-65442857D01*
X90971428Y-65861904D01*
X91619047Y-65442857D02*
X91352380Y-65442857D01*
X91352380Y-65861904D02*
X91352380Y-65061904D01*
X91733333Y-65061904D01*
X101811904Y-57609523D02*
X102459523Y-57609523D01*
X102535714Y-57571428D01*
X102573809Y-57533333D01*
X102611904Y-57457142D01*
X102611904Y-57304761D01*
X102573809Y-57228571D01*
X102535714Y-57190476D01*
X102459523Y-57152380D01*
X101811904Y-57152380D01*
X102611904Y-56352380D02*
X102611904Y-56809523D01*
X102611904Y-56580952D02*
X101811904Y-56580952D01*
X101926190Y-56657142D01*
X102002380Y-56733333D01*
X102040476Y-56809523D01*
X101811904Y-62695238D02*
X101811904Y-62238095D01*
X102611904Y-62466666D02*
X101811904Y-62466666D01*
X102611904Y-61590476D02*
X102611904Y-61971428D01*
X101811904Y-61971428D01*
X101811904Y-61171428D02*
X101811904Y-61095238D01*
X101850000Y-61019047D01*
X101888095Y-60980952D01*
X101964285Y-60942857D01*
X102116666Y-60904761D01*
X102307142Y-60904761D01*
X102459523Y-60942857D01*
X102535714Y-60980952D01*
X102573809Y-61019047D01*
X102611904Y-61095238D01*
X102611904Y-61171428D01*
X102573809Y-61247619D01*
X102535714Y-61285714D01*
X102459523Y-61323809D01*
X102307142Y-61361904D01*
X102116666Y-61361904D01*
X101964285Y-61323809D01*
X101888095Y-61285714D01*
X101850000Y-61247619D01*
X101811904Y-61171428D01*
X102154761Y-60447619D02*
X102116666Y-60523809D01*
X102078571Y-60561904D01*
X102002380Y-60600000D01*
X101964285Y-60600000D01*
X101888095Y-60561904D01*
X101850000Y-60523809D01*
X101811904Y-60447619D01*
X101811904Y-60295238D01*
X101850000Y-60219047D01*
X101888095Y-60180952D01*
X101964285Y-60142857D01*
X102002380Y-60142857D01*
X102078571Y-60180952D01*
X102116666Y-60219047D01*
X102154761Y-60295238D01*
X102154761Y-60447619D01*
X102192857Y-60523809D01*
X102230952Y-60561904D01*
X102307142Y-60600000D01*
X102459523Y-60600000D01*
X102535714Y-60561904D01*
X102573809Y-60523809D01*
X102611904Y-60447619D01*
X102611904Y-60295238D01*
X102573809Y-60219047D01*
X102535714Y-60180952D01*
X102459523Y-60142857D01*
X102307142Y-60142857D01*
X102230952Y-60180952D01*
X102192857Y-60219047D01*
X102154761Y-60295238D01*
X101888095Y-59838095D02*
X101850000Y-59800000D01*
X101811904Y-59723809D01*
X101811904Y-59533333D01*
X101850000Y-59457142D01*
X101888095Y-59419047D01*
X101964285Y-59380952D01*
X102040476Y-59380952D01*
X102154761Y-59419047D01*
X102611904Y-59876190D01*
X102611904Y-59380952D01*
X95315404Y-60109523D02*
X95963023Y-60109523D01*
X96039214Y-60071428D01*
X96077309Y-60033333D01*
X96115404Y-59957142D01*
X96115404Y-59804761D01*
X96077309Y-59728571D01*
X96039214Y-59690476D01*
X95963023Y-59652380D01*
X95315404Y-59652380D01*
X96115404Y-58852380D02*
X96115404Y-59309523D01*
X96115404Y-59080952D02*
X95315404Y-59080952D01*
X95429690Y-59157142D01*
X95505880Y-59233333D01*
X95543976Y-59309523D01*
X89061904Y-79404761D02*
X89633333Y-79404761D01*
X89747619Y-79442857D01*
X89823809Y-79519047D01*
X89861904Y-79633333D01*
X89861904Y-79709523D01*
X89861904Y-78680952D02*
X89442857Y-78680952D01*
X89366666Y-78719047D01*
X89328571Y-78795238D01*
X89328571Y-78947619D01*
X89366666Y-79023809D01*
X89823809Y-78680952D02*
X89861904Y-78757142D01*
X89861904Y-78947619D01*
X89823809Y-79023809D01*
X89747619Y-79061904D01*
X89671428Y-79061904D01*
X89595238Y-79023809D01*
X89557142Y-78947619D01*
X89557142Y-78757142D01*
X89519047Y-78680952D01*
X89328571Y-77957142D02*
X89861904Y-77957142D01*
X89328571Y-78300000D02*
X89747619Y-78300000D01*
X89823809Y-78261904D01*
X89861904Y-78185714D01*
X89861904Y-78071428D01*
X89823809Y-77995238D01*
X89785714Y-77957142D01*
X89861904Y-77233333D02*
X89061904Y-77233333D01*
X89823809Y-77233333D02*
X89861904Y-77309523D01*
X89861904Y-77461904D01*
X89823809Y-77538095D01*
X89785714Y-77576190D01*
X89709523Y-77614285D01*
X89480952Y-77614285D01*
X89404761Y-77576190D01*
X89366666Y-77538095D01*
X89328571Y-77461904D01*
X89328571Y-77309523D01*
X89366666Y-77233333D01*
X89861904Y-76852380D02*
X89328571Y-76852380D01*
X89061904Y-76852380D02*
X89100000Y-76890476D01*
X89138095Y-76852380D01*
X89100000Y-76814285D01*
X89061904Y-76852380D01*
X89138095Y-76852380D01*
X89861904Y-76357142D02*
X89823809Y-76433333D01*
X89785714Y-76471428D01*
X89709523Y-76509523D01*
X89480952Y-76509523D01*
X89404761Y-76471428D01*
X89366666Y-76433333D01*
X89328571Y-76357142D01*
X89328571Y-76242857D01*
X89366666Y-76166666D01*
X89404761Y-76128571D01*
X89480952Y-76090476D01*
X89709523Y-76090476D01*
X89785714Y-76128571D01*
X89823809Y-76166666D01*
X89861904Y-76242857D01*
X89861904Y-76357142D01*
X89861904Y-75328571D02*
X89861904Y-75785714D01*
X89861904Y-75557142D02*
X89061904Y-75557142D01*
X89176190Y-75633333D01*
X89252380Y-75709523D01*
X89290476Y-75785714D01*
X92403809Y-80861904D02*
X92403809Y-80442857D01*
X92365714Y-80366666D01*
X92289523Y-80328571D01*
X92137142Y-80328571D01*
X92060952Y-80366666D01*
X92403809Y-80823809D02*
X92327619Y-80861904D01*
X92137142Y-80861904D01*
X92060952Y-80823809D01*
X92022857Y-80747619D01*
X92022857Y-80671428D01*
X92060952Y-80595238D01*
X92137142Y-80557142D01*
X92327619Y-80557142D01*
X92403809Y-80519047D01*
X93127619Y-80328571D02*
X93127619Y-80861904D01*
X92784761Y-80328571D02*
X92784761Y-80747619D01*
X92822857Y-80823809D01*
X92899047Y-80861904D01*
X93013333Y-80861904D01*
X93089523Y-80823809D01*
X93127619Y-80785714D01*
X93851428Y-80861904D02*
X93851428Y-80061904D01*
X93851428Y-80823809D02*
X93775238Y-80861904D01*
X93622857Y-80861904D01*
X93546666Y-80823809D01*
X93508571Y-80785714D01*
X93470476Y-80709523D01*
X93470476Y-80480952D01*
X93508571Y-80404761D01*
X93546666Y-80366666D01*
X93622857Y-80328571D01*
X93775238Y-80328571D01*
X93851428Y-80366666D01*
X94232380Y-80861904D02*
X94232380Y-80328571D01*
X94232380Y-80061904D02*
X94194285Y-80100000D01*
X94232380Y-80138095D01*
X94270476Y-80100000D01*
X94232380Y-80061904D01*
X94232380Y-80138095D01*
X94727619Y-80861904D02*
X94651428Y-80823809D01*
X94613333Y-80785714D01*
X94575238Y-80709523D01*
X94575238Y-80480952D01*
X94613333Y-80404761D01*
X94651428Y-80366666D01*
X94727619Y-80328571D01*
X94841904Y-80328571D01*
X94918095Y-80366666D01*
X94956190Y-80404761D01*
X94994285Y-80480952D01*
X94994285Y-80709523D01*
X94956190Y-80785714D01*
X94918095Y-80823809D01*
X94841904Y-80861904D01*
X94727619Y-80861904D01*
X95794285Y-80785714D02*
X95756190Y-80823809D01*
X95641904Y-80861904D01*
X95565714Y-80861904D01*
X95451428Y-80823809D01*
X95375238Y-80747619D01*
X95337142Y-80671428D01*
X95299047Y-80519047D01*
X95299047Y-80404761D01*
X95337142Y-80252380D01*
X95375238Y-80176190D01*
X95451428Y-80100000D01*
X95565714Y-80061904D01*
X95641904Y-80061904D01*
X95756190Y-80100000D01*
X95794285Y-80138095D01*
X96251428Y-80861904D02*
X96175238Y-80823809D01*
X96137142Y-80785714D01*
X96099047Y-80709523D01*
X96099047Y-80480952D01*
X96137142Y-80404761D01*
X96175238Y-80366666D01*
X96251428Y-80328571D01*
X96365714Y-80328571D01*
X96441904Y-80366666D01*
X96480000Y-80404761D01*
X96518095Y-80480952D01*
X96518095Y-80709523D01*
X96480000Y-80785714D01*
X96441904Y-80823809D01*
X96365714Y-80861904D01*
X96251428Y-80861904D01*
X96860952Y-80328571D02*
X96860952Y-80861904D01*
X96860952Y-80404761D02*
X96899047Y-80366666D01*
X96975238Y-80328571D01*
X97089523Y-80328571D01*
X97165714Y-80366666D01*
X97203809Y-80442857D01*
X97203809Y-80861904D01*
X97584761Y-80328571D02*
X97584761Y-80861904D01*
X97584761Y-80404761D02*
X97622857Y-80366666D01*
X97699047Y-80328571D01*
X97813333Y-80328571D01*
X97889523Y-80366666D01*
X97927619Y-80442857D01*
X97927619Y-80861904D01*
X98727619Y-80861904D02*
X98270476Y-80861904D01*
X98499047Y-80861904D02*
X98499047Y-80061904D01*
X98422857Y-80176190D01*
X98346666Y-80252380D01*
X98270476Y-80290476D01*
X98994285Y-80861904D02*
X99413333Y-80328571D01*
X98994285Y-80328571D02*
X99413333Y-80861904D01*
X100060952Y-80328571D02*
X100060952Y-80861904D01*
X99870476Y-80023809D02*
X99680000Y-80595238D01*
X100175238Y-80595238D01*
X86561904Y-79295238D02*
X87133333Y-79295238D01*
X87247619Y-79333333D01*
X87323809Y-79409523D01*
X87361904Y-79523809D01*
X87361904Y-79600000D01*
X86828571Y-78914285D02*
X87628571Y-78914285D01*
X86866666Y-78914285D02*
X86828571Y-78838095D01*
X86828571Y-78685714D01*
X86866666Y-78609523D01*
X86904761Y-78571428D01*
X86980952Y-78533333D01*
X87209523Y-78533333D01*
X87285714Y-78571428D01*
X87323809Y-78609523D01*
X87361904Y-78685714D01*
X87361904Y-78838095D01*
X87323809Y-78914285D01*
X86828571Y-78266666D02*
X87361904Y-78114285D01*
X86980952Y-77961904D01*
X87361904Y-77809523D01*
X86828571Y-77657142D01*
X87361904Y-77352380D02*
X86828571Y-77352380D01*
X86980952Y-77352380D02*
X86904761Y-77314285D01*
X86866666Y-77276190D01*
X86828571Y-77200000D01*
X86828571Y-77123809D01*
X87361904Y-76438095D02*
X87361904Y-76895238D01*
X87361904Y-76666666D02*
X86561904Y-76666666D01*
X86676190Y-76742857D01*
X86752380Y-76819047D01*
X86790476Y-76895238D01*
X77090476Y-80328571D02*
X77090476Y-81128571D01*
X77090476Y-80366666D02*
X77166666Y-80328571D01*
X77319047Y-80328571D01*
X77395238Y-80366666D01*
X77433333Y-80404761D01*
X77471428Y-80480952D01*
X77471428Y-80709523D01*
X77433333Y-80785714D01*
X77395238Y-80823809D01*
X77319047Y-80861904D01*
X77166666Y-80861904D01*
X77090476Y-80823809D01*
X77738095Y-80328571D02*
X77890476Y-80861904D01*
X78042857Y-80480952D01*
X78195238Y-80861904D01*
X78347619Y-80328571D01*
X78652380Y-80861904D02*
X78652380Y-80328571D01*
X78652380Y-80480952D02*
X78690476Y-80404761D01*
X78728571Y-80366666D01*
X78804761Y-80328571D01*
X78880952Y-80328571D01*
X79604761Y-80785714D02*
X79566666Y-80823809D01*
X79452380Y-80861904D01*
X79376190Y-80861904D01*
X79261904Y-80823809D01*
X79185714Y-80747619D01*
X79147619Y-80671428D01*
X79109523Y-80519047D01*
X79109523Y-80404761D01*
X79147619Y-80252380D01*
X79185714Y-80176190D01*
X79261904Y-80100000D01*
X79376190Y-80061904D01*
X79452380Y-80061904D01*
X79566666Y-80100000D01*
X79604761Y-80138095D01*
X80061904Y-80861904D02*
X79985714Y-80823809D01*
X79947619Y-80785714D01*
X79909523Y-80709523D01*
X79909523Y-80480952D01*
X79947619Y-80404761D01*
X79985714Y-80366666D01*
X80061904Y-80328571D01*
X80176190Y-80328571D01*
X80252380Y-80366666D01*
X80290476Y-80404761D01*
X80328571Y-80480952D01*
X80328571Y-80709523D01*
X80290476Y-80785714D01*
X80252380Y-80823809D01*
X80176190Y-80861904D01*
X80061904Y-80861904D01*
X80671428Y-80328571D02*
X80671428Y-80861904D01*
X80671428Y-80404761D02*
X80709523Y-80366666D01*
X80785714Y-80328571D01*
X80900000Y-80328571D01*
X80976190Y-80366666D01*
X81014285Y-80442857D01*
X81014285Y-80861904D01*
X81395238Y-80328571D02*
X81395238Y-80861904D01*
X81395238Y-80404761D02*
X81433333Y-80366666D01*
X81509523Y-80328571D01*
X81623809Y-80328571D01*
X81700000Y-80366666D01*
X81738095Y-80442857D01*
X81738095Y-80861904D01*
X82538095Y-80861904D02*
X82080952Y-80861904D01*
X82309523Y-80861904D02*
X82309523Y-80061904D01*
X82233333Y-80176190D01*
X82157142Y-80252380D01*
X82080952Y-80290476D01*
X82804761Y-80861904D02*
X83223809Y-80328571D01*
X82804761Y-80328571D02*
X83223809Y-80861904D01*
X83871428Y-80328571D02*
X83871428Y-80861904D01*
X83680952Y-80023809D02*
X83490476Y-80595238D01*
X83985714Y-80595238D01*
X73640476Y-45061904D02*
X74097619Y-45061904D01*
X73869047Y-45861904D02*
X73869047Y-45061904D01*
X74783333Y-45861904D02*
X74326190Y-45861904D01*
X74554761Y-45861904D02*
X74554761Y-45061904D01*
X74478571Y-45176190D01*
X74402380Y-45252380D01*
X74326190Y-45290476D01*
X76638095Y-45861904D02*
X76638095Y-45442857D01*
X76600000Y-45366666D01*
X76523809Y-45328571D01*
X76371428Y-45328571D01*
X76295238Y-45366666D01*
X76638095Y-45823809D02*
X76561904Y-45861904D01*
X76371428Y-45861904D01*
X76295238Y-45823809D01*
X76257142Y-45747619D01*
X76257142Y-45671428D01*
X76295238Y-45595238D01*
X76371428Y-45557142D01*
X76561904Y-45557142D01*
X76638095Y-45519047D01*
X77361904Y-45328571D02*
X77361904Y-45861904D01*
X77019047Y-45328571D02*
X77019047Y-45747619D01*
X77057142Y-45823809D01*
X77133333Y-45861904D01*
X77247619Y-45861904D01*
X77323809Y-45823809D01*
X77361904Y-45785714D01*
X78085714Y-45861904D02*
X78085714Y-45061904D01*
X78085714Y-45823809D02*
X78009523Y-45861904D01*
X77857142Y-45861904D01*
X77780952Y-45823809D01*
X77742857Y-45785714D01*
X77704761Y-45709523D01*
X77704761Y-45480952D01*
X77742857Y-45404761D01*
X77780952Y-45366666D01*
X77857142Y-45328571D01*
X78009523Y-45328571D01*
X78085714Y-45366666D01*
X78466666Y-45861904D02*
X78466666Y-45328571D01*
X78466666Y-45061904D02*
X78428571Y-45100000D01*
X78466666Y-45138095D01*
X78504761Y-45100000D01*
X78466666Y-45061904D01*
X78466666Y-45138095D01*
X78961904Y-45861904D02*
X78885714Y-45823809D01*
X78847619Y-45785714D01*
X78809523Y-45709523D01*
X78809523Y-45480952D01*
X78847619Y-45404761D01*
X78885714Y-45366666D01*
X78961904Y-45328571D01*
X79076190Y-45328571D01*
X79152380Y-45366666D01*
X79190476Y-45404761D01*
X79228571Y-45480952D01*
X79228571Y-45709523D01*
X79190476Y-45785714D01*
X79152380Y-45823809D01*
X79076190Y-45861904D01*
X78961904Y-45861904D01*
X80600000Y-45861904D02*
X80142857Y-45861904D01*
X80371428Y-45861904D02*
X80371428Y-45061904D01*
X80295238Y-45176190D01*
X80219047Y-45252380D01*
X80142857Y-45290476D01*
X80942857Y-45785714D02*
X80980952Y-45823809D01*
X80942857Y-45861904D01*
X80904761Y-45823809D01*
X80942857Y-45785714D01*
X80942857Y-45861904D01*
X80942857Y-45366666D02*
X80980952Y-45404761D01*
X80942857Y-45442857D01*
X80904761Y-45404761D01*
X80942857Y-45366666D01*
X80942857Y-45442857D01*
X81742857Y-45861904D02*
X81285714Y-45861904D01*
X81514285Y-45861904D02*
X81514285Y-45061904D01*
X81438095Y-45176190D01*
X81361904Y-45252380D01*
X81285714Y-45290476D01*
X73640476Y-61061904D02*
X74097619Y-61061904D01*
X73869047Y-61861904D02*
X73869047Y-61061904D01*
X74326190Y-61138095D02*
X74364285Y-61100000D01*
X74440476Y-61061904D01*
X74630952Y-61061904D01*
X74707142Y-61100000D01*
X74745238Y-61138095D01*
X74783333Y-61214285D01*
X74783333Y-61290476D01*
X74745238Y-61404761D01*
X74288095Y-61861904D01*
X74783333Y-61861904D01*
X76638095Y-61861904D02*
X76638095Y-61442857D01*
X76600000Y-61366666D01*
X76523809Y-61328571D01*
X76371428Y-61328571D01*
X76295238Y-61366666D01*
X76638095Y-61823809D02*
X76561904Y-61861904D01*
X76371428Y-61861904D01*
X76295238Y-61823809D01*
X76257142Y-61747619D01*
X76257142Y-61671428D01*
X76295238Y-61595238D01*
X76371428Y-61557142D01*
X76561904Y-61557142D01*
X76638095Y-61519047D01*
X77361904Y-61328571D02*
X77361904Y-61861904D01*
X77019047Y-61328571D02*
X77019047Y-61747619D01*
X77057142Y-61823809D01*
X77133333Y-61861904D01*
X77247619Y-61861904D01*
X77323809Y-61823809D01*
X77361904Y-61785714D01*
X78085714Y-61861904D02*
X78085714Y-61061904D01*
X78085714Y-61823809D02*
X78009523Y-61861904D01*
X77857142Y-61861904D01*
X77780952Y-61823809D01*
X77742857Y-61785714D01*
X77704761Y-61709523D01*
X77704761Y-61480952D01*
X77742857Y-61404761D01*
X77780952Y-61366666D01*
X77857142Y-61328571D01*
X78009523Y-61328571D01*
X78085714Y-61366666D01*
X78466666Y-61861904D02*
X78466666Y-61328571D01*
X78466666Y-61061904D02*
X78428571Y-61100000D01*
X78466666Y-61138095D01*
X78504761Y-61100000D01*
X78466666Y-61061904D01*
X78466666Y-61138095D01*
X78961904Y-61861904D02*
X78885714Y-61823809D01*
X78847619Y-61785714D01*
X78809523Y-61709523D01*
X78809523Y-61480952D01*
X78847619Y-61404761D01*
X78885714Y-61366666D01*
X78961904Y-61328571D01*
X79076190Y-61328571D01*
X79152380Y-61366666D01*
X79190476Y-61404761D01*
X79228571Y-61480952D01*
X79228571Y-61709523D01*
X79190476Y-61785714D01*
X79152380Y-61823809D01*
X79076190Y-61861904D01*
X78961904Y-61861904D01*
X80600000Y-61861904D02*
X80142857Y-61861904D01*
X80371428Y-61861904D02*
X80371428Y-61061904D01*
X80295238Y-61176190D01*
X80219047Y-61252380D01*
X80142857Y-61290476D01*
X80942857Y-61785714D02*
X80980952Y-61823809D01*
X80942857Y-61861904D01*
X80904761Y-61823809D01*
X80942857Y-61785714D01*
X80942857Y-61861904D01*
X80942857Y-61366666D02*
X80980952Y-61404761D01*
X80942857Y-61442857D01*
X80904761Y-61404761D01*
X80942857Y-61366666D01*
X80942857Y-61442857D01*
X81742857Y-61861904D02*
X81285714Y-61861904D01*
X81514285Y-61861904D02*
X81514285Y-61061904D01*
X81438095Y-61176190D01*
X81361904Y-61252380D01*
X81285714Y-61290476D01*
M02*
