M48
; DRILL file {KiCad (5.1.9)-1} date 03/12/21 00:36:00
; FORMAT={-:-/ absolute / metric / decimal}
; #@! TF.CreationDate,2021-03-12T00:36:00-05:00
; #@! TF.GenerationSoftware,Kicad,Pcbnew,(5.1.9)-1
; #@! TF.FileFunction,Plated,1,2,PTH
FMAT,2
METRIC
T1C0.400
T2C0.700
T3C0.762
T4C0.800
T5C0.900
T6C1.000
%
G90
G05
T1
X67.0Y-86.5
X67.0Y-91.5
X67.0Y-97.0
X69.5Y-84.0
X69.5Y-99.5
X73.5Y-91.5
X75.0Y-84.0
X80.5Y-68.5
X80.5Y-73.0
X80.5Y-84.0
X80.5Y-89.8
X81.0Y-77.5
X86.0Y-84.0
X87.5Y-91.5
X91.5Y-84.0
X91.5Y-99.5
X92.8Y-61.1
X94.0Y-86.5
X94.0Y-91.5
X94.0Y-97.0
X95.4Y-63.7
X96.6Y-61.1
X99.1Y-63.7
X100.5Y-77.5
X100.5Y-80.75
X102.4Y-60.8
X102.4Y-63.7
X102.4Y-66.6
X103.0Y-75.0
X103.0Y-82.75
X103.25Y-79.0
X106.5Y-78.75
X106.5Y-81.5
X106.5Y-83.75
X107.0Y-76.25
X107.6Y-60.8
X107.6Y-63.7
X107.6Y-66.6
X122.6Y-60.8
X122.6Y-63.7
X122.6Y-66.6
X122.75Y-76.25
X123.25Y-78.75
X123.25Y-81.5
X123.25Y-83.75
X127.0Y-75.0
X127.0Y-79.5
X127.0Y-83.75
X131.25Y-62.5
X131.25Y-69.75
X133.75Y-69.75
X136.5Y-69.75
T2
X72.0Y-62.306
X72.0Y-64.206
X72.0Y-68.0
X72.0Y-69.9
X89.0Y-62.306
X89.0Y-64.206
X89.0Y-68.0
X89.0Y-69.9
T3
X69.0Y-76.0
X69.0Y-86.0
X76.0Y-76.0
X76.0Y-86.0
X85.0Y-76.0
X85.0Y-86.0
X92.0Y-76.0
X92.0Y-86.0
T4
X76.5Y-71.0
X76.69Y-59.127
X76.69Y-61.666
X76.69Y-64.206
X76.69Y-66.746
X79.0Y-71.0
X82.0Y-71.0
X84.31Y-59.127
X84.31Y-61.666
X84.31Y-64.206
X84.31Y-66.746
X84.5Y-71.0
T6
X105.0Y-59.88
X105.0Y-62.42
X105.0Y-64.96
X105.0Y-67.5
X105.0Y-75.0
X105.0Y-77.54
X105.0Y-80.08
X105.0Y-82.62
X125.0Y-59.88
X125.0Y-62.42
X125.0Y-64.96
X125.0Y-67.5
X125.0Y-75.0
X125.0Y-77.54
X125.0Y-80.08
X125.0Y-82.62
X135.0Y-59.88
X135.0Y-62.42
X135.0Y-64.96
X135.0Y-67.5
T5
G00X75.5Y-91.85
M15
G01X75.5Y-91.15
M16
G05
G00X78.0Y-91.85
M15
G01X78.0Y-91.15
M16
G05
G00X80.15Y-96.5
M15
G01X80.85Y-96.5
M16
G05
G00X83.0Y-91.85
M15
G01X83.0Y-91.15
M16
G05
G00X85.5Y-91.85
M15
G01X85.5Y-91.15
M16
G05
T0
M30
