%TF.GenerationSoftware,KiCad,Pcbnew,(5.1.9)-1*%
%TF.CreationDate,2021-03-12T00:34:36-05:00*%
%TF.ProjectId,SummingBoard,53756d6d-696e-4674-926f-6172642e6b69,rev?*%
%TF.SameCoordinates,Original*%
%TF.FileFunction,Paste,Bot*%
%TF.FilePolarity,Positive*%
%FSLAX46Y46*%
G04 Gerber Fmt 4.6, Leading zero omitted, Abs format (unit mm)*
G04 Created by KiCad (PCBNEW (5.1.9)-1) date 2021-03-12 00:34:36*
%MOMM*%
%LPD*%
G01*
G04 APERTURE LIST*
%TA.AperFunction,Profile*%
%ADD10C,0.050000*%
%TD*%
G04 APERTURE END LIST*
D10*
X97000000Y-57000000D02*
X136500000Y-57000000D01*
X94500000Y-54500000D02*
X97000000Y-57000000D01*
X66500000Y-54500000D02*
X94500000Y-54500000D01*
X138000000Y-58500000D02*
X136500000Y-57000000D01*
X138000000Y-74500000D02*
X138000000Y-58500000D01*
X126500000Y-86000000D02*
X138000000Y-74500000D01*
X98000000Y-86000000D02*
X126500000Y-86000000D01*
X96500000Y-87500000D02*
X98000000Y-86000000D01*
X96500000Y-97000000D02*
X96500000Y-87500000D01*
X92500000Y-101000000D02*
X96500000Y-97000000D01*
X86500000Y-101000000D02*
X92500000Y-101000000D01*
X82500000Y-101000000D02*
X86500000Y-101000000D01*
X82500000Y-99500000D02*
X82500000Y-101000000D01*
X78500000Y-99500000D02*
X82500000Y-99500000D01*
X78500000Y-101000000D02*
X78500000Y-99500000D01*
X68500000Y-101000000D02*
X78500000Y-101000000D01*
X64500000Y-97000000D02*
X68500000Y-101000000D01*
X64500000Y-56500000D02*
X64500000Y-97000000D01*
X64500000Y-56500000D02*
X66500000Y-54500000D01*
X110500000Y-72500000D02*
X115000000Y-72500000D01*
X115000000Y-70500000D02*
X110500000Y-70500000D01*
X115000000Y-70500000D02*
G75*
G02*
X115000000Y-72500000I0J-1000000D01*
G01*
X110500000Y-72500000D02*
G75*
G02*
X110500000Y-70500000I0J1000000D01*
G01*
X130000000Y-67500000D02*
X130000000Y-60000000D01*
X128000000Y-60000000D02*
X128000000Y-67500000D01*
X128000000Y-60000000D02*
G75*
G02*
X130000000Y-60000000I1000000J0D01*
G01*
X130000000Y-67500000D02*
G75*
G02*
X128000000Y-67500000I-1000000J0D01*
G01*
X119500000Y-72500000D02*
X126000000Y-72500000D01*
X119500000Y-70500000D02*
X126000000Y-70500000D01*
X106000000Y-72500000D02*
X97500000Y-72500000D01*
X97500000Y-70500000D02*
X106000000Y-70500000D01*
X97500000Y-72500000D02*
G75*
G02*
X97500000Y-70500000I0J1000000D01*
G01*
X106000000Y-70500000D02*
G75*
G02*
X106000000Y-72500000I0J-1000000D01*
G01*
X126000000Y-70500000D02*
G75*
G02*
X126000000Y-72500000I0J-1000000D01*
G01*
X119500000Y-72500000D02*
G75*
G02*
X119500000Y-70500000I0J1000000D01*
G01*
X67500000Y-82000000D02*
G75*
G02*
X67500000Y-81000000I0J500000D01*
G01*
X93500000Y-81000000D02*
G75*
G02*
X93500000Y-82000000I0J-500000D01*
G01*
X83500000Y-82000000D02*
G75*
G02*
X83500000Y-81000000I0J500000D01*
G01*
X77500000Y-81000000D02*
G75*
G02*
X77500000Y-82000000I0J-500000D01*
G01*
X67500000Y-81000000D02*
X77500000Y-81000000D01*
X77500000Y-82000000D02*
X67500000Y-82000000D01*
X93500000Y-82000000D02*
X83500000Y-82000000D01*
X83500000Y-81000000D02*
X93500000Y-81000000D01*
M02*
