%TF.GenerationSoftware,KiCad,Pcbnew,(5.1.9)-1*%
%TF.CreationDate,2021-03-12T00:34:36-05:00*%
%TF.ProjectId,SummingBoard,53756d6d-696e-4674-926f-6172642e6b69,rev?*%
%TF.SameCoordinates,Original*%
%TF.FileFunction,Copper,L2,Bot*%
%TF.FilePolarity,Positive*%
%FSLAX46Y46*%
G04 Gerber Fmt 4.6, Leading zero omitted, Abs format (unit mm)*
G04 Created by KiCad (PCBNEW (5.1.9)-1) date 2021-03-12 00:34:36*
%MOMM*%
%LPD*%
G01*
G04 APERTURE LIST*
%TA.AperFunction,Profile*%
%ADD10C,0.050000*%
%TD*%
%TA.AperFunction,ComponentPad*%
%ADD11R,1.600000X1.600000*%
%TD*%
%TA.AperFunction,ComponentPad*%
%ADD12O,1.600000X1.600000*%
%TD*%
%TA.AperFunction,ComponentPad*%
%ADD13C,1.524000*%
%TD*%
%TA.AperFunction,ComponentPad*%
%ADD14C,1.400000*%
%TD*%
%TA.AperFunction,ComponentPad*%
%ADD15O,1.400000X1.400000*%
%TD*%
%TA.AperFunction,ComponentPad*%
%ADD16O,1.400000X2.200000*%
%TD*%
%TA.AperFunction,WasherPad*%
%ADD17C,1.400000*%
%TD*%
%TA.AperFunction,ComponentPad*%
%ADD18O,2.200000X1.400000*%
%TD*%
%TA.AperFunction,ComponentPad*%
%ADD19R,1.700000X1.700000*%
%TD*%
%TA.AperFunction,ComponentPad*%
%ADD20O,1.700000X1.700000*%
%TD*%
%TA.AperFunction,ComponentPad*%
%ADD21C,1.600000*%
%TD*%
%TA.AperFunction,ViaPad*%
%ADD22C,0.800000*%
%TD*%
%TA.AperFunction,Conductor*%
%ADD23C,0.500000*%
%TD*%
%TA.AperFunction,Conductor*%
%ADD24C,1.000000*%
%TD*%
%TA.AperFunction,Conductor*%
%ADD25C,0.254000*%
%TD*%
%TA.AperFunction,Conductor*%
%ADD26C,0.100000*%
%TD*%
G04 APERTURE END LIST*
D10*
X97000000Y-57000000D02*
X136500000Y-57000000D01*
X94500000Y-54500000D02*
X97000000Y-57000000D01*
X66500000Y-54500000D02*
X94500000Y-54500000D01*
X138000000Y-58500000D02*
X136500000Y-57000000D01*
X138000000Y-74500000D02*
X138000000Y-58500000D01*
X126500000Y-86000000D02*
X138000000Y-74500000D01*
X98000000Y-86000000D02*
X126500000Y-86000000D01*
X96500000Y-87500000D02*
X98000000Y-86000000D01*
X96500000Y-97000000D02*
X96500000Y-87500000D01*
X92500000Y-101000000D02*
X96500000Y-97000000D01*
X86500000Y-101000000D02*
X92500000Y-101000000D01*
X82500000Y-101000000D02*
X86500000Y-101000000D01*
X82500000Y-99500000D02*
X82500000Y-101000000D01*
X78500000Y-99500000D02*
X82500000Y-99500000D01*
X78500000Y-101000000D02*
X78500000Y-99500000D01*
X68500000Y-101000000D02*
X78500000Y-101000000D01*
X64500000Y-97000000D02*
X68500000Y-101000000D01*
X64500000Y-56500000D02*
X64500000Y-97000000D01*
X64500000Y-56500000D02*
X66500000Y-54500000D01*
X110500000Y-72500000D02*
X115000000Y-72500000D01*
X115000000Y-70500000D02*
X110500000Y-70500000D01*
X115000000Y-70500000D02*
G75*
G02*
X115000000Y-72500000I0J-1000000D01*
G01*
X110500000Y-72500000D02*
G75*
G02*
X110500000Y-70500000I0J1000000D01*
G01*
X130000000Y-67500000D02*
X130000000Y-60000000D01*
X128000000Y-60000000D02*
X128000000Y-67500000D01*
X128000000Y-60000000D02*
G75*
G02*
X130000000Y-60000000I1000000J0D01*
G01*
X130000000Y-67500000D02*
G75*
G02*
X128000000Y-67500000I-1000000J0D01*
G01*
X119500000Y-72500000D02*
X126000000Y-72500000D01*
X119500000Y-70500000D02*
X126000000Y-70500000D01*
X106000000Y-72500000D02*
X97500000Y-72500000D01*
X97500000Y-70500000D02*
X106000000Y-70500000D01*
X97500000Y-72500000D02*
G75*
G02*
X97500000Y-70500000I0J1000000D01*
G01*
X106000000Y-70500000D02*
G75*
G02*
X106000000Y-72500000I0J-1000000D01*
G01*
X126000000Y-70500000D02*
G75*
G02*
X126000000Y-72500000I0J-1000000D01*
G01*
X119500000Y-72500000D02*
G75*
G02*
X119500000Y-70500000I0J1000000D01*
G01*
X67500000Y-82000000D02*
G75*
G02*
X67500000Y-81000000I0J500000D01*
G01*
X93500000Y-81000000D02*
G75*
G02*
X93500000Y-82000000I0J-500000D01*
G01*
X83500000Y-82000000D02*
G75*
G02*
X83500000Y-81000000I0J500000D01*
G01*
X77500000Y-81000000D02*
G75*
G02*
X77500000Y-82000000I0J-500000D01*
G01*
X67500000Y-81000000D02*
X77500000Y-81000000D01*
X77500000Y-82000000D02*
X67500000Y-82000000D01*
X93500000Y-82000000D02*
X83500000Y-82000000D01*
X83500000Y-81000000D02*
X93500000Y-81000000D01*
D11*
%TO.P,U1,1*%
%TO.N,Net-(Rf6-Pad1)*%
X84310000Y-66746500D03*
D12*
%TO.P,U1,5*%
%TO.N,GND*%
X76690000Y-59126500D03*
%TO.P,U1,2*%
%TO.N,/Audio-Right*%
X84310000Y-64206500D03*
%TO.P,U1,6*%
%TO.N,/Audio-Left*%
X76690000Y-61666500D03*
%TO.P,U1,3*%
%TO.N,GND*%
X84310000Y-61666500D03*
%TO.P,U1,7*%
%TO.N,Net-(Rf7-Pad1)*%
X76690000Y-64206500D03*
%TO.P,U1,4*%
%TO.N,VEE*%
X84310000Y-59126500D03*
%TO.P,U1,8*%
%TO.N,VCC*%
X76690000Y-66746500D03*
%TD*%
D13*
%TO.P,T2,4*%
%TO.N,GND*%
X76000000Y-76000000D03*
%TO.P,T2,3*%
%TO.N,Net-(Ro4-Pad1)*%
X69000000Y-76000000D03*
%TO.P,T2,2*%
%TO.N,/Output_Ground*%
X76000000Y-86000000D03*
%TO.P,T2,1*%
%TO.N,Net-(J6-Pad2)*%
X69000000Y-86000000D03*
%TD*%
%TO.P,T1,4*%
%TO.N,Net-(Ro3-Pad1)*%
X92000000Y-76000000D03*
%TO.P,T1,3*%
%TO.N,GND*%
X85000000Y-76000000D03*
%TO.P,T1,2*%
%TO.N,Net-(J6-Pad3)*%
X92000000Y-86000000D03*
%TO.P,T1,1*%
%TO.N,/Output_Ground*%
X85000000Y-86000000D03*
%TD*%
D14*
%TO.P,Ro4,1*%
%TO.N,Net-(Ro4-Pad1)*%
X72000000Y-69900000D03*
D15*
%TO.P,Ro4,2*%
%TO.N,Net-(Rf7-Pad1)*%
X72000000Y-68000000D03*
%TD*%
D14*
%TO.P,Ro3,1*%
%TO.N,Net-(Ro3-Pad1)*%
X89000000Y-69900000D03*
D15*
%TO.P,Ro3,2*%
%TO.N,Net-(Rf6-Pad1)*%
X89000000Y-68000000D03*
%TD*%
D14*
%TO.P,Rf7,1*%
%TO.N,Net-(Rf7-Pad1)*%
X72000000Y-64206500D03*
D15*
%TO.P,Rf7,2*%
%TO.N,/Audio-Left*%
X72000000Y-62306500D03*
%TD*%
D14*
%TO.P,Rf6,1*%
%TO.N,Net-(Rf6-Pad1)*%
X89000000Y-64206500D03*
D15*
%TO.P,Rf6,2*%
%TO.N,/Audio-Right*%
X89000000Y-62306500D03*
%TD*%
D16*
%TO.P,J6,5*%
%TO.N,N/C*%
X78000000Y-91500000D03*
D17*
%TO.P,J6,*%
%TO.N,*%
X75500000Y-96500000D03*
X75500000Y-99000000D03*
X85500000Y-99000000D03*
X85500000Y-96500000D03*
X80500000Y-91500000D03*
D16*
%TO.P,J6,4*%
%TO.N,N/C*%
X83000000Y-91500000D03*
%TO.P,J6,3*%
%TO.N,Net-(J6-Pad3)*%
X75500000Y-91500000D03*
%TO.P,J6,2*%
%TO.N,Net-(J6-Pad2)*%
X85500000Y-91500000D03*
D18*
%TO.P,J6,1*%
%TO.N,/Output_Ground*%
X80500000Y-96500000D03*
%TD*%
D19*
%TO.P,J5,1*%
%TO.N,GND*%
X125000000Y-75000000D03*
D20*
%TO.P,J5,2*%
%TO.N,VEE*%
X125000000Y-77540000D03*
%TO.P,J5,3*%
%TO.N,GND*%
X125000000Y-80080000D03*
%TO.P,J5,4*%
%TO.N,VCC*%
X125000000Y-82620000D03*
%TD*%
D19*
%TO.P,J4,1*%
%TO.N,GND*%
X125000000Y-67500000D03*
D20*
%TO.P,J4,2*%
%TO.N,/Audio-Left*%
X125000000Y-64960000D03*
%TO.P,J4,3*%
%TO.N,/Audio-Right*%
X125000000Y-62420000D03*
%TO.P,J4,4*%
%TO.N,GND*%
X125000000Y-59880000D03*
%TD*%
D19*
%TO.P,J3,1*%
%TO.N,GND*%
X105000000Y-75000000D03*
D20*
%TO.P,J3,2*%
%TO.N,VEE*%
X105000000Y-77540000D03*
%TO.P,J3,3*%
%TO.N,GND*%
X105000000Y-80080000D03*
%TO.P,J3,4*%
%TO.N,VCC*%
X105000000Y-82620000D03*
%TD*%
D19*
%TO.P,J2,1*%
%TO.N,GND*%
X105000000Y-67500000D03*
D20*
%TO.P,J2,2*%
%TO.N,/Audio-Left*%
X105000000Y-64960000D03*
%TO.P,J2,3*%
%TO.N,/Audio-Right*%
X105000000Y-62420000D03*
%TO.P,J2,4*%
%TO.N,GND*%
X105000000Y-59880000D03*
%TD*%
D19*
%TO.P,J1,1*%
%TO.N,GND*%
X135000000Y-59880000D03*
D20*
%TO.P,J1,2*%
%TO.N,VEE*%
X135000000Y-62420000D03*
%TO.P,J1,3*%
%TO.N,GND*%
X135000000Y-64960000D03*
%TO.P,J1,4*%
%TO.N,VCC*%
X135000000Y-67500000D03*
%TD*%
D21*
%TO.P,C4,1*%
%TO.N,GND*%
X84500000Y-71000000D03*
%TO.P,C4,2*%
%TO.N,VEE*%
X82000000Y-71000000D03*
%TD*%
%TO.P,C3,1*%
%TO.N,VCC*%
X79000000Y-71000000D03*
%TO.P,C3,2*%
%TO.N,GND*%
X76500000Y-71000000D03*
%TD*%
D22*
%TO.N,GND*%
X107600000Y-63700000D03*
X122600000Y-63700000D03*
X102400000Y-63700000D03*
X122600000Y-60800000D03*
X107600000Y-60800000D03*
X107600000Y-66600000D03*
X122600000Y-66600000D03*
X102400000Y-60800000D03*
X102400000Y-66600000D03*
X99100000Y-63700000D03*
X95400000Y-63700000D03*
X92800000Y-61100000D03*
X96600000Y-61100000D03*
X123250000Y-78750000D03*
X123250000Y-81500000D03*
X106500000Y-78750000D03*
X106500000Y-81500000D03*
X106500000Y-83750000D03*
X123250000Y-83750000D03*
X107000000Y-76250000D03*
X122750000Y-76250000D03*
X103000000Y-82750000D03*
X103000000Y-75000000D03*
X127000000Y-75000000D03*
X127000000Y-79500000D03*
X127000000Y-83750000D03*
X131250000Y-69750000D03*
X136500000Y-69750000D03*
X133750000Y-69750000D03*
X81000000Y-77500000D03*
X80500000Y-73000000D03*
X80500000Y-68500000D03*
X100500000Y-80750000D03*
X100500000Y-77500000D03*
X131250000Y-62500000D03*
X103250000Y-79000000D03*
%TO.N,/Output_Ground*%
X73500000Y-91500000D03*
X87500000Y-91500000D03*
X80500000Y-89800000D03*
X91500000Y-84000000D03*
X69500000Y-84000000D03*
X80500000Y-84000000D03*
X75000000Y-84000000D03*
X86000000Y-84000000D03*
X67000000Y-86500000D03*
X94000000Y-86500000D03*
X67000000Y-91500000D03*
X94000000Y-91500000D03*
X94000000Y-97000000D03*
X67000000Y-97000000D03*
X69500000Y-99500000D03*
X91500000Y-99500000D03*
%TD*%
D23*
%TO.N,VCC*%
X79000000Y-69056500D02*
X76690000Y-66746500D01*
X79000000Y-71000000D02*
X79000000Y-69056500D01*
X125000000Y-82620000D02*
X126380000Y-82620000D01*
X135000000Y-74000000D02*
X135000000Y-67500000D01*
X126380000Y-82620000D02*
X135000000Y-74000000D01*
X105000000Y-82620000D02*
X101880000Y-79500000D01*
X81500000Y-79500000D02*
X79000000Y-77000000D01*
X79000000Y-77000000D02*
X79000000Y-71000000D01*
X101880000Y-79500000D02*
X81500000Y-79500000D01*
%TO.N,GND*%
X105000000Y-80080000D02*
X105000000Y-80000000D01*
%TO.N,VEE*%
X105000000Y-77540000D02*
X125000000Y-77540000D01*
X105000000Y-77540000D02*
X102960000Y-77540000D01*
X101700010Y-78799990D02*
X83299990Y-78799990D01*
X102960000Y-77540000D02*
X101700010Y-78799990D01*
X83299990Y-78799990D02*
X82000000Y-77500000D01*
X82000000Y-77500000D02*
X82000000Y-71000000D01*
X83173500Y-59126500D02*
X84310000Y-59126500D01*
X82000000Y-60300000D02*
X83173500Y-59126500D01*
X82000000Y-71000000D02*
X82000000Y-60300000D01*
X135000000Y-62420000D02*
X134080000Y-62420000D01*
X134080000Y-62420000D02*
X132500000Y-64000000D01*
X132500000Y-64000000D02*
X132500000Y-72500000D01*
X127460000Y-77540000D02*
X125000000Y-77540000D01*
X132500000Y-72500000D02*
X127460000Y-77540000D01*
D24*
%TO.N,/Audio-Left*%
X125000000Y-64960000D02*
X105000000Y-64960000D01*
X72640000Y-61666500D02*
X72000000Y-62306500D01*
X76690000Y-61666500D02*
X72640000Y-61666500D01*
X98540000Y-64960000D02*
X105000000Y-64960000D01*
X90080000Y-56500000D02*
X98540000Y-64960000D01*
X75400000Y-56500000D02*
X90080000Y-56500000D01*
X72000000Y-62306500D02*
X72000000Y-59900000D01*
X76690000Y-61666500D02*
X75166500Y-61666500D01*
X75166500Y-61666500D02*
X73950000Y-60450000D01*
X73950000Y-57950000D02*
X75400000Y-56500000D01*
X73950000Y-60450000D02*
X73950000Y-57950000D01*
X72000000Y-59900000D02*
X73950000Y-57950000D01*
%TO.N,Net-(J6-Pad3)*%
X92000000Y-86000000D02*
X89500000Y-88500000D01*
X89500000Y-88500000D02*
X78000000Y-88500000D01*
X75500000Y-91000000D02*
X75500000Y-91500000D01*
X78000000Y-88500000D02*
X75500000Y-91000000D01*
%TO.N,Net-(J6-Pad2)*%
X83000000Y-94000000D02*
X85500000Y-91500000D01*
X73500000Y-94000000D02*
X83000000Y-94000000D01*
X69000000Y-89500000D02*
X73500000Y-94000000D01*
X69000000Y-86000000D02*
X69000000Y-89500000D01*
%TD*%
D25*
%TO.N,/Output_Ground*%
X94373000Y-86052606D02*
X94373000Y-97447394D01*
X91947394Y-99873000D01*
X86390524Y-99873000D01*
X86468608Y-99794916D01*
X86605077Y-99590676D01*
X86699079Y-99363737D01*
X86747000Y-99122819D01*
X86747000Y-98877181D01*
X86699079Y-98636263D01*
X86605077Y-98409324D01*
X86468608Y-98205084D01*
X86294916Y-98031392D01*
X86090676Y-97894923D01*
X85863737Y-97800921D01*
X85622819Y-97753000D01*
X85377181Y-97753000D01*
X85136263Y-97800921D01*
X84909324Y-97894923D01*
X84705084Y-98031392D01*
X84531392Y-98205084D01*
X84394923Y-98409324D01*
X84300921Y-98636263D01*
X84253000Y-98877181D01*
X84253000Y-99122819D01*
X84300921Y-99363737D01*
X84394923Y-99590676D01*
X84531392Y-99794916D01*
X84609476Y-99873000D01*
X83072000Y-99873000D01*
X83072000Y-99528094D01*
X83074767Y-99500000D01*
X83063723Y-99387869D01*
X83031015Y-99280046D01*
X82977901Y-99180677D01*
X82906422Y-99093578D01*
X82819323Y-99022099D01*
X82719954Y-98968985D01*
X82612131Y-98936277D01*
X82528094Y-98928000D01*
X82528093Y-98928000D01*
X82500000Y-98925233D01*
X82471906Y-98928000D01*
X78528094Y-98928000D01*
X78500000Y-98925233D01*
X78471907Y-98928000D01*
X78471906Y-98928000D01*
X78387869Y-98936277D01*
X78280046Y-98968985D01*
X78180677Y-99022099D01*
X78093578Y-99093578D01*
X78022099Y-99180677D01*
X77968985Y-99280046D01*
X77936277Y-99387869D01*
X77925233Y-99500000D01*
X77928001Y-99528103D01*
X77928001Y-99873000D01*
X76390524Y-99873000D01*
X76468608Y-99794916D01*
X76605077Y-99590676D01*
X76699079Y-99363737D01*
X76747000Y-99122819D01*
X76747000Y-98877181D01*
X76699079Y-98636263D01*
X76605077Y-98409324D01*
X76468608Y-98205084D01*
X76294916Y-98031392D01*
X76090676Y-97894923D01*
X75863737Y-97800921D01*
X75622819Y-97753000D01*
X75377181Y-97753000D01*
X75136263Y-97800921D01*
X74909324Y-97894923D01*
X74705084Y-98031392D01*
X74531392Y-98205084D01*
X74394923Y-98409324D01*
X74300921Y-98636263D01*
X74253000Y-98877181D01*
X74253000Y-99122819D01*
X74300921Y-99363737D01*
X74394923Y-99590676D01*
X74531392Y-99794916D01*
X74609476Y-99873000D01*
X69052606Y-99873000D01*
X66627000Y-97447394D01*
X66627000Y-96377181D01*
X74253000Y-96377181D01*
X74253000Y-96622819D01*
X74300921Y-96863737D01*
X74394923Y-97090676D01*
X74531392Y-97294916D01*
X74705084Y-97468608D01*
X74909324Y-97605077D01*
X75136263Y-97699079D01*
X75377181Y-97747000D01*
X75622819Y-97747000D01*
X75863737Y-97699079D01*
X76090676Y-97605077D01*
X76294916Y-97468608D01*
X76468608Y-97294916D01*
X76605077Y-97090676D01*
X76699079Y-96863737D01*
X76705127Y-96833329D01*
X78807284Y-96833329D01*
X78818020Y-96893550D01*
X78919431Y-97136090D01*
X79066210Y-97354185D01*
X79252717Y-97539455D01*
X79471785Y-97684779D01*
X79714995Y-97784572D01*
X79973000Y-97835000D01*
X80373000Y-97835000D01*
X80373000Y-96627000D01*
X80627000Y-96627000D01*
X80627000Y-97835000D01*
X81027000Y-97835000D01*
X81285005Y-97784572D01*
X81528215Y-97684779D01*
X81747283Y-97539455D01*
X81933790Y-97354185D01*
X82080569Y-97136090D01*
X82181980Y-96893550D01*
X82192716Y-96833329D01*
X82069374Y-96627000D01*
X80627000Y-96627000D01*
X80373000Y-96627000D01*
X78930626Y-96627000D01*
X78807284Y-96833329D01*
X76705127Y-96833329D01*
X76747000Y-96622819D01*
X76747000Y-96377181D01*
X84253000Y-96377181D01*
X84253000Y-96622819D01*
X84300921Y-96863737D01*
X84394923Y-97090676D01*
X84531392Y-97294916D01*
X84705084Y-97468608D01*
X84909324Y-97605077D01*
X85136263Y-97699079D01*
X85377181Y-97747000D01*
X85622819Y-97747000D01*
X85863737Y-97699079D01*
X86090676Y-97605077D01*
X86294916Y-97468608D01*
X86468608Y-97294916D01*
X86605077Y-97090676D01*
X86699079Y-96863737D01*
X86747000Y-96622819D01*
X86747000Y-96377181D01*
X86699079Y-96136263D01*
X86605077Y-95909324D01*
X86468608Y-95705084D01*
X86294916Y-95531392D01*
X86090676Y-95394923D01*
X85863737Y-95300921D01*
X85622819Y-95253000D01*
X85377181Y-95253000D01*
X85136263Y-95300921D01*
X84909324Y-95394923D01*
X84705084Y-95531392D01*
X84531392Y-95705084D01*
X84394923Y-95909324D01*
X84300921Y-96136263D01*
X84253000Y-96377181D01*
X76747000Y-96377181D01*
X76705128Y-96166671D01*
X78807284Y-96166671D01*
X78930626Y-96373000D01*
X80373000Y-96373000D01*
X80373000Y-95165000D01*
X80627000Y-95165000D01*
X80627000Y-96373000D01*
X82069374Y-96373000D01*
X82192716Y-96166671D01*
X82181980Y-96106450D01*
X82080569Y-95863910D01*
X81933790Y-95645815D01*
X81747283Y-95460545D01*
X81528215Y-95315221D01*
X81285005Y-95215428D01*
X81027000Y-95165000D01*
X80627000Y-95165000D01*
X80373000Y-95165000D01*
X79973000Y-95165000D01*
X79714995Y-95215428D01*
X79471785Y-95315221D01*
X79252717Y-95460545D01*
X79066210Y-95645815D01*
X78919431Y-95863910D01*
X78818020Y-96106450D01*
X78807284Y-96166671D01*
X76705128Y-96166671D01*
X76699079Y-96136263D01*
X76605077Y-95909324D01*
X76468608Y-95705084D01*
X76294916Y-95531392D01*
X76090676Y-95394923D01*
X75863737Y-95300921D01*
X75622819Y-95253000D01*
X75377181Y-95253000D01*
X75136263Y-95300921D01*
X74909324Y-95394923D01*
X74705084Y-95531392D01*
X74531392Y-95705084D01*
X74394923Y-95909324D01*
X74300921Y-96136263D01*
X74253000Y-96377181D01*
X66627000Y-96377181D01*
X66627000Y-86052606D01*
X66808531Y-85871075D01*
X67691000Y-85871075D01*
X67691000Y-86128925D01*
X67741304Y-86381821D01*
X67839979Y-86620044D01*
X67953000Y-86789192D01*
X67953001Y-89448574D01*
X67947936Y-89500000D01*
X67968151Y-89705247D01*
X68028019Y-89902607D01*
X68125240Y-90084495D01*
X68223296Y-90203977D01*
X68223301Y-90203982D01*
X68256079Y-90243922D01*
X68296019Y-90276700D01*
X72723300Y-94703982D01*
X72756078Y-94743922D01*
X72796018Y-94776700D01*
X72796022Y-94776704D01*
X72915504Y-94874760D01*
X73097392Y-94971981D01*
X73294752Y-95031850D01*
X73448574Y-95047000D01*
X73448583Y-95047000D01*
X73499999Y-95052064D01*
X73551415Y-95047000D01*
X82948584Y-95047000D01*
X83000000Y-95052064D01*
X83051416Y-95047000D01*
X83051426Y-95047000D01*
X83205248Y-95031850D01*
X83402608Y-94971981D01*
X83584496Y-94874760D01*
X83743922Y-94743922D01*
X83776705Y-94703976D01*
X85343102Y-93137580D01*
X85500000Y-93153033D01*
X85744455Y-93128956D01*
X85979515Y-93057652D01*
X86196148Y-92941859D01*
X86386028Y-92786028D01*
X86541859Y-92596148D01*
X86657652Y-92379515D01*
X86728956Y-92144454D01*
X86747000Y-91961252D01*
X86747000Y-91038747D01*
X86728956Y-90855545D01*
X86657652Y-90620485D01*
X86541859Y-90403852D01*
X86386028Y-90213972D01*
X86196147Y-90058141D01*
X85979514Y-89942348D01*
X85744454Y-89871044D01*
X85500000Y-89846967D01*
X85255545Y-89871044D01*
X85020485Y-89942348D01*
X84803852Y-90058141D01*
X84613972Y-90213972D01*
X84458141Y-90403853D01*
X84342348Y-90620486D01*
X84271044Y-90855546D01*
X84253000Y-91038748D01*
X84253000Y-91266318D01*
X84247000Y-91272318D01*
X84247000Y-91038747D01*
X84228956Y-90855545D01*
X84157652Y-90620485D01*
X84041859Y-90403852D01*
X83886028Y-90213972D01*
X83696147Y-90058141D01*
X83479514Y-89942348D01*
X83244454Y-89871044D01*
X83000000Y-89846967D01*
X82755545Y-89871044D01*
X82520485Y-89942348D01*
X82303852Y-90058141D01*
X82113972Y-90213972D01*
X81958141Y-90403853D01*
X81842348Y-90620486D01*
X81771044Y-90855546D01*
X81753000Y-91038748D01*
X81753000Y-91961253D01*
X81771044Y-92144455D01*
X81842348Y-92379515D01*
X81958142Y-92596148D01*
X82113973Y-92786028D01*
X82303853Y-92941859D01*
X82324696Y-92953000D01*
X78675305Y-92953000D01*
X78696148Y-92941859D01*
X78886028Y-92786028D01*
X79041859Y-92596148D01*
X79157652Y-92379515D01*
X79228956Y-92144454D01*
X79247000Y-91961252D01*
X79247000Y-91377181D01*
X79253000Y-91377181D01*
X79253000Y-91622819D01*
X79300921Y-91863737D01*
X79394923Y-92090676D01*
X79531392Y-92294916D01*
X79705084Y-92468608D01*
X79909324Y-92605077D01*
X80136263Y-92699079D01*
X80377181Y-92747000D01*
X80622819Y-92747000D01*
X80863737Y-92699079D01*
X81090676Y-92605077D01*
X81294916Y-92468608D01*
X81468608Y-92294916D01*
X81605077Y-92090676D01*
X81699079Y-91863737D01*
X81747000Y-91622819D01*
X81747000Y-91377181D01*
X81699079Y-91136263D01*
X81605077Y-90909324D01*
X81468608Y-90705084D01*
X81294916Y-90531392D01*
X81090676Y-90394923D01*
X80863737Y-90300921D01*
X80622819Y-90253000D01*
X80377181Y-90253000D01*
X80136263Y-90300921D01*
X79909324Y-90394923D01*
X79705084Y-90531392D01*
X79531392Y-90705084D01*
X79394923Y-90909324D01*
X79300921Y-91136263D01*
X79253000Y-91377181D01*
X79247000Y-91377181D01*
X79247000Y-91038747D01*
X79228956Y-90855545D01*
X79157652Y-90620485D01*
X79041859Y-90403852D01*
X78886028Y-90213972D01*
X78696147Y-90058141D01*
X78479514Y-89942348D01*
X78244454Y-89871044D01*
X78121726Y-89858956D01*
X78433682Y-89547000D01*
X89448584Y-89547000D01*
X89500000Y-89552064D01*
X89551416Y-89547000D01*
X89551426Y-89547000D01*
X89705248Y-89531850D01*
X89902608Y-89471981D01*
X90084496Y-89374760D01*
X90243922Y-89243922D01*
X90276705Y-89203976D01*
X92182298Y-87298383D01*
X92381821Y-87258696D01*
X92620044Y-87160021D01*
X92834439Y-87016767D01*
X93016767Y-86834439D01*
X93160021Y-86620044D01*
X93258696Y-86381821D01*
X93309000Y-86128925D01*
X93309000Y-85871075D01*
X93258696Y-85618179D01*
X93160021Y-85379956D01*
X93016767Y-85165561D01*
X92834439Y-84983233D01*
X92620044Y-84839979D01*
X92381821Y-84741304D01*
X92128925Y-84691000D01*
X91871075Y-84691000D01*
X91618179Y-84741304D01*
X91379956Y-84839979D01*
X91165561Y-84983233D01*
X90983233Y-85165561D01*
X90839979Y-85379956D01*
X90741304Y-85618179D01*
X90701617Y-85817702D01*
X89066319Y-87453000D01*
X78051416Y-87453000D01*
X78000000Y-87447936D01*
X77948584Y-87453000D01*
X77948574Y-87453000D01*
X77794752Y-87468150D01*
X77597392Y-87528019D01*
X77415504Y-87625240D01*
X77296022Y-87723296D01*
X77296018Y-87723300D01*
X77256078Y-87756078D01*
X77223300Y-87796018D01*
X75101566Y-89917752D01*
X75020485Y-89942348D01*
X74803852Y-90058141D01*
X74613972Y-90213972D01*
X74458141Y-90403853D01*
X74342348Y-90620486D01*
X74271044Y-90855546D01*
X74253000Y-91038748D01*
X74253000Y-91961253D01*
X74271044Y-92144455D01*
X74342348Y-92379515D01*
X74458142Y-92596148D01*
X74613973Y-92786028D01*
X74803853Y-92941859D01*
X74824696Y-92953000D01*
X73933682Y-92953000D01*
X70047000Y-89066319D01*
X70047000Y-86965565D01*
X75214040Y-86965565D01*
X75281020Y-87205656D01*
X75530048Y-87322756D01*
X75797135Y-87389023D01*
X76072017Y-87401910D01*
X76344133Y-87360922D01*
X76603023Y-87267636D01*
X76718980Y-87205656D01*
X76785960Y-86965565D01*
X84214040Y-86965565D01*
X84281020Y-87205656D01*
X84530048Y-87322756D01*
X84797135Y-87389023D01*
X85072017Y-87401910D01*
X85344133Y-87360922D01*
X85603023Y-87267636D01*
X85718980Y-87205656D01*
X85785960Y-86965565D01*
X85000000Y-86179605D01*
X84214040Y-86965565D01*
X76785960Y-86965565D01*
X76000000Y-86179605D01*
X75214040Y-86965565D01*
X70047000Y-86965565D01*
X70047000Y-86789192D01*
X70160021Y-86620044D01*
X70258696Y-86381821D01*
X70309000Y-86128925D01*
X70309000Y-86072017D01*
X74598090Y-86072017D01*
X74639078Y-86344133D01*
X74732364Y-86603023D01*
X74794344Y-86718980D01*
X75034435Y-86785960D01*
X75820395Y-86000000D01*
X76179605Y-86000000D01*
X76965565Y-86785960D01*
X77205656Y-86718980D01*
X77322756Y-86469952D01*
X77389023Y-86202865D01*
X77395157Y-86072017D01*
X83598090Y-86072017D01*
X83639078Y-86344133D01*
X83732364Y-86603023D01*
X83794344Y-86718980D01*
X84034435Y-86785960D01*
X84820395Y-86000000D01*
X85179605Y-86000000D01*
X85965565Y-86785960D01*
X86205656Y-86718980D01*
X86322756Y-86469952D01*
X86389023Y-86202865D01*
X86401910Y-85927983D01*
X86360922Y-85655867D01*
X86267636Y-85396977D01*
X86205656Y-85281020D01*
X85965565Y-85214040D01*
X85179605Y-86000000D01*
X84820395Y-86000000D01*
X84034435Y-85214040D01*
X83794344Y-85281020D01*
X83677244Y-85530048D01*
X83610977Y-85797135D01*
X83598090Y-86072017D01*
X77395157Y-86072017D01*
X77401910Y-85927983D01*
X77360922Y-85655867D01*
X77267636Y-85396977D01*
X77205656Y-85281020D01*
X76965565Y-85214040D01*
X76179605Y-86000000D01*
X75820395Y-86000000D01*
X75034435Y-85214040D01*
X74794344Y-85281020D01*
X74677244Y-85530048D01*
X74610977Y-85797135D01*
X74598090Y-86072017D01*
X70309000Y-86072017D01*
X70309000Y-85871075D01*
X70258696Y-85618179D01*
X70160021Y-85379956D01*
X70016767Y-85165561D01*
X69885641Y-85034435D01*
X75214040Y-85034435D01*
X76000000Y-85820395D01*
X76785960Y-85034435D01*
X84214040Y-85034435D01*
X85000000Y-85820395D01*
X85785960Y-85034435D01*
X85718980Y-84794344D01*
X85469952Y-84677244D01*
X85202865Y-84610977D01*
X84927983Y-84598090D01*
X84655867Y-84639078D01*
X84396977Y-84732364D01*
X84281020Y-84794344D01*
X84214040Y-85034435D01*
X76785960Y-85034435D01*
X76718980Y-84794344D01*
X76469952Y-84677244D01*
X76202865Y-84610977D01*
X75927983Y-84598090D01*
X75655867Y-84639078D01*
X75396977Y-84732364D01*
X75281020Y-84794344D01*
X75214040Y-85034435D01*
X69885641Y-85034435D01*
X69834439Y-84983233D01*
X69620044Y-84839979D01*
X69381821Y-84741304D01*
X69128925Y-84691000D01*
X68871075Y-84691000D01*
X68618179Y-84741304D01*
X68379956Y-84839979D01*
X68165561Y-84983233D01*
X67983233Y-85165561D01*
X67839979Y-85379956D01*
X67741304Y-85618179D01*
X67691000Y-85871075D01*
X66808531Y-85871075D01*
X69052606Y-83627000D01*
X91947394Y-83627000D01*
X94373000Y-86052606D01*
%TA.AperFunction,Conductor*%
D26*
G36*
X94373000Y-86052606D02*
G01*
X94373000Y-97447394D01*
X91947394Y-99873000D01*
X86390524Y-99873000D01*
X86468608Y-99794916D01*
X86605077Y-99590676D01*
X86699079Y-99363737D01*
X86747000Y-99122819D01*
X86747000Y-98877181D01*
X86699079Y-98636263D01*
X86605077Y-98409324D01*
X86468608Y-98205084D01*
X86294916Y-98031392D01*
X86090676Y-97894923D01*
X85863737Y-97800921D01*
X85622819Y-97753000D01*
X85377181Y-97753000D01*
X85136263Y-97800921D01*
X84909324Y-97894923D01*
X84705084Y-98031392D01*
X84531392Y-98205084D01*
X84394923Y-98409324D01*
X84300921Y-98636263D01*
X84253000Y-98877181D01*
X84253000Y-99122819D01*
X84300921Y-99363737D01*
X84394923Y-99590676D01*
X84531392Y-99794916D01*
X84609476Y-99873000D01*
X83072000Y-99873000D01*
X83072000Y-99528094D01*
X83074767Y-99500000D01*
X83063723Y-99387869D01*
X83031015Y-99280046D01*
X82977901Y-99180677D01*
X82906422Y-99093578D01*
X82819323Y-99022099D01*
X82719954Y-98968985D01*
X82612131Y-98936277D01*
X82528094Y-98928000D01*
X82528093Y-98928000D01*
X82500000Y-98925233D01*
X82471906Y-98928000D01*
X78528094Y-98928000D01*
X78500000Y-98925233D01*
X78471907Y-98928000D01*
X78471906Y-98928000D01*
X78387869Y-98936277D01*
X78280046Y-98968985D01*
X78180677Y-99022099D01*
X78093578Y-99093578D01*
X78022099Y-99180677D01*
X77968985Y-99280046D01*
X77936277Y-99387869D01*
X77925233Y-99500000D01*
X77928001Y-99528103D01*
X77928001Y-99873000D01*
X76390524Y-99873000D01*
X76468608Y-99794916D01*
X76605077Y-99590676D01*
X76699079Y-99363737D01*
X76747000Y-99122819D01*
X76747000Y-98877181D01*
X76699079Y-98636263D01*
X76605077Y-98409324D01*
X76468608Y-98205084D01*
X76294916Y-98031392D01*
X76090676Y-97894923D01*
X75863737Y-97800921D01*
X75622819Y-97753000D01*
X75377181Y-97753000D01*
X75136263Y-97800921D01*
X74909324Y-97894923D01*
X74705084Y-98031392D01*
X74531392Y-98205084D01*
X74394923Y-98409324D01*
X74300921Y-98636263D01*
X74253000Y-98877181D01*
X74253000Y-99122819D01*
X74300921Y-99363737D01*
X74394923Y-99590676D01*
X74531392Y-99794916D01*
X74609476Y-99873000D01*
X69052606Y-99873000D01*
X66627000Y-97447394D01*
X66627000Y-96377181D01*
X74253000Y-96377181D01*
X74253000Y-96622819D01*
X74300921Y-96863737D01*
X74394923Y-97090676D01*
X74531392Y-97294916D01*
X74705084Y-97468608D01*
X74909324Y-97605077D01*
X75136263Y-97699079D01*
X75377181Y-97747000D01*
X75622819Y-97747000D01*
X75863737Y-97699079D01*
X76090676Y-97605077D01*
X76294916Y-97468608D01*
X76468608Y-97294916D01*
X76605077Y-97090676D01*
X76699079Y-96863737D01*
X76705127Y-96833329D01*
X78807284Y-96833329D01*
X78818020Y-96893550D01*
X78919431Y-97136090D01*
X79066210Y-97354185D01*
X79252717Y-97539455D01*
X79471785Y-97684779D01*
X79714995Y-97784572D01*
X79973000Y-97835000D01*
X80373000Y-97835000D01*
X80373000Y-96627000D01*
X80627000Y-96627000D01*
X80627000Y-97835000D01*
X81027000Y-97835000D01*
X81285005Y-97784572D01*
X81528215Y-97684779D01*
X81747283Y-97539455D01*
X81933790Y-97354185D01*
X82080569Y-97136090D01*
X82181980Y-96893550D01*
X82192716Y-96833329D01*
X82069374Y-96627000D01*
X80627000Y-96627000D01*
X80373000Y-96627000D01*
X78930626Y-96627000D01*
X78807284Y-96833329D01*
X76705127Y-96833329D01*
X76747000Y-96622819D01*
X76747000Y-96377181D01*
X84253000Y-96377181D01*
X84253000Y-96622819D01*
X84300921Y-96863737D01*
X84394923Y-97090676D01*
X84531392Y-97294916D01*
X84705084Y-97468608D01*
X84909324Y-97605077D01*
X85136263Y-97699079D01*
X85377181Y-97747000D01*
X85622819Y-97747000D01*
X85863737Y-97699079D01*
X86090676Y-97605077D01*
X86294916Y-97468608D01*
X86468608Y-97294916D01*
X86605077Y-97090676D01*
X86699079Y-96863737D01*
X86747000Y-96622819D01*
X86747000Y-96377181D01*
X86699079Y-96136263D01*
X86605077Y-95909324D01*
X86468608Y-95705084D01*
X86294916Y-95531392D01*
X86090676Y-95394923D01*
X85863737Y-95300921D01*
X85622819Y-95253000D01*
X85377181Y-95253000D01*
X85136263Y-95300921D01*
X84909324Y-95394923D01*
X84705084Y-95531392D01*
X84531392Y-95705084D01*
X84394923Y-95909324D01*
X84300921Y-96136263D01*
X84253000Y-96377181D01*
X76747000Y-96377181D01*
X76705128Y-96166671D01*
X78807284Y-96166671D01*
X78930626Y-96373000D01*
X80373000Y-96373000D01*
X80373000Y-95165000D01*
X80627000Y-95165000D01*
X80627000Y-96373000D01*
X82069374Y-96373000D01*
X82192716Y-96166671D01*
X82181980Y-96106450D01*
X82080569Y-95863910D01*
X81933790Y-95645815D01*
X81747283Y-95460545D01*
X81528215Y-95315221D01*
X81285005Y-95215428D01*
X81027000Y-95165000D01*
X80627000Y-95165000D01*
X80373000Y-95165000D01*
X79973000Y-95165000D01*
X79714995Y-95215428D01*
X79471785Y-95315221D01*
X79252717Y-95460545D01*
X79066210Y-95645815D01*
X78919431Y-95863910D01*
X78818020Y-96106450D01*
X78807284Y-96166671D01*
X76705128Y-96166671D01*
X76699079Y-96136263D01*
X76605077Y-95909324D01*
X76468608Y-95705084D01*
X76294916Y-95531392D01*
X76090676Y-95394923D01*
X75863737Y-95300921D01*
X75622819Y-95253000D01*
X75377181Y-95253000D01*
X75136263Y-95300921D01*
X74909324Y-95394923D01*
X74705084Y-95531392D01*
X74531392Y-95705084D01*
X74394923Y-95909324D01*
X74300921Y-96136263D01*
X74253000Y-96377181D01*
X66627000Y-96377181D01*
X66627000Y-86052606D01*
X66808531Y-85871075D01*
X67691000Y-85871075D01*
X67691000Y-86128925D01*
X67741304Y-86381821D01*
X67839979Y-86620044D01*
X67953000Y-86789192D01*
X67953001Y-89448574D01*
X67947936Y-89500000D01*
X67968151Y-89705247D01*
X68028019Y-89902607D01*
X68125240Y-90084495D01*
X68223296Y-90203977D01*
X68223301Y-90203982D01*
X68256079Y-90243922D01*
X68296019Y-90276700D01*
X72723300Y-94703982D01*
X72756078Y-94743922D01*
X72796018Y-94776700D01*
X72796022Y-94776704D01*
X72915504Y-94874760D01*
X73097392Y-94971981D01*
X73294752Y-95031850D01*
X73448574Y-95047000D01*
X73448583Y-95047000D01*
X73499999Y-95052064D01*
X73551415Y-95047000D01*
X82948584Y-95047000D01*
X83000000Y-95052064D01*
X83051416Y-95047000D01*
X83051426Y-95047000D01*
X83205248Y-95031850D01*
X83402608Y-94971981D01*
X83584496Y-94874760D01*
X83743922Y-94743922D01*
X83776705Y-94703976D01*
X85343102Y-93137580D01*
X85500000Y-93153033D01*
X85744455Y-93128956D01*
X85979515Y-93057652D01*
X86196148Y-92941859D01*
X86386028Y-92786028D01*
X86541859Y-92596148D01*
X86657652Y-92379515D01*
X86728956Y-92144454D01*
X86747000Y-91961252D01*
X86747000Y-91038747D01*
X86728956Y-90855545D01*
X86657652Y-90620485D01*
X86541859Y-90403852D01*
X86386028Y-90213972D01*
X86196147Y-90058141D01*
X85979514Y-89942348D01*
X85744454Y-89871044D01*
X85500000Y-89846967D01*
X85255545Y-89871044D01*
X85020485Y-89942348D01*
X84803852Y-90058141D01*
X84613972Y-90213972D01*
X84458141Y-90403853D01*
X84342348Y-90620486D01*
X84271044Y-90855546D01*
X84253000Y-91038748D01*
X84253000Y-91266318D01*
X84247000Y-91272318D01*
X84247000Y-91038747D01*
X84228956Y-90855545D01*
X84157652Y-90620485D01*
X84041859Y-90403852D01*
X83886028Y-90213972D01*
X83696147Y-90058141D01*
X83479514Y-89942348D01*
X83244454Y-89871044D01*
X83000000Y-89846967D01*
X82755545Y-89871044D01*
X82520485Y-89942348D01*
X82303852Y-90058141D01*
X82113972Y-90213972D01*
X81958141Y-90403853D01*
X81842348Y-90620486D01*
X81771044Y-90855546D01*
X81753000Y-91038748D01*
X81753000Y-91961253D01*
X81771044Y-92144455D01*
X81842348Y-92379515D01*
X81958142Y-92596148D01*
X82113973Y-92786028D01*
X82303853Y-92941859D01*
X82324696Y-92953000D01*
X78675305Y-92953000D01*
X78696148Y-92941859D01*
X78886028Y-92786028D01*
X79041859Y-92596148D01*
X79157652Y-92379515D01*
X79228956Y-92144454D01*
X79247000Y-91961252D01*
X79247000Y-91377181D01*
X79253000Y-91377181D01*
X79253000Y-91622819D01*
X79300921Y-91863737D01*
X79394923Y-92090676D01*
X79531392Y-92294916D01*
X79705084Y-92468608D01*
X79909324Y-92605077D01*
X80136263Y-92699079D01*
X80377181Y-92747000D01*
X80622819Y-92747000D01*
X80863737Y-92699079D01*
X81090676Y-92605077D01*
X81294916Y-92468608D01*
X81468608Y-92294916D01*
X81605077Y-92090676D01*
X81699079Y-91863737D01*
X81747000Y-91622819D01*
X81747000Y-91377181D01*
X81699079Y-91136263D01*
X81605077Y-90909324D01*
X81468608Y-90705084D01*
X81294916Y-90531392D01*
X81090676Y-90394923D01*
X80863737Y-90300921D01*
X80622819Y-90253000D01*
X80377181Y-90253000D01*
X80136263Y-90300921D01*
X79909324Y-90394923D01*
X79705084Y-90531392D01*
X79531392Y-90705084D01*
X79394923Y-90909324D01*
X79300921Y-91136263D01*
X79253000Y-91377181D01*
X79247000Y-91377181D01*
X79247000Y-91038747D01*
X79228956Y-90855545D01*
X79157652Y-90620485D01*
X79041859Y-90403852D01*
X78886028Y-90213972D01*
X78696147Y-90058141D01*
X78479514Y-89942348D01*
X78244454Y-89871044D01*
X78121726Y-89858956D01*
X78433682Y-89547000D01*
X89448584Y-89547000D01*
X89500000Y-89552064D01*
X89551416Y-89547000D01*
X89551426Y-89547000D01*
X89705248Y-89531850D01*
X89902608Y-89471981D01*
X90084496Y-89374760D01*
X90243922Y-89243922D01*
X90276705Y-89203976D01*
X92182298Y-87298383D01*
X92381821Y-87258696D01*
X92620044Y-87160021D01*
X92834439Y-87016767D01*
X93016767Y-86834439D01*
X93160021Y-86620044D01*
X93258696Y-86381821D01*
X93309000Y-86128925D01*
X93309000Y-85871075D01*
X93258696Y-85618179D01*
X93160021Y-85379956D01*
X93016767Y-85165561D01*
X92834439Y-84983233D01*
X92620044Y-84839979D01*
X92381821Y-84741304D01*
X92128925Y-84691000D01*
X91871075Y-84691000D01*
X91618179Y-84741304D01*
X91379956Y-84839979D01*
X91165561Y-84983233D01*
X90983233Y-85165561D01*
X90839979Y-85379956D01*
X90741304Y-85618179D01*
X90701617Y-85817702D01*
X89066319Y-87453000D01*
X78051416Y-87453000D01*
X78000000Y-87447936D01*
X77948584Y-87453000D01*
X77948574Y-87453000D01*
X77794752Y-87468150D01*
X77597392Y-87528019D01*
X77415504Y-87625240D01*
X77296022Y-87723296D01*
X77296018Y-87723300D01*
X77256078Y-87756078D01*
X77223300Y-87796018D01*
X75101566Y-89917752D01*
X75020485Y-89942348D01*
X74803852Y-90058141D01*
X74613972Y-90213972D01*
X74458141Y-90403853D01*
X74342348Y-90620486D01*
X74271044Y-90855546D01*
X74253000Y-91038748D01*
X74253000Y-91961253D01*
X74271044Y-92144455D01*
X74342348Y-92379515D01*
X74458142Y-92596148D01*
X74613973Y-92786028D01*
X74803853Y-92941859D01*
X74824696Y-92953000D01*
X73933682Y-92953000D01*
X70047000Y-89066319D01*
X70047000Y-86965565D01*
X75214040Y-86965565D01*
X75281020Y-87205656D01*
X75530048Y-87322756D01*
X75797135Y-87389023D01*
X76072017Y-87401910D01*
X76344133Y-87360922D01*
X76603023Y-87267636D01*
X76718980Y-87205656D01*
X76785960Y-86965565D01*
X84214040Y-86965565D01*
X84281020Y-87205656D01*
X84530048Y-87322756D01*
X84797135Y-87389023D01*
X85072017Y-87401910D01*
X85344133Y-87360922D01*
X85603023Y-87267636D01*
X85718980Y-87205656D01*
X85785960Y-86965565D01*
X85000000Y-86179605D01*
X84214040Y-86965565D01*
X76785960Y-86965565D01*
X76000000Y-86179605D01*
X75214040Y-86965565D01*
X70047000Y-86965565D01*
X70047000Y-86789192D01*
X70160021Y-86620044D01*
X70258696Y-86381821D01*
X70309000Y-86128925D01*
X70309000Y-86072017D01*
X74598090Y-86072017D01*
X74639078Y-86344133D01*
X74732364Y-86603023D01*
X74794344Y-86718980D01*
X75034435Y-86785960D01*
X75820395Y-86000000D01*
X76179605Y-86000000D01*
X76965565Y-86785960D01*
X77205656Y-86718980D01*
X77322756Y-86469952D01*
X77389023Y-86202865D01*
X77395157Y-86072017D01*
X83598090Y-86072017D01*
X83639078Y-86344133D01*
X83732364Y-86603023D01*
X83794344Y-86718980D01*
X84034435Y-86785960D01*
X84820395Y-86000000D01*
X85179605Y-86000000D01*
X85965565Y-86785960D01*
X86205656Y-86718980D01*
X86322756Y-86469952D01*
X86389023Y-86202865D01*
X86401910Y-85927983D01*
X86360922Y-85655867D01*
X86267636Y-85396977D01*
X86205656Y-85281020D01*
X85965565Y-85214040D01*
X85179605Y-86000000D01*
X84820395Y-86000000D01*
X84034435Y-85214040D01*
X83794344Y-85281020D01*
X83677244Y-85530048D01*
X83610977Y-85797135D01*
X83598090Y-86072017D01*
X77395157Y-86072017D01*
X77401910Y-85927983D01*
X77360922Y-85655867D01*
X77267636Y-85396977D01*
X77205656Y-85281020D01*
X76965565Y-85214040D01*
X76179605Y-86000000D01*
X75820395Y-86000000D01*
X75034435Y-85214040D01*
X74794344Y-85281020D01*
X74677244Y-85530048D01*
X74610977Y-85797135D01*
X74598090Y-86072017D01*
X70309000Y-86072017D01*
X70309000Y-85871075D01*
X70258696Y-85618179D01*
X70160021Y-85379956D01*
X70016767Y-85165561D01*
X69885641Y-85034435D01*
X75214040Y-85034435D01*
X76000000Y-85820395D01*
X76785960Y-85034435D01*
X84214040Y-85034435D01*
X85000000Y-85820395D01*
X85785960Y-85034435D01*
X85718980Y-84794344D01*
X85469952Y-84677244D01*
X85202865Y-84610977D01*
X84927983Y-84598090D01*
X84655867Y-84639078D01*
X84396977Y-84732364D01*
X84281020Y-84794344D01*
X84214040Y-85034435D01*
X76785960Y-85034435D01*
X76718980Y-84794344D01*
X76469952Y-84677244D01*
X76202865Y-84610977D01*
X75927983Y-84598090D01*
X75655867Y-84639078D01*
X75396977Y-84732364D01*
X75281020Y-84794344D01*
X75214040Y-85034435D01*
X69885641Y-85034435D01*
X69834439Y-84983233D01*
X69620044Y-84839979D01*
X69381821Y-84741304D01*
X69128925Y-84691000D01*
X68871075Y-84691000D01*
X68618179Y-84741304D01*
X68379956Y-84839979D01*
X68165561Y-84983233D01*
X67983233Y-85165561D01*
X67839979Y-85379956D01*
X67741304Y-85618179D01*
X67691000Y-85871075D01*
X66808531Y-85871075D01*
X69052606Y-83627000D01*
X91947394Y-83627000D01*
X94373000Y-86052606D01*
G37*
%TD.AperFunction*%
%TD*%
D25*
%TO.N,GND*%
X95873000Y-57052606D02*
X95873000Y-60812319D01*
X90856705Y-55796024D01*
X90823922Y-55756078D01*
X90664496Y-55625240D01*
X90482608Y-55528019D01*
X90285248Y-55468150D01*
X90131426Y-55453000D01*
X90131416Y-55453000D01*
X90080000Y-55447936D01*
X90028584Y-55453000D01*
X75451418Y-55453000D01*
X75400000Y-55447936D01*
X75348581Y-55453000D01*
X75348574Y-55453000D01*
X75194752Y-55468150D01*
X74997392Y-55528019D01*
X74815504Y-55625240D01*
X74656078Y-55756078D01*
X74623295Y-55796024D01*
X73246028Y-57173291D01*
X73246022Y-57173296D01*
X73246014Y-57173304D01*
X73206079Y-57206078D01*
X73173305Y-57246013D01*
X71296019Y-59123300D01*
X71256079Y-59156078D01*
X71223301Y-59196018D01*
X71223296Y-59196023D01*
X71125240Y-59315505D01*
X71028019Y-59497393D01*
X71005560Y-59571432D01*
X70968151Y-59694752D01*
X70964314Y-59733709D01*
X70947936Y-59900000D01*
X70953001Y-59951426D01*
X70953000Y-61628905D01*
X70894923Y-61715824D01*
X70800921Y-61942763D01*
X70753000Y-62183681D01*
X70753000Y-62429319D01*
X70800921Y-62670237D01*
X70894923Y-62897176D01*
X71031392Y-63101416D01*
X71186476Y-63256500D01*
X71031392Y-63411584D01*
X70894923Y-63615824D01*
X70800921Y-63842763D01*
X70753000Y-64083681D01*
X70753000Y-64329319D01*
X70800921Y-64570237D01*
X70894923Y-64797176D01*
X71031392Y-65001416D01*
X71205084Y-65175108D01*
X71409324Y-65311577D01*
X71636263Y-65405579D01*
X71877181Y-65453500D01*
X72122819Y-65453500D01*
X72363737Y-65405579D01*
X72590676Y-65311577D01*
X72794916Y-65175108D01*
X72968608Y-65001416D01*
X73105077Y-64797176D01*
X73199079Y-64570237D01*
X73247000Y-64329319D01*
X73247000Y-64083681D01*
X73199079Y-63842763D01*
X73105077Y-63615824D01*
X72968608Y-63411584D01*
X72813524Y-63256500D01*
X72968608Y-63101416D01*
X73105077Y-62897176D01*
X73181159Y-62713500D01*
X75115084Y-62713500D01*
X75166500Y-62718564D01*
X75217916Y-62713500D01*
X75832409Y-62713500D01*
X76051956Y-62860196D01*
X76236169Y-62936500D01*
X76051956Y-63012804D01*
X75831337Y-63160216D01*
X75643716Y-63347837D01*
X75496304Y-63568456D01*
X75394764Y-63813594D01*
X75343000Y-64073832D01*
X75343000Y-64339168D01*
X75394764Y-64599406D01*
X75496304Y-64844544D01*
X75643716Y-65065163D01*
X75831337Y-65252784D01*
X76051956Y-65400196D01*
X76236169Y-65476500D01*
X76051956Y-65552804D01*
X75831337Y-65700216D01*
X75643716Y-65887837D01*
X75496304Y-66108456D01*
X75394764Y-66353594D01*
X75343000Y-66613832D01*
X75343000Y-66879168D01*
X75394764Y-67139406D01*
X75496304Y-67384544D01*
X75643716Y-67605163D01*
X75831337Y-67792784D01*
X76051956Y-67940196D01*
X76297094Y-68041736D01*
X76557332Y-68093500D01*
X76822668Y-68093500D01*
X76895404Y-68079032D01*
X78203001Y-69386629D01*
X78203001Y-69912514D01*
X78141337Y-69953716D01*
X77953716Y-70141337D01*
X77806304Y-70361956D01*
X77767447Y-70455765D01*
X77748703Y-70403962D01*
X77689330Y-70292881D01*
X77461587Y-70218018D01*
X76679605Y-71000000D01*
X77461587Y-71781982D01*
X77689330Y-71707119D01*
X77766609Y-71542212D01*
X77806304Y-71638044D01*
X77953716Y-71858663D01*
X78141337Y-72046284D01*
X78203001Y-72087486D01*
X78203000Y-76960852D01*
X78199144Y-77000000D01*
X78203000Y-77039148D01*
X78203000Y-77039150D01*
X78214532Y-77156238D01*
X78260106Y-77306473D01*
X78260107Y-77306474D01*
X78334113Y-77444932D01*
X78379306Y-77500000D01*
X78433709Y-77566291D01*
X78464123Y-77591251D01*
X80908754Y-80035883D01*
X80933709Y-80066291D01*
X80964117Y-80091246D01*
X80964119Y-80091248D01*
X81055067Y-80165887D01*
X81129074Y-80205444D01*
X81193526Y-80239894D01*
X81343761Y-80285468D01*
X81460849Y-80297000D01*
X81460851Y-80297000D01*
X81500000Y-80300856D01*
X81539148Y-80297000D01*
X93523394Y-80297000D01*
X93447394Y-80373000D01*
X67552606Y-80373000D01*
X65127000Y-77947394D01*
X65127000Y-75871075D01*
X67691000Y-75871075D01*
X67691000Y-76128925D01*
X67741304Y-76381821D01*
X67839979Y-76620044D01*
X67983233Y-76834439D01*
X68165561Y-77016767D01*
X68379956Y-77160021D01*
X68618179Y-77258696D01*
X68871075Y-77309000D01*
X69128925Y-77309000D01*
X69381821Y-77258696D01*
X69620044Y-77160021D01*
X69834439Y-77016767D01*
X69916767Y-76934439D01*
X75245166Y-76934439D01*
X75315423Y-77158305D01*
X75554551Y-77269602D01*
X75810797Y-77332109D01*
X76074314Y-77343425D01*
X76334976Y-77303114D01*
X76582764Y-77212724D01*
X76684577Y-77158305D01*
X76754834Y-76934439D01*
X76000000Y-76179605D01*
X75245166Y-76934439D01*
X69916767Y-76934439D01*
X70016767Y-76834439D01*
X70160021Y-76620044D01*
X70258696Y-76381821D01*
X70309000Y-76128925D01*
X70309000Y-76074314D01*
X74656575Y-76074314D01*
X74696886Y-76334976D01*
X74787276Y-76582764D01*
X74841695Y-76684577D01*
X75065561Y-76754834D01*
X75820395Y-76000000D01*
X76179605Y-76000000D01*
X76934439Y-76754834D01*
X77158305Y-76684577D01*
X77269602Y-76445449D01*
X77332109Y-76189203D01*
X77343425Y-75925686D01*
X77303114Y-75665024D01*
X77212724Y-75417236D01*
X77158305Y-75315423D01*
X76934439Y-75245166D01*
X76179605Y-76000000D01*
X75820395Y-76000000D01*
X75065561Y-75245166D01*
X74841695Y-75315423D01*
X74730398Y-75554551D01*
X74667891Y-75810797D01*
X74656575Y-76074314D01*
X70309000Y-76074314D01*
X70309000Y-75871075D01*
X70258696Y-75618179D01*
X70160021Y-75379956D01*
X70016767Y-75165561D01*
X69916767Y-75065561D01*
X75245166Y-75065561D01*
X76000000Y-75820395D01*
X76754834Y-75065561D01*
X76684577Y-74841695D01*
X76445449Y-74730398D01*
X76189203Y-74667891D01*
X75925686Y-74656575D01*
X75665024Y-74696886D01*
X75417236Y-74787276D01*
X75315423Y-74841695D01*
X75245166Y-75065561D01*
X69916767Y-75065561D01*
X69834439Y-74983233D01*
X69620044Y-74839979D01*
X69381821Y-74741304D01*
X69128925Y-74691000D01*
X68871075Y-74691000D01*
X68618179Y-74741304D01*
X68379956Y-74839979D01*
X68165561Y-74983233D01*
X67983233Y-75165561D01*
X67839979Y-75379956D01*
X67741304Y-75618179D01*
X67691000Y-75871075D01*
X65127000Y-75871075D01*
X65127000Y-71961587D01*
X75718018Y-71961587D01*
X75792881Y-72189330D01*
X76038495Y-72304430D01*
X76301845Y-72369400D01*
X76572809Y-72381745D01*
X76840975Y-72340991D01*
X77096038Y-72248703D01*
X77207119Y-72189330D01*
X77281982Y-71961587D01*
X76500000Y-71179605D01*
X75718018Y-71961587D01*
X65127000Y-71961587D01*
X65127000Y-67877181D01*
X70753000Y-67877181D01*
X70753000Y-68122819D01*
X70800921Y-68363737D01*
X70894923Y-68590676D01*
X71031392Y-68794916D01*
X71186476Y-68950000D01*
X71031392Y-69105084D01*
X70894923Y-69309324D01*
X70800921Y-69536263D01*
X70753000Y-69777181D01*
X70753000Y-70022819D01*
X70800921Y-70263737D01*
X70894923Y-70490676D01*
X71031392Y-70694916D01*
X71205084Y-70868608D01*
X71409324Y-71005077D01*
X71636263Y-71099079D01*
X71877181Y-71147000D01*
X72122819Y-71147000D01*
X72363737Y-71099079D01*
X72427157Y-71072809D01*
X75118255Y-71072809D01*
X75159009Y-71340975D01*
X75251297Y-71596038D01*
X75310670Y-71707119D01*
X75538413Y-71781982D01*
X76320395Y-71000000D01*
X75538413Y-70218018D01*
X75310670Y-70292881D01*
X75195570Y-70538495D01*
X75130600Y-70801845D01*
X75118255Y-71072809D01*
X72427157Y-71072809D01*
X72590676Y-71005077D01*
X72794916Y-70868608D01*
X72968608Y-70694916D01*
X73105077Y-70490676D01*
X73199079Y-70263737D01*
X73243898Y-70038413D01*
X75718018Y-70038413D01*
X76500000Y-70820395D01*
X77281982Y-70038413D01*
X77207119Y-69810670D01*
X76961505Y-69695570D01*
X76698155Y-69630600D01*
X76427191Y-69618255D01*
X76159025Y-69659009D01*
X75903962Y-69751297D01*
X75792881Y-69810670D01*
X75718018Y-70038413D01*
X73243898Y-70038413D01*
X73247000Y-70022819D01*
X73247000Y-69777181D01*
X73199079Y-69536263D01*
X73105077Y-69309324D01*
X72968608Y-69105084D01*
X72813524Y-68950000D01*
X72968608Y-68794916D01*
X73105077Y-68590676D01*
X73199079Y-68363737D01*
X73247000Y-68122819D01*
X73247000Y-67877181D01*
X73199079Y-67636263D01*
X73105077Y-67409324D01*
X72968608Y-67205084D01*
X72794916Y-67031392D01*
X72590676Y-66894923D01*
X72363737Y-66800921D01*
X72122819Y-66753000D01*
X71877181Y-66753000D01*
X71636263Y-66800921D01*
X71409324Y-66894923D01*
X71205084Y-67031392D01*
X71031392Y-67205084D01*
X70894923Y-67409324D01*
X70800921Y-67636263D01*
X70753000Y-67877181D01*
X65127000Y-67877181D01*
X65127000Y-57052606D01*
X67052606Y-55127000D01*
X93947394Y-55127000D01*
X95873000Y-57052606D01*
%TA.AperFunction,Conductor*%
D26*
G36*
X95873000Y-57052606D02*
G01*
X95873000Y-60812319D01*
X90856705Y-55796024D01*
X90823922Y-55756078D01*
X90664496Y-55625240D01*
X90482608Y-55528019D01*
X90285248Y-55468150D01*
X90131426Y-55453000D01*
X90131416Y-55453000D01*
X90080000Y-55447936D01*
X90028584Y-55453000D01*
X75451418Y-55453000D01*
X75400000Y-55447936D01*
X75348581Y-55453000D01*
X75348574Y-55453000D01*
X75194752Y-55468150D01*
X74997392Y-55528019D01*
X74815504Y-55625240D01*
X74656078Y-55756078D01*
X74623295Y-55796024D01*
X73246028Y-57173291D01*
X73246022Y-57173296D01*
X73246014Y-57173304D01*
X73206079Y-57206078D01*
X73173305Y-57246013D01*
X71296019Y-59123300D01*
X71256079Y-59156078D01*
X71223301Y-59196018D01*
X71223296Y-59196023D01*
X71125240Y-59315505D01*
X71028019Y-59497393D01*
X71005560Y-59571432D01*
X70968151Y-59694752D01*
X70964314Y-59733709D01*
X70947936Y-59900000D01*
X70953001Y-59951426D01*
X70953000Y-61628905D01*
X70894923Y-61715824D01*
X70800921Y-61942763D01*
X70753000Y-62183681D01*
X70753000Y-62429319D01*
X70800921Y-62670237D01*
X70894923Y-62897176D01*
X71031392Y-63101416D01*
X71186476Y-63256500D01*
X71031392Y-63411584D01*
X70894923Y-63615824D01*
X70800921Y-63842763D01*
X70753000Y-64083681D01*
X70753000Y-64329319D01*
X70800921Y-64570237D01*
X70894923Y-64797176D01*
X71031392Y-65001416D01*
X71205084Y-65175108D01*
X71409324Y-65311577D01*
X71636263Y-65405579D01*
X71877181Y-65453500D01*
X72122819Y-65453500D01*
X72363737Y-65405579D01*
X72590676Y-65311577D01*
X72794916Y-65175108D01*
X72968608Y-65001416D01*
X73105077Y-64797176D01*
X73199079Y-64570237D01*
X73247000Y-64329319D01*
X73247000Y-64083681D01*
X73199079Y-63842763D01*
X73105077Y-63615824D01*
X72968608Y-63411584D01*
X72813524Y-63256500D01*
X72968608Y-63101416D01*
X73105077Y-62897176D01*
X73181159Y-62713500D01*
X75115084Y-62713500D01*
X75166500Y-62718564D01*
X75217916Y-62713500D01*
X75832409Y-62713500D01*
X76051956Y-62860196D01*
X76236169Y-62936500D01*
X76051956Y-63012804D01*
X75831337Y-63160216D01*
X75643716Y-63347837D01*
X75496304Y-63568456D01*
X75394764Y-63813594D01*
X75343000Y-64073832D01*
X75343000Y-64339168D01*
X75394764Y-64599406D01*
X75496304Y-64844544D01*
X75643716Y-65065163D01*
X75831337Y-65252784D01*
X76051956Y-65400196D01*
X76236169Y-65476500D01*
X76051956Y-65552804D01*
X75831337Y-65700216D01*
X75643716Y-65887837D01*
X75496304Y-66108456D01*
X75394764Y-66353594D01*
X75343000Y-66613832D01*
X75343000Y-66879168D01*
X75394764Y-67139406D01*
X75496304Y-67384544D01*
X75643716Y-67605163D01*
X75831337Y-67792784D01*
X76051956Y-67940196D01*
X76297094Y-68041736D01*
X76557332Y-68093500D01*
X76822668Y-68093500D01*
X76895404Y-68079032D01*
X78203001Y-69386629D01*
X78203001Y-69912514D01*
X78141337Y-69953716D01*
X77953716Y-70141337D01*
X77806304Y-70361956D01*
X77767447Y-70455765D01*
X77748703Y-70403962D01*
X77689330Y-70292881D01*
X77461587Y-70218018D01*
X76679605Y-71000000D01*
X77461587Y-71781982D01*
X77689330Y-71707119D01*
X77766609Y-71542212D01*
X77806304Y-71638044D01*
X77953716Y-71858663D01*
X78141337Y-72046284D01*
X78203001Y-72087486D01*
X78203000Y-76960852D01*
X78199144Y-77000000D01*
X78203000Y-77039148D01*
X78203000Y-77039150D01*
X78214532Y-77156238D01*
X78260106Y-77306473D01*
X78260107Y-77306474D01*
X78334113Y-77444932D01*
X78379306Y-77500000D01*
X78433709Y-77566291D01*
X78464123Y-77591251D01*
X80908754Y-80035883D01*
X80933709Y-80066291D01*
X80964117Y-80091246D01*
X80964119Y-80091248D01*
X81055067Y-80165887D01*
X81129074Y-80205444D01*
X81193526Y-80239894D01*
X81343761Y-80285468D01*
X81460849Y-80297000D01*
X81460851Y-80297000D01*
X81500000Y-80300856D01*
X81539148Y-80297000D01*
X93523394Y-80297000D01*
X93447394Y-80373000D01*
X67552606Y-80373000D01*
X65127000Y-77947394D01*
X65127000Y-75871075D01*
X67691000Y-75871075D01*
X67691000Y-76128925D01*
X67741304Y-76381821D01*
X67839979Y-76620044D01*
X67983233Y-76834439D01*
X68165561Y-77016767D01*
X68379956Y-77160021D01*
X68618179Y-77258696D01*
X68871075Y-77309000D01*
X69128925Y-77309000D01*
X69381821Y-77258696D01*
X69620044Y-77160021D01*
X69834439Y-77016767D01*
X69916767Y-76934439D01*
X75245166Y-76934439D01*
X75315423Y-77158305D01*
X75554551Y-77269602D01*
X75810797Y-77332109D01*
X76074314Y-77343425D01*
X76334976Y-77303114D01*
X76582764Y-77212724D01*
X76684577Y-77158305D01*
X76754834Y-76934439D01*
X76000000Y-76179605D01*
X75245166Y-76934439D01*
X69916767Y-76934439D01*
X70016767Y-76834439D01*
X70160021Y-76620044D01*
X70258696Y-76381821D01*
X70309000Y-76128925D01*
X70309000Y-76074314D01*
X74656575Y-76074314D01*
X74696886Y-76334976D01*
X74787276Y-76582764D01*
X74841695Y-76684577D01*
X75065561Y-76754834D01*
X75820395Y-76000000D01*
X76179605Y-76000000D01*
X76934439Y-76754834D01*
X77158305Y-76684577D01*
X77269602Y-76445449D01*
X77332109Y-76189203D01*
X77343425Y-75925686D01*
X77303114Y-75665024D01*
X77212724Y-75417236D01*
X77158305Y-75315423D01*
X76934439Y-75245166D01*
X76179605Y-76000000D01*
X75820395Y-76000000D01*
X75065561Y-75245166D01*
X74841695Y-75315423D01*
X74730398Y-75554551D01*
X74667891Y-75810797D01*
X74656575Y-76074314D01*
X70309000Y-76074314D01*
X70309000Y-75871075D01*
X70258696Y-75618179D01*
X70160021Y-75379956D01*
X70016767Y-75165561D01*
X69916767Y-75065561D01*
X75245166Y-75065561D01*
X76000000Y-75820395D01*
X76754834Y-75065561D01*
X76684577Y-74841695D01*
X76445449Y-74730398D01*
X76189203Y-74667891D01*
X75925686Y-74656575D01*
X75665024Y-74696886D01*
X75417236Y-74787276D01*
X75315423Y-74841695D01*
X75245166Y-75065561D01*
X69916767Y-75065561D01*
X69834439Y-74983233D01*
X69620044Y-74839979D01*
X69381821Y-74741304D01*
X69128925Y-74691000D01*
X68871075Y-74691000D01*
X68618179Y-74741304D01*
X68379956Y-74839979D01*
X68165561Y-74983233D01*
X67983233Y-75165561D01*
X67839979Y-75379956D01*
X67741304Y-75618179D01*
X67691000Y-75871075D01*
X65127000Y-75871075D01*
X65127000Y-71961587D01*
X75718018Y-71961587D01*
X75792881Y-72189330D01*
X76038495Y-72304430D01*
X76301845Y-72369400D01*
X76572809Y-72381745D01*
X76840975Y-72340991D01*
X77096038Y-72248703D01*
X77207119Y-72189330D01*
X77281982Y-71961587D01*
X76500000Y-71179605D01*
X75718018Y-71961587D01*
X65127000Y-71961587D01*
X65127000Y-67877181D01*
X70753000Y-67877181D01*
X70753000Y-68122819D01*
X70800921Y-68363737D01*
X70894923Y-68590676D01*
X71031392Y-68794916D01*
X71186476Y-68950000D01*
X71031392Y-69105084D01*
X70894923Y-69309324D01*
X70800921Y-69536263D01*
X70753000Y-69777181D01*
X70753000Y-70022819D01*
X70800921Y-70263737D01*
X70894923Y-70490676D01*
X71031392Y-70694916D01*
X71205084Y-70868608D01*
X71409324Y-71005077D01*
X71636263Y-71099079D01*
X71877181Y-71147000D01*
X72122819Y-71147000D01*
X72363737Y-71099079D01*
X72427157Y-71072809D01*
X75118255Y-71072809D01*
X75159009Y-71340975D01*
X75251297Y-71596038D01*
X75310670Y-71707119D01*
X75538413Y-71781982D01*
X76320395Y-71000000D01*
X75538413Y-70218018D01*
X75310670Y-70292881D01*
X75195570Y-70538495D01*
X75130600Y-70801845D01*
X75118255Y-71072809D01*
X72427157Y-71072809D01*
X72590676Y-71005077D01*
X72794916Y-70868608D01*
X72968608Y-70694916D01*
X73105077Y-70490676D01*
X73199079Y-70263737D01*
X73243898Y-70038413D01*
X75718018Y-70038413D01*
X76500000Y-70820395D01*
X77281982Y-70038413D01*
X77207119Y-69810670D01*
X76961505Y-69695570D01*
X76698155Y-69630600D01*
X76427191Y-69618255D01*
X76159025Y-69659009D01*
X75903962Y-69751297D01*
X75792881Y-69810670D01*
X75718018Y-70038413D01*
X73243898Y-70038413D01*
X73247000Y-70022819D01*
X73247000Y-69777181D01*
X73199079Y-69536263D01*
X73105077Y-69309324D01*
X72968608Y-69105084D01*
X72813524Y-68950000D01*
X72968608Y-68794916D01*
X73105077Y-68590676D01*
X73199079Y-68363737D01*
X73247000Y-68122819D01*
X73247000Y-67877181D01*
X73199079Y-67636263D01*
X73105077Y-67409324D01*
X72968608Y-67205084D01*
X72794916Y-67031392D01*
X72590676Y-66894923D01*
X72363737Y-66800921D01*
X72122819Y-66753000D01*
X71877181Y-66753000D01*
X71636263Y-66800921D01*
X71409324Y-66894923D01*
X71205084Y-67031392D01*
X71031392Y-67205084D01*
X70894923Y-67409324D01*
X70800921Y-67636263D01*
X70753000Y-67877181D01*
X65127000Y-67877181D01*
X65127000Y-57052606D01*
X67052606Y-55127000D01*
X93947394Y-55127000D01*
X95873000Y-57052606D01*
G37*
%TD.AperFunction*%
D25*
X95873000Y-63773681D02*
X95873000Y-77947394D01*
X95817404Y-78002990D01*
X83630118Y-78002990D01*
X82797000Y-77169872D01*
X82797000Y-76934439D01*
X84245166Y-76934439D01*
X84315423Y-77158305D01*
X84554551Y-77269602D01*
X84810797Y-77332109D01*
X85074314Y-77343425D01*
X85334976Y-77303114D01*
X85582764Y-77212724D01*
X85684577Y-77158305D01*
X85754834Y-76934439D01*
X85000000Y-76179605D01*
X84245166Y-76934439D01*
X82797000Y-76934439D01*
X82797000Y-76074314D01*
X83656575Y-76074314D01*
X83696886Y-76334976D01*
X83787276Y-76582764D01*
X83841695Y-76684577D01*
X84065561Y-76754834D01*
X84820395Y-76000000D01*
X85179605Y-76000000D01*
X85934439Y-76754834D01*
X86158305Y-76684577D01*
X86269602Y-76445449D01*
X86332109Y-76189203D01*
X86343425Y-75925686D01*
X86334980Y-75871075D01*
X90691000Y-75871075D01*
X90691000Y-76128925D01*
X90741304Y-76381821D01*
X90839979Y-76620044D01*
X90983233Y-76834439D01*
X91165561Y-77016767D01*
X91379956Y-77160021D01*
X91618179Y-77258696D01*
X91871075Y-77309000D01*
X92128925Y-77309000D01*
X92381821Y-77258696D01*
X92620044Y-77160021D01*
X92834439Y-77016767D01*
X93016767Y-76834439D01*
X93160021Y-76620044D01*
X93258696Y-76381821D01*
X93309000Y-76128925D01*
X93309000Y-75871075D01*
X93258696Y-75618179D01*
X93160021Y-75379956D01*
X93016767Y-75165561D01*
X92834439Y-74983233D01*
X92620044Y-74839979D01*
X92381821Y-74741304D01*
X92128925Y-74691000D01*
X91871075Y-74691000D01*
X91618179Y-74741304D01*
X91379956Y-74839979D01*
X91165561Y-74983233D01*
X90983233Y-75165561D01*
X90839979Y-75379956D01*
X90741304Y-75618179D01*
X90691000Y-75871075D01*
X86334980Y-75871075D01*
X86303114Y-75665024D01*
X86212724Y-75417236D01*
X86158305Y-75315423D01*
X85934439Y-75245166D01*
X85179605Y-76000000D01*
X84820395Y-76000000D01*
X84065561Y-75245166D01*
X83841695Y-75315423D01*
X83730398Y-75554551D01*
X83667891Y-75810797D01*
X83656575Y-76074314D01*
X82797000Y-76074314D01*
X82797000Y-75065561D01*
X84245166Y-75065561D01*
X85000000Y-75820395D01*
X85754834Y-75065561D01*
X85684577Y-74841695D01*
X85445449Y-74730398D01*
X85189203Y-74667891D01*
X84925686Y-74656575D01*
X84665024Y-74696886D01*
X84417236Y-74787276D01*
X84315423Y-74841695D01*
X84245166Y-75065561D01*
X82797000Y-75065561D01*
X82797000Y-72087486D01*
X82858663Y-72046284D01*
X82943360Y-71961587D01*
X83718018Y-71961587D01*
X83792881Y-72189330D01*
X84038495Y-72304430D01*
X84301845Y-72369400D01*
X84572809Y-72381745D01*
X84840975Y-72340991D01*
X85096038Y-72248703D01*
X85207119Y-72189330D01*
X85281982Y-71961587D01*
X84500000Y-71179605D01*
X83718018Y-71961587D01*
X82943360Y-71961587D01*
X83046284Y-71858663D01*
X83193696Y-71638044D01*
X83232553Y-71544235D01*
X83251297Y-71596038D01*
X83310670Y-71707119D01*
X83538413Y-71781982D01*
X84320395Y-71000000D01*
X84679605Y-71000000D01*
X85461587Y-71781982D01*
X85689330Y-71707119D01*
X85804430Y-71461505D01*
X85869400Y-71198155D01*
X85881745Y-70927191D01*
X85840991Y-70659025D01*
X85748703Y-70403962D01*
X85689330Y-70292881D01*
X85461587Y-70218018D01*
X84679605Y-71000000D01*
X84320395Y-71000000D01*
X83538413Y-70218018D01*
X83310670Y-70292881D01*
X83233391Y-70457788D01*
X83193696Y-70361956D01*
X83046284Y-70141337D01*
X82943360Y-70038413D01*
X83718018Y-70038413D01*
X84500000Y-70820395D01*
X85281982Y-70038413D01*
X85207119Y-69810670D01*
X84961505Y-69695570D01*
X84698155Y-69630600D01*
X84427191Y-69618255D01*
X84159025Y-69659009D01*
X83903962Y-69751297D01*
X83792881Y-69810670D01*
X83718018Y-70038413D01*
X82943360Y-70038413D01*
X82858663Y-69953716D01*
X82797000Y-69912514D01*
X82797000Y-65946500D01*
X82960354Y-65946500D01*
X82960354Y-67546500D01*
X82970915Y-67653731D01*
X83002193Y-67756840D01*
X83052986Y-67851867D01*
X83121342Y-67935158D01*
X83204633Y-68003514D01*
X83299660Y-68054307D01*
X83402769Y-68085585D01*
X83510000Y-68096146D01*
X85110000Y-68096146D01*
X85217231Y-68085585D01*
X85320340Y-68054307D01*
X85415367Y-68003514D01*
X85498658Y-67935158D01*
X85546239Y-67877181D01*
X87753000Y-67877181D01*
X87753000Y-68122819D01*
X87800921Y-68363737D01*
X87894923Y-68590676D01*
X88031392Y-68794916D01*
X88186476Y-68950000D01*
X88031392Y-69105084D01*
X87894923Y-69309324D01*
X87800921Y-69536263D01*
X87753000Y-69777181D01*
X87753000Y-70022819D01*
X87800921Y-70263737D01*
X87894923Y-70490676D01*
X88031392Y-70694916D01*
X88205084Y-70868608D01*
X88409324Y-71005077D01*
X88636263Y-71099079D01*
X88877181Y-71147000D01*
X89122819Y-71147000D01*
X89363737Y-71099079D01*
X89590676Y-71005077D01*
X89794916Y-70868608D01*
X89968608Y-70694916D01*
X90105077Y-70490676D01*
X90199079Y-70263737D01*
X90247000Y-70022819D01*
X90247000Y-69777181D01*
X90199079Y-69536263D01*
X90105077Y-69309324D01*
X89968608Y-69105084D01*
X89813524Y-68950000D01*
X89968608Y-68794916D01*
X90105077Y-68590676D01*
X90199079Y-68363737D01*
X90247000Y-68122819D01*
X90247000Y-67877181D01*
X90199079Y-67636263D01*
X90105077Y-67409324D01*
X89968608Y-67205084D01*
X89794916Y-67031392D01*
X89590676Y-66894923D01*
X89363737Y-66800921D01*
X89122819Y-66753000D01*
X88877181Y-66753000D01*
X88636263Y-66800921D01*
X88409324Y-66894923D01*
X88205084Y-67031392D01*
X88031392Y-67205084D01*
X87894923Y-67409324D01*
X87800921Y-67636263D01*
X87753000Y-67877181D01*
X85546239Y-67877181D01*
X85567014Y-67851867D01*
X85617807Y-67756840D01*
X85649085Y-67653731D01*
X85659646Y-67546500D01*
X85659646Y-65946500D01*
X85649085Y-65839269D01*
X85617807Y-65736160D01*
X85567014Y-65641133D01*
X85498658Y-65557842D01*
X85415367Y-65489486D01*
X85320340Y-65438693D01*
X85217231Y-65407415D01*
X85110000Y-65396854D01*
X84953046Y-65396854D01*
X85168663Y-65252784D01*
X85356284Y-65065163D01*
X85503696Y-64844544D01*
X85605236Y-64599406D01*
X85657000Y-64339168D01*
X85657000Y-64073832D01*
X85605236Y-63813594D01*
X85503696Y-63568456D01*
X85356284Y-63347837D01*
X85168663Y-63160216D01*
X84948044Y-63012804D01*
X84793601Y-62948831D01*
X84903724Y-62908931D01*
X85134702Y-62769228D01*
X85333987Y-62587148D01*
X85493921Y-62369688D01*
X85580985Y-62183681D01*
X87753000Y-62183681D01*
X87753000Y-62429319D01*
X87800921Y-62670237D01*
X87894923Y-62897176D01*
X88031392Y-63101416D01*
X88186476Y-63256500D01*
X88031392Y-63411584D01*
X87894923Y-63615824D01*
X87800921Y-63842763D01*
X87753000Y-64083681D01*
X87753000Y-64329319D01*
X87800921Y-64570237D01*
X87894923Y-64797176D01*
X88031392Y-65001416D01*
X88205084Y-65175108D01*
X88409324Y-65311577D01*
X88636263Y-65405579D01*
X88877181Y-65453500D01*
X89122819Y-65453500D01*
X89363737Y-65405579D01*
X89590676Y-65311577D01*
X89794916Y-65175108D01*
X89968608Y-65001416D01*
X90105077Y-64797176D01*
X90199079Y-64570237D01*
X90247000Y-64329319D01*
X90247000Y-64083681D01*
X90199079Y-63842763D01*
X90105077Y-63615824D01*
X89968608Y-63411584D01*
X89813524Y-63256500D01*
X89968608Y-63101416D01*
X90105077Y-62897176D01*
X90199079Y-62670237D01*
X90247000Y-62429319D01*
X90247000Y-62183681D01*
X90199079Y-61942763D01*
X90105077Y-61715824D01*
X89968608Y-61511584D01*
X89794916Y-61337892D01*
X89590676Y-61201423D01*
X89363737Y-61107421D01*
X89122819Y-61059500D01*
X88877181Y-61059500D01*
X88636263Y-61107421D01*
X88409324Y-61201423D01*
X88205084Y-61337892D01*
X88031392Y-61511584D01*
X87894923Y-61715824D01*
X87800921Y-61942763D01*
X87753000Y-62183681D01*
X85580985Y-62183681D01*
X85608357Y-62125205D01*
X85644383Y-62006429D01*
X85536191Y-61793500D01*
X84437000Y-61793500D01*
X84437000Y-61813500D01*
X84183000Y-61813500D01*
X84183000Y-61793500D01*
X83083809Y-61793500D01*
X82975617Y-62006429D01*
X83011643Y-62125205D01*
X83126079Y-62369688D01*
X83286013Y-62587148D01*
X83485298Y-62769228D01*
X83716276Y-62908931D01*
X83826399Y-62948831D01*
X83671956Y-63012804D01*
X83451337Y-63160216D01*
X83263716Y-63347837D01*
X83116304Y-63568456D01*
X83014764Y-63813594D01*
X82963000Y-64073832D01*
X82963000Y-64339168D01*
X83014764Y-64599406D01*
X83116304Y-64844544D01*
X83263716Y-65065163D01*
X83451337Y-65252784D01*
X83666954Y-65396854D01*
X83510000Y-65396854D01*
X83402769Y-65407415D01*
X83299660Y-65438693D01*
X83204633Y-65489486D01*
X83121342Y-65557842D01*
X83052986Y-65641133D01*
X83002193Y-65736160D01*
X82970915Y-65839269D01*
X82960354Y-65946500D01*
X82797000Y-65946500D01*
X82797000Y-60630128D01*
X83352841Y-60074288D01*
X83451337Y-60172784D01*
X83671956Y-60320196D01*
X83826399Y-60384169D01*
X83716276Y-60424069D01*
X83485298Y-60563772D01*
X83286013Y-60745852D01*
X83126079Y-60963312D01*
X83011643Y-61207795D01*
X82975617Y-61326571D01*
X83083809Y-61539500D01*
X84183000Y-61539500D01*
X84183000Y-61519500D01*
X84437000Y-61519500D01*
X84437000Y-61539500D01*
X85536191Y-61539500D01*
X85644383Y-61326571D01*
X85608357Y-61207795D01*
X85493921Y-60963312D01*
X85333987Y-60745852D01*
X85134702Y-60563772D01*
X84903724Y-60424069D01*
X84793601Y-60384169D01*
X84948044Y-60320196D01*
X85168663Y-60172784D01*
X85356284Y-59985163D01*
X85503696Y-59764544D01*
X85605236Y-59519406D01*
X85657000Y-59259168D01*
X85657000Y-58993832D01*
X85605236Y-58733594D01*
X85503696Y-58488456D01*
X85356284Y-58267837D01*
X85168663Y-58080216D01*
X84948044Y-57932804D01*
X84702906Y-57831264D01*
X84442668Y-57779500D01*
X84177332Y-57779500D01*
X83917094Y-57831264D01*
X83671956Y-57932804D01*
X83451337Y-58080216D01*
X83263716Y-58267837D01*
X83222514Y-58329500D01*
X83212649Y-58329500D01*
X83173500Y-58325644D01*
X83134351Y-58329500D01*
X83134349Y-58329500D01*
X83017261Y-58341032D01*
X82867026Y-58386606D01*
X82728568Y-58460613D01*
X82607209Y-58560209D01*
X82582249Y-58590623D01*
X81464118Y-59708754D01*
X81433710Y-59733709D01*
X81408755Y-59764117D01*
X81408752Y-59764120D01*
X81334113Y-59855068D01*
X81264577Y-59985163D01*
X81260107Y-59993526D01*
X81226217Y-60105247D01*
X81214533Y-60143762D01*
X81199144Y-60300000D01*
X81203001Y-60339158D01*
X81203000Y-69912514D01*
X81141337Y-69953716D01*
X80953716Y-70141337D01*
X80806304Y-70361956D01*
X80704764Y-70607094D01*
X80653000Y-70867332D01*
X80653000Y-71132668D01*
X80704764Y-71392906D01*
X80806304Y-71638044D01*
X80953716Y-71858663D01*
X81141337Y-72046284D01*
X81203001Y-72087486D01*
X81203000Y-77460852D01*
X81199144Y-77500000D01*
X81203000Y-77539148D01*
X81203000Y-77539150D01*
X81214532Y-77656238D01*
X81260106Y-77806473D01*
X81260107Y-77806474D01*
X81334113Y-77944932D01*
X81381760Y-78002990D01*
X81433709Y-78066291D01*
X81464123Y-78091251D01*
X82075872Y-78703000D01*
X81830129Y-78703000D01*
X79797000Y-76669872D01*
X79797000Y-72087486D01*
X79858663Y-72046284D01*
X80046284Y-71858663D01*
X80193696Y-71638044D01*
X80295236Y-71392906D01*
X80347000Y-71132668D01*
X80347000Y-70867332D01*
X80295236Y-70607094D01*
X80193696Y-70361956D01*
X80046284Y-70141337D01*
X79858663Y-69953716D01*
X79797000Y-69912514D01*
X79797000Y-69095648D01*
X79800856Y-69056499D01*
X79792199Y-68968608D01*
X79785468Y-68900261D01*
X79739894Y-68750026D01*
X79688033Y-68653000D01*
X79665887Y-68611567D01*
X79624300Y-68560893D01*
X79566291Y-68490209D01*
X79535877Y-68465249D01*
X78022532Y-66951904D01*
X78037000Y-66879168D01*
X78037000Y-66613832D01*
X77985236Y-66353594D01*
X77883696Y-66108456D01*
X77736284Y-65887837D01*
X77548663Y-65700216D01*
X77328044Y-65552804D01*
X77143831Y-65476500D01*
X77328044Y-65400196D01*
X77548663Y-65252784D01*
X77736284Y-65065163D01*
X77883696Y-64844544D01*
X77985236Y-64599406D01*
X78037000Y-64339168D01*
X78037000Y-64073832D01*
X77985236Y-63813594D01*
X77883696Y-63568456D01*
X77736284Y-63347837D01*
X77548663Y-63160216D01*
X77328044Y-63012804D01*
X77143831Y-62936500D01*
X77328044Y-62860196D01*
X77548663Y-62712784D01*
X77736284Y-62525163D01*
X77883696Y-62304544D01*
X77985236Y-62059406D01*
X78037000Y-61799168D01*
X78037000Y-61533832D01*
X77985236Y-61273594D01*
X77883696Y-61028456D01*
X77736284Y-60807837D01*
X77548663Y-60620216D01*
X77328044Y-60472804D01*
X77173601Y-60408831D01*
X77283724Y-60368931D01*
X77514702Y-60229228D01*
X77713987Y-60047148D01*
X77873921Y-59829688D01*
X77988357Y-59585205D01*
X78024383Y-59466429D01*
X77916191Y-59253500D01*
X76817000Y-59253500D01*
X76817000Y-59273500D01*
X76563000Y-59273500D01*
X76563000Y-59253500D01*
X75463809Y-59253500D01*
X75355617Y-59466429D01*
X75391643Y-59585205D01*
X75506079Y-59829688D01*
X75666013Y-60047148D01*
X75865298Y-60229228D01*
X76096276Y-60368931D01*
X76206399Y-60408831D01*
X76051956Y-60472804D01*
X75832409Y-60619500D01*
X75600181Y-60619500D01*
X74997000Y-60016319D01*
X74997000Y-58786571D01*
X75355617Y-58786571D01*
X75463809Y-58999500D01*
X76563000Y-58999500D01*
X76563000Y-57899614D01*
X76817000Y-57899614D01*
X76817000Y-58999500D01*
X77916191Y-58999500D01*
X78024383Y-58786571D01*
X77988357Y-58667795D01*
X77873921Y-58423312D01*
X77713987Y-58205852D01*
X77514702Y-58023772D01*
X77283724Y-57884069D01*
X77029929Y-57792112D01*
X76817000Y-57899614D01*
X76563000Y-57899614D01*
X76350071Y-57792112D01*
X76096276Y-57884069D01*
X75865298Y-58023772D01*
X75666013Y-58205852D01*
X75506079Y-58423312D01*
X75391643Y-58667795D01*
X75355617Y-58786571D01*
X74997000Y-58786571D01*
X74997000Y-58383681D01*
X75833681Y-57547000D01*
X89646319Y-57547000D01*
X95873000Y-63773681D01*
%TA.AperFunction,Conductor*%
D26*
G36*
X95873000Y-63773681D02*
G01*
X95873000Y-77947394D01*
X95817404Y-78002990D01*
X83630118Y-78002990D01*
X82797000Y-77169872D01*
X82797000Y-76934439D01*
X84245166Y-76934439D01*
X84315423Y-77158305D01*
X84554551Y-77269602D01*
X84810797Y-77332109D01*
X85074314Y-77343425D01*
X85334976Y-77303114D01*
X85582764Y-77212724D01*
X85684577Y-77158305D01*
X85754834Y-76934439D01*
X85000000Y-76179605D01*
X84245166Y-76934439D01*
X82797000Y-76934439D01*
X82797000Y-76074314D01*
X83656575Y-76074314D01*
X83696886Y-76334976D01*
X83787276Y-76582764D01*
X83841695Y-76684577D01*
X84065561Y-76754834D01*
X84820395Y-76000000D01*
X85179605Y-76000000D01*
X85934439Y-76754834D01*
X86158305Y-76684577D01*
X86269602Y-76445449D01*
X86332109Y-76189203D01*
X86343425Y-75925686D01*
X86334980Y-75871075D01*
X90691000Y-75871075D01*
X90691000Y-76128925D01*
X90741304Y-76381821D01*
X90839979Y-76620044D01*
X90983233Y-76834439D01*
X91165561Y-77016767D01*
X91379956Y-77160021D01*
X91618179Y-77258696D01*
X91871075Y-77309000D01*
X92128925Y-77309000D01*
X92381821Y-77258696D01*
X92620044Y-77160021D01*
X92834439Y-77016767D01*
X93016767Y-76834439D01*
X93160021Y-76620044D01*
X93258696Y-76381821D01*
X93309000Y-76128925D01*
X93309000Y-75871075D01*
X93258696Y-75618179D01*
X93160021Y-75379956D01*
X93016767Y-75165561D01*
X92834439Y-74983233D01*
X92620044Y-74839979D01*
X92381821Y-74741304D01*
X92128925Y-74691000D01*
X91871075Y-74691000D01*
X91618179Y-74741304D01*
X91379956Y-74839979D01*
X91165561Y-74983233D01*
X90983233Y-75165561D01*
X90839979Y-75379956D01*
X90741304Y-75618179D01*
X90691000Y-75871075D01*
X86334980Y-75871075D01*
X86303114Y-75665024D01*
X86212724Y-75417236D01*
X86158305Y-75315423D01*
X85934439Y-75245166D01*
X85179605Y-76000000D01*
X84820395Y-76000000D01*
X84065561Y-75245166D01*
X83841695Y-75315423D01*
X83730398Y-75554551D01*
X83667891Y-75810797D01*
X83656575Y-76074314D01*
X82797000Y-76074314D01*
X82797000Y-75065561D01*
X84245166Y-75065561D01*
X85000000Y-75820395D01*
X85754834Y-75065561D01*
X85684577Y-74841695D01*
X85445449Y-74730398D01*
X85189203Y-74667891D01*
X84925686Y-74656575D01*
X84665024Y-74696886D01*
X84417236Y-74787276D01*
X84315423Y-74841695D01*
X84245166Y-75065561D01*
X82797000Y-75065561D01*
X82797000Y-72087486D01*
X82858663Y-72046284D01*
X82943360Y-71961587D01*
X83718018Y-71961587D01*
X83792881Y-72189330D01*
X84038495Y-72304430D01*
X84301845Y-72369400D01*
X84572809Y-72381745D01*
X84840975Y-72340991D01*
X85096038Y-72248703D01*
X85207119Y-72189330D01*
X85281982Y-71961587D01*
X84500000Y-71179605D01*
X83718018Y-71961587D01*
X82943360Y-71961587D01*
X83046284Y-71858663D01*
X83193696Y-71638044D01*
X83232553Y-71544235D01*
X83251297Y-71596038D01*
X83310670Y-71707119D01*
X83538413Y-71781982D01*
X84320395Y-71000000D01*
X84679605Y-71000000D01*
X85461587Y-71781982D01*
X85689330Y-71707119D01*
X85804430Y-71461505D01*
X85869400Y-71198155D01*
X85881745Y-70927191D01*
X85840991Y-70659025D01*
X85748703Y-70403962D01*
X85689330Y-70292881D01*
X85461587Y-70218018D01*
X84679605Y-71000000D01*
X84320395Y-71000000D01*
X83538413Y-70218018D01*
X83310670Y-70292881D01*
X83233391Y-70457788D01*
X83193696Y-70361956D01*
X83046284Y-70141337D01*
X82943360Y-70038413D01*
X83718018Y-70038413D01*
X84500000Y-70820395D01*
X85281982Y-70038413D01*
X85207119Y-69810670D01*
X84961505Y-69695570D01*
X84698155Y-69630600D01*
X84427191Y-69618255D01*
X84159025Y-69659009D01*
X83903962Y-69751297D01*
X83792881Y-69810670D01*
X83718018Y-70038413D01*
X82943360Y-70038413D01*
X82858663Y-69953716D01*
X82797000Y-69912514D01*
X82797000Y-65946500D01*
X82960354Y-65946500D01*
X82960354Y-67546500D01*
X82970915Y-67653731D01*
X83002193Y-67756840D01*
X83052986Y-67851867D01*
X83121342Y-67935158D01*
X83204633Y-68003514D01*
X83299660Y-68054307D01*
X83402769Y-68085585D01*
X83510000Y-68096146D01*
X85110000Y-68096146D01*
X85217231Y-68085585D01*
X85320340Y-68054307D01*
X85415367Y-68003514D01*
X85498658Y-67935158D01*
X85546239Y-67877181D01*
X87753000Y-67877181D01*
X87753000Y-68122819D01*
X87800921Y-68363737D01*
X87894923Y-68590676D01*
X88031392Y-68794916D01*
X88186476Y-68950000D01*
X88031392Y-69105084D01*
X87894923Y-69309324D01*
X87800921Y-69536263D01*
X87753000Y-69777181D01*
X87753000Y-70022819D01*
X87800921Y-70263737D01*
X87894923Y-70490676D01*
X88031392Y-70694916D01*
X88205084Y-70868608D01*
X88409324Y-71005077D01*
X88636263Y-71099079D01*
X88877181Y-71147000D01*
X89122819Y-71147000D01*
X89363737Y-71099079D01*
X89590676Y-71005077D01*
X89794916Y-70868608D01*
X89968608Y-70694916D01*
X90105077Y-70490676D01*
X90199079Y-70263737D01*
X90247000Y-70022819D01*
X90247000Y-69777181D01*
X90199079Y-69536263D01*
X90105077Y-69309324D01*
X89968608Y-69105084D01*
X89813524Y-68950000D01*
X89968608Y-68794916D01*
X90105077Y-68590676D01*
X90199079Y-68363737D01*
X90247000Y-68122819D01*
X90247000Y-67877181D01*
X90199079Y-67636263D01*
X90105077Y-67409324D01*
X89968608Y-67205084D01*
X89794916Y-67031392D01*
X89590676Y-66894923D01*
X89363737Y-66800921D01*
X89122819Y-66753000D01*
X88877181Y-66753000D01*
X88636263Y-66800921D01*
X88409324Y-66894923D01*
X88205084Y-67031392D01*
X88031392Y-67205084D01*
X87894923Y-67409324D01*
X87800921Y-67636263D01*
X87753000Y-67877181D01*
X85546239Y-67877181D01*
X85567014Y-67851867D01*
X85617807Y-67756840D01*
X85649085Y-67653731D01*
X85659646Y-67546500D01*
X85659646Y-65946500D01*
X85649085Y-65839269D01*
X85617807Y-65736160D01*
X85567014Y-65641133D01*
X85498658Y-65557842D01*
X85415367Y-65489486D01*
X85320340Y-65438693D01*
X85217231Y-65407415D01*
X85110000Y-65396854D01*
X84953046Y-65396854D01*
X85168663Y-65252784D01*
X85356284Y-65065163D01*
X85503696Y-64844544D01*
X85605236Y-64599406D01*
X85657000Y-64339168D01*
X85657000Y-64073832D01*
X85605236Y-63813594D01*
X85503696Y-63568456D01*
X85356284Y-63347837D01*
X85168663Y-63160216D01*
X84948044Y-63012804D01*
X84793601Y-62948831D01*
X84903724Y-62908931D01*
X85134702Y-62769228D01*
X85333987Y-62587148D01*
X85493921Y-62369688D01*
X85580985Y-62183681D01*
X87753000Y-62183681D01*
X87753000Y-62429319D01*
X87800921Y-62670237D01*
X87894923Y-62897176D01*
X88031392Y-63101416D01*
X88186476Y-63256500D01*
X88031392Y-63411584D01*
X87894923Y-63615824D01*
X87800921Y-63842763D01*
X87753000Y-64083681D01*
X87753000Y-64329319D01*
X87800921Y-64570237D01*
X87894923Y-64797176D01*
X88031392Y-65001416D01*
X88205084Y-65175108D01*
X88409324Y-65311577D01*
X88636263Y-65405579D01*
X88877181Y-65453500D01*
X89122819Y-65453500D01*
X89363737Y-65405579D01*
X89590676Y-65311577D01*
X89794916Y-65175108D01*
X89968608Y-65001416D01*
X90105077Y-64797176D01*
X90199079Y-64570237D01*
X90247000Y-64329319D01*
X90247000Y-64083681D01*
X90199079Y-63842763D01*
X90105077Y-63615824D01*
X89968608Y-63411584D01*
X89813524Y-63256500D01*
X89968608Y-63101416D01*
X90105077Y-62897176D01*
X90199079Y-62670237D01*
X90247000Y-62429319D01*
X90247000Y-62183681D01*
X90199079Y-61942763D01*
X90105077Y-61715824D01*
X89968608Y-61511584D01*
X89794916Y-61337892D01*
X89590676Y-61201423D01*
X89363737Y-61107421D01*
X89122819Y-61059500D01*
X88877181Y-61059500D01*
X88636263Y-61107421D01*
X88409324Y-61201423D01*
X88205084Y-61337892D01*
X88031392Y-61511584D01*
X87894923Y-61715824D01*
X87800921Y-61942763D01*
X87753000Y-62183681D01*
X85580985Y-62183681D01*
X85608357Y-62125205D01*
X85644383Y-62006429D01*
X85536191Y-61793500D01*
X84437000Y-61793500D01*
X84437000Y-61813500D01*
X84183000Y-61813500D01*
X84183000Y-61793500D01*
X83083809Y-61793500D01*
X82975617Y-62006429D01*
X83011643Y-62125205D01*
X83126079Y-62369688D01*
X83286013Y-62587148D01*
X83485298Y-62769228D01*
X83716276Y-62908931D01*
X83826399Y-62948831D01*
X83671956Y-63012804D01*
X83451337Y-63160216D01*
X83263716Y-63347837D01*
X83116304Y-63568456D01*
X83014764Y-63813594D01*
X82963000Y-64073832D01*
X82963000Y-64339168D01*
X83014764Y-64599406D01*
X83116304Y-64844544D01*
X83263716Y-65065163D01*
X83451337Y-65252784D01*
X83666954Y-65396854D01*
X83510000Y-65396854D01*
X83402769Y-65407415D01*
X83299660Y-65438693D01*
X83204633Y-65489486D01*
X83121342Y-65557842D01*
X83052986Y-65641133D01*
X83002193Y-65736160D01*
X82970915Y-65839269D01*
X82960354Y-65946500D01*
X82797000Y-65946500D01*
X82797000Y-60630128D01*
X83352841Y-60074288D01*
X83451337Y-60172784D01*
X83671956Y-60320196D01*
X83826399Y-60384169D01*
X83716276Y-60424069D01*
X83485298Y-60563772D01*
X83286013Y-60745852D01*
X83126079Y-60963312D01*
X83011643Y-61207795D01*
X82975617Y-61326571D01*
X83083809Y-61539500D01*
X84183000Y-61539500D01*
X84183000Y-61519500D01*
X84437000Y-61519500D01*
X84437000Y-61539500D01*
X85536191Y-61539500D01*
X85644383Y-61326571D01*
X85608357Y-61207795D01*
X85493921Y-60963312D01*
X85333987Y-60745852D01*
X85134702Y-60563772D01*
X84903724Y-60424069D01*
X84793601Y-60384169D01*
X84948044Y-60320196D01*
X85168663Y-60172784D01*
X85356284Y-59985163D01*
X85503696Y-59764544D01*
X85605236Y-59519406D01*
X85657000Y-59259168D01*
X85657000Y-58993832D01*
X85605236Y-58733594D01*
X85503696Y-58488456D01*
X85356284Y-58267837D01*
X85168663Y-58080216D01*
X84948044Y-57932804D01*
X84702906Y-57831264D01*
X84442668Y-57779500D01*
X84177332Y-57779500D01*
X83917094Y-57831264D01*
X83671956Y-57932804D01*
X83451337Y-58080216D01*
X83263716Y-58267837D01*
X83222514Y-58329500D01*
X83212649Y-58329500D01*
X83173500Y-58325644D01*
X83134351Y-58329500D01*
X83134349Y-58329500D01*
X83017261Y-58341032D01*
X82867026Y-58386606D01*
X82728568Y-58460613D01*
X82607209Y-58560209D01*
X82582249Y-58590623D01*
X81464118Y-59708754D01*
X81433710Y-59733709D01*
X81408755Y-59764117D01*
X81408752Y-59764120D01*
X81334113Y-59855068D01*
X81264577Y-59985163D01*
X81260107Y-59993526D01*
X81226217Y-60105247D01*
X81214533Y-60143762D01*
X81199144Y-60300000D01*
X81203001Y-60339158D01*
X81203000Y-69912514D01*
X81141337Y-69953716D01*
X80953716Y-70141337D01*
X80806304Y-70361956D01*
X80704764Y-70607094D01*
X80653000Y-70867332D01*
X80653000Y-71132668D01*
X80704764Y-71392906D01*
X80806304Y-71638044D01*
X80953716Y-71858663D01*
X81141337Y-72046284D01*
X81203001Y-72087486D01*
X81203000Y-77460852D01*
X81199144Y-77500000D01*
X81203000Y-77539148D01*
X81203000Y-77539150D01*
X81214532Y-77656238D01*
X81260106Y-77806473D01*
X81260107Y-77806474D01*
X81334113Y-77944932D01*
X81381760Y-78002990D01*
X81433709Y-78066291D01*
X81464123Y-78091251D01*
X82075872Y-78703000D01*
X81830129Y-78703000D01*
X79797000Y-76669872D01*
X79797000Y-72087486D01*
X79858663Y-72046284D01*
X80046284Y-71858663D01*
X80193696Y-71638044D01*
X80295236Y-71392906D01*
X80347000Y-71132668D01*
X80347000Y-70867332D01*
X80295236Y-70607094D01*
X80193696Y-70361956D01*
X80046284Y-70141337D01*
X79858663Y-69953716D01*
X79797000Y-69912514D01*
X79797000Y-69095648D01*
X79800856Y-69056499D01*
X79792199Y-68968608D01*
X79785468Y-68900261D01*
X79739894Y-68750026D01*
X79688033Y-68653000D01*
X79665887Y-68611567D01*
X79624300Y-68560893D01*
X79566291Y-68490209D01*
X79535877Y-68465249D01*
X78022532Y-66951904D01*
X78037000Y-66879168D01*
X78037000Y-66613832D01*
X77985236Y-66353594D01*
X77883696Y-66108456D01*
X77736284Y-65887837D01*
X77548663Y-65700216D01*
X77328044Y-65552804D01*
X77143831Y-65476500D01*
X77328044Y-65400196D01*
X77548663Y-65252784D01*
X77736284Y-65065163D01*
X77883696Y-64844544D01*
X77985236Y-64599406D01*
X78037000Y-64339168D01*
X78037000Y-64073832D01*
X77985236Y-63813594D01*
X77883696Y-63568456D01*
X77736284Y-63347837D01*
X77548663Y-63160216D01*
X77328044Y-63012804D01*
X77143831Y-62936500D01*
X77328044Y-62860196D01*
X77548663Y-62712784D01*
X77736284Y-62525163D01*
X77883696Y-62304544D01*
X77985236Y-62059406D01*
X78037000Y-61799168D01*
X78037000Y-61533832D01*
X77985236Y-61273594D01*
X77883696Y-61028456D01*
X77736284Y-60807837D01*
X77548663Y-60620216D01*
X77328044Y-60472804D01*
X77173601Y-60408831D01*
X77283724Y-60368931D01*
X77514702Y-60229228D01*
X77713987Y-60047148D01*
X77873921Y-59829688D01*
X77988357Y-59585205D01*
X78024383Y-59466429D01*
X77916191Y-59253500D01*
X76817000Y-59253500D01*
X76817000Y-59273500D01*
X76563000Y-59273500D01*
X76563000Y-59253500D01*
X75463809Y-59253500D01*
X75355617Y-59466429D01*
X75391643Y-59585205D01*
X75506079Y-59829688D01*
X75666013Y-60047148D01*
X75865298Y-60229228D01*
X76096276Y-60368931D01*
X76206399Y-60408831D01*
X76051956Y-60472804D01*
X75832409Y-60619500D01*
X75600181Y-60619500D01*
X74997000Y-60016319D01*
X74997000Y-58786571D01*
X75355617Y-58786571D01*
X75463809Y-58999500D01*
X76563000Y-58999500D01*
X76563000Y-57899614D01*
X76817000Y-57899614D01*
X76817000Y-58999500D01*
X77916191Y-58999500D01*
X78024383Y-58786571D01*
X77988357Y-58667795D01*
X77873921Y-58423312D01*
X77713987Y-58205852D01*
X77514702Y-58023772D01*
X77283724Y-57884069D01*
X77029929Y-57792112D01*
X76817000Y-57899614D01*
X76563000Y-57899614D01*
X76350071Y-57792112D01*
X76096276Y-57884069D01*
X75865298Y-58023772D01*
X75666013Y-58205852D01*
X75506079Y-58423312D01*
X75391643Y-58667795D01*
X75355617Y-58786571D01*
X74997000Y-58786571D01*
X74997000Y-58383681D01*
X75833681Y-57547000D01*
X89646319Y-57547000D01*
X95873000Y-63773681D01*
G37*
%TD.AperFunction*%
%TD*%
D25*
%TO.N,GND*%
X96410197Y-57589803D02*
X96429443Y-57605597D01*
X96451399Y-57617333D01*
X96475224Y-57624560D01*
X96500000Y-57627000D01*
X125947394Y-57627000D01*
X127123000Y-58802606D01*
X127123000Y-68697394D01*
X125947394Y-69873000D01*
X97000000Y-69873000D01*
X96975224Y-69875440D01*
X96951399Y-69882667D01*
X96929443Y-69894403D01*
X96910197Y-69910197D01*
X96619139Y-70201255D01*
X96616659Y-70202953D01*
X96573513Y-70231619D01*
X96567359Y-70236709D01*
X96417853Y-70362159D01*
X96381588Y-70399192D01*
X96344792Y-70435732D01*
X96339745Y-70441921D01*
X96217454Y-70594021D01*
X96200567Y-70619827D01*
X95627000Y-71193394D01*
X95627000Y-68350000D01*
X103511928Y-68350000D01*
X103524188Y-68474482D01*
X103560498Y-68594180D01*
X103619463Y-68704494D01*
X103698815Y-68801185D01*
X103795506Y-68880537D01*
X103905820Y-68939502D01*
X104025518Y-68975812D01*
X104150000Y-68988072D01*
X104714250Y-68985000D01*
X104873000Y-68826250D01*
X104873000Y-67627000D01*
X105127000Y-67627000D01*
X105127000Y-68826250D01*
X105285750Y-68985000D01*
X105850000Y-68988072D01*
X105974482Y-68975812D01*
X106094180Y-68939502D01*
X106204494Y-68880537D01*
X106301185Y-68801185D01*
X106380537Y-68704494D01*
X106439502Y-68594180D01*
X106475812Y-68474482D01*
X106488072Y-68350000D01*
X123511928Y-68350000D01*
X123524188Y-68474482D01*
X123560498Y-68594180D01*
X123619463Y-68704494D01*
X123698815Y-68801185D01*
X123795506Y-68880537D01*
X123905820Y-68939502D01*
X124025518Y-68975812D01*
X124150000Y-68988072D01*
X124714250Y-68985000D01*
X124873000Y-68826250D01*
X124873000Y-67627000D01*
X125127000Y-67627000D01*
X125127000Y-68826250D01*
X125285750Y-68985000D01*
X125850000Y-68988072D01*
X125974482Y-68975812D01*
X126094180Y-68939502D01*
X126204494Y-68880537D01*
X126301185Y-68801185D01*
X126380537Y-68704494D01*
X126439502Y-68594180D01*
X126475812Y-68474482D01*
X126488072Y-68350000D01*
X126485000Y-67785750D01*
X126326250Y-67627000D01*
X125127000Y-67627000D01*
X124873000Y-67627000D01*
X123673750Y-67627000D01*
X123515000Y-67785750D01*
X123511928Y-68350000D01*
X106488072Y-68350000D01*
X106485000Y-67785750D01*
X106326250Y-67627000D01*
X105127000Y-67627000D01*
X104873000Y-67627000D01*
X103673750Y-67627000D01*
X103515000Y-67785750D01*
X103511928Y-68350000D01*
X95627000Y-68350000D01*
X95627000Y-63527681D01*
X97763295Y-65663976D01*
X97796078Y-65703922D01*
X97955504Y-65834760D01*
X98137392Y-65931981D01*
X98334752Y-65991850D01*
X98488574Y-66007000D01*
X98488584Y-66007000D01*
X98540000Y-66012064D01*
X98591416Y-66007000D01*
X104071345Y-66007000D01*
X104082883Y-66018538D01*
X104025518Y-66024188D01*
X103905820Y-66060498D01*
X103795506Y-66119463D01*
X103698815Y-66198815D01*
X103619463Y-66295506D01*
X103560498Y-66405820D01*
X103524188Y-66525518D01*
X103511928Y-66650000D01*
X103515000Y-67214250D01*
X103673750Y-67373000D01*
X104873000Y-67373000D01*
X104873000Y-67353000D01*
X105127000Y-67353000D01*
X105127000Y-67373000D01*
X106326250Y-67373000D01*
X106485000Y-67214250D01*
X106488072Y-66650000D01*
X106475812Y-66525518D01*
X106439502Y-66405820D01*
X106380537Y-66295506D01*
X106301185Y-66198815D01*
X106204494Y-66119463D01*
X106094180Y-66060498D01*
X105974482Y-66024188D01*
X105917117Y-66018538D01*
X105928655Y-66007000D01*
X124071345Y-66007000D01*
X124082883Y-66018538D01*
X124025518Y-66024188D01*
X123905820Y-66060498D01*
X123795506Y-66119463D01*
X123698815Y-66198815D01*
X123619463Y-66295506D01*
X123560498Y-66405820D01*
X123524188Y-66525518D01*
X123511928Y-66650000D01*
X123515000Y-67214250D01*
X123673750Y-67373000D01*
X124873000Y-67373000D01*
X124873000Y-67353000D01*
X125127000Y-67353000D01*
X125127000Y-67373000D01*
X126326250Y-67373000D01*
X126485000Y-67214250D01*
X126488072Y-66650000D01*
X126475812Y-66525518D01*
X126439502Y-66405820D01*
X126380537Y-66295506D01*
X126301185Y-66198815D01*
X126204494Y-66119463D01*
X126094180Y-66060498D01*
X125974482Y-66024188D01*
X125917117Y-66018538D01*
X126085120Y-65850535D01*
X126238005Y-65621727D01*
X126343314Y-65367490D01*
X126397000Y-65097592D01*
X126397000Y-64822408D01*
X126343314Y-64552510D01*
X126238005Y-64298273D01*
X126085120Y-64069465D01*
X125890535Y-63874880D01*
X125661727Y-63721995D01*
X125584485Y-63690000D01*
X125661727Y-63658005D01*
X125890535Y-63505120D01*
X126085120Y-63310535D01*
X126238005Y-63081727D01*
X126343314Y-62827490D01*
X126397000Y-62557592D01*
X126397000Y-62282408D01*
X126343314Y-62012510D01*
X126238005Y-61758273D01*
X126085120Y-61529465D01*
X125890535Y-61334880D01*
X125680724Y-61194688D01*
X125881355Y-61075178D01*
X126097588Y-60880269D01*
X126271641Y-60646920D01*
X126396825Y-60384099D01*
X126441476Y-60236890D01*
X126320155Y-60007000D01*
X125127000Y-60007000D01*
X125127000Y-60027000D01*
X124873000Y-60027000D01*
X124873000Y-60007000D01*
X123679845Y-60007000D01*
X123558524Y-60236890D01*
X123603175Y-60384099D01*
X123728359Y-60646920D01*
X123902412Y-60880269D01*
X124118645Y-61075178D01*
X124319276Y-61194688D01*
X124109465Y-61334880D01*
X123914880Y-61529465D01*
X123761995Y-61758273D01*
X123656686Y-62012510D01*
X123603000Y-62282408D01*
X123603000Y-62557592D01*
X123656686Y-62827490D01*
X123761995Y-63081727D01*
X123914880Y-63310535D01*
X124109465Y-63505120D01*
X124338273Y-63658005D01*
X124415515Y-63690000D01*
X124338273Y-63721995D01*
X124109465Y-63874880D01*
X124071345Y-63913000D01*
X105928655Y-63913000D01*
X105890535Y-63874880D01*
X105661727Y-63721995D01*
X105584485Y-63690000D01*
X105661727Y-63658005D01*
X105890535Y-63505120D01*
X106085120Y-63310535D01*
X106238005Y-63081727D01*
X106343314Y-62827490D01*
X106397000Y-62557592D01*
X106397000Y-62282408D01*
X106343314Y-62012510D01*
X106238005Y-61758273D01*
X106085120Y-61529465D01*
X105890535Y-61334880D01*
X105680724Y-61194688D01*
X105881355Y-61075178D01*
X106097588Y-60880269D01*
X106271641Y-60646920D01*
X106396825Y-60384099D01*
X106441476Y-60236890D01*
X106320155Y-60007000D01*
X105127000Y-60007000D01*
X105127000Y-60027000D01*
X104873000Y-60027000D01*
X104873000Y-60007000D01*
X103679845Y-60007000D01*
X103558524Y-60236890D01*
X103603175Y-60384099D01*
X103728359Y-60646920D01*
X103902412Y-60880269D01*
X104118645Y-61075178D01*
X104319276Y-61194688D01*
X104109465Y-61334880D01*
X103914880Y-61529465D01*
X103761995Y-61758273D01*
X103656686Y-62012510D01*
X103603000Y-62282408D01*
X103603000Y-62557592D01*
X103656686Y-62827490D01*
X103761995Y-63081727D01*
X103914880Y-63310535D01*
X104109465Y-63505120D01*
X104338273Y-63658005D01*
X104415515Y-63690000D01*
X104338273Y-63721995D01*
X104109465Y-63874880D01*
X104071345Y-63913000D01*
X98973681Y-63913000D01*
X95627000Y-60566319D01*
X95627000Y-59523110D01*
X103558524Y-59523110D01*
X103679845Y-59753000D01*
X104873000Y-59753000D01*
X104873000Y-58559186D01*
X105127000Y-58559186D01*
X105127000Y-59753000D01*
X106320155Y-59753000D01*
X106441476Y-59523110D01*
X123558524Y-59523110D01*
X123679845Y-59753000D01*
X124873000Y-59753000D01*
X124873000Y-58559186D01*
X125127000Y-58559186D01*
X125127000Y-59753000D01*
X126320155Y-59753000D01*
X126441476Y-59523110D01*
X126396825Y-59375901D01*
X126271641Y-59113080D01*
X126097588Y-58879731D01*
X125881355Y-58684822D01*
X125631252Y-58535843D01*
X125356891Y-58438519D01*
X125127000Y-58559186D01*
X124873000Y-58559186D01*
X124643109Y-58438519D01*
X124368748Y-58535843D01*
X124118645Y-58684822D01*
X123902412Y-58879731D01*
X123728359Y-59113080D01*
X123603175Y-59375901D01*
X123558524Y-59523110D01*
X106441476Y-59523110D01*
X106396825Y-59375901D01*
X106271641Y-59113080D01*
X106097588Y-58879731D01*
X105881355Y-58684822D01*
X105631252Y-58535843D01*
X105356891Y-58438519D01*
X105127000Y-58559186D01*
X104873000Y-58559186D01*
X104643109Y-58438519D01*
X104368748Y-58535843D01*
X104118645Y-58684822D01*
X103902412Y-58879731D01*
X103728359Y-59113080D01*
X103603175Y-59375901D01*
X103558524Y-59523110D01*
X95627000Y-59523110D01*
X95627000Y-56806606D01*
X96410197Y-57589803D01*
%TA.AperFunction,Conductor*%
D26*
G36*
X96410197Y-57589803D02*
G01*
X96429443Y-57605597D01*
X96451399Y-57617333D01*
X96475224Y-57624560D01*
X96500000Y-57627000D01*
X125947394Y-57627000D01*
X127123000Y-58802606D01*
X127123000Y-68697394D01*
X125947394Y-69873000D01*
X97000000Y-69873000D01*
X96975224Y-69875440D01*
X96951399Y-69882667D01*
X96929443Y-69894403D01*
X96910197Y-69910197D01*
X96619139Y-70201255D01*
X96616659Y-70202953D01*
X96573513Y-70231619D01*
X96567359Y-70236709D01*
X96417853Y-70362159D01*
X96381588Y-70399192D01*
X96344792Y-70435732D01*
X96339745Y-70441921D01*
X96217454Y-70594021D01*
X96200567Y-70619827D01*
X95627000Y-71193394D01*
X95627000Y-68350000D01*
X103511928Y-68350000D01*
X103524188Y-68474482D01*
X103560498Y-68594180D01*
X103619463Y-68704494D01*
X103698815Y-68801185D01*
X103795506Y-68880537D01*
X103905820Y-68939502D01*
X104025518Y-68975812D01*
X104150000Y-68988072D01*
X104714250Y-68985000D01*
X104873000Y-68826250D01*
X104873000Y-67627000D01*
X105127000Y-67627000D01*
X105127000Y-68826250D01*
X105285750Y-68985000D01*
X105850000Y-68988072D01*
X105974482Y-68975812D01*
X106094180Y-68939502D01*
X106204494Y-68880537D01*
X106301185Y-68801185D01*
X106380537Y-68704494D01*
X106439502Y-68594180D01*
X106475812Y-68474482D01*
X106488072Y-68350000D01*
X123511928Y-68350000D01*
X123524188Y-68474482D01*
X123560498Y-68594180D01*
X123619463Y-68704494D01*
X123698815Y-68801185D01*
X123795506Y-68880537D01*
X123905820Y-68939502D01*
X124025518Y-68975812D01*
X124150000Y-68988072D01*
X124714250Y-68985000D01*
X124873000Y-68826250D01*
X124873000Y-67627000D01*
X125127000Y-67627000D01*
X125127000Y-68826250D01*
X125285750Y-68985000D01*
X125850000Y-68988072D01*
X125974482Y-68975812D01*
X126094180Y-68939502D01*
X126204494Y-68880537D01*
X126301185Y-68801185D01*
X126380537Y-68704494D01*
X126439502Y-68594180D01*
X126475812Y-68474482D01*
X126488072Y-68350000D01*
X126485000Y-67785750D01*
X126326250Y-67627000D01*
X125127000Y-67627000D01*
X124873000Y-67627000D01*
X123673750Y-67627000D01*
X123515000Y-67785750D01*
X123511928Y-68350000D01*
X106488072Y-68350000D01*
X106485000Y-67785750D01*
X106326250Y-67627000D01*
X105127000Y-67627000D01*
X104873000Y-67627000D01*
X103673750Y-67627000D01*
X103515000Y-67785750D01*
X103511928Y-68350000D01*
X95627000Y-68350000D01*
X95627000Y-63527681D01*
X97763295Y-65663976D01*
X97796078Y-65703922D01*
X97955504Y-65834760D01*
X98137392Y-65931981D01*
X98334752Y-65991850D01*
X98488574Y-66007000D01*
X98488584Y-66007000D01*
X98540000Y-66012064D01*
X98591416Y-66007000D01*
X104071345Y-66007000D01*
X104082883Y-66018538D01*
X104025518Y-66024188D01*
X103905820Y-66060498D01*
X103795506Y-66119463D01*
X103698815Y-66198815D01*
X103619463Y-66295506D01*
X103560498Y-66405820D01*
X103524188Y-66525518D01*
X103511928Y-66650000D01*
X103515000Y-67214250D01*
X103673750Y-67373000D01*
X104873000Y-67373000D01*
X104873000Y-67353000D01*
X105127000Y-67353000D01*
X105127000Y-67373000D01*
X106326250Y-67373000D01*
X106485000Y-67214250D01*
X106488072Y-66650000D01*
X106475812Y-66525518D01*
X106439502Y-66405820D01*
X106380537Y-66295506D01*
X106301185Y-66198815D01*
X106204494Y-66119463D01*
X106094180Y-66060498D01*
X105974482Y-66024188D01*
X105917117Y-66018538D01*
X105928655Y-66007000D01*
X124071345Y-66007000D01*
X124082883Y-66018538D01*
X124025518Y-66024188D01*
X123905820Y-66060498D01*
X123795506Y-66119463D01*
X123698815Y-66198815D01*
X123619463Y-66295506D01*
X123560498Y-66405820D01*
X123524188Y-66525518D01*
X123511928Y-66650000D01*
X123515000Y-67214250D01*
X123673750Y-67373000D01*
X124873000Y-67373000D01*
X124873000Y-67353000D01*
X125127000Y-67353000D01*
X125127000Y-67373000D01*
X126326250Y-67373000D01*
X126485000Y-67214250D01*
X126488072Y-66650000D01*
X126475812Y-66525518D01*
X126439502Y-66405820D01*
X126380537Y-66295506D01*
X126301185Y-66198815D01*
X126204494Y-66119463D01*
X126094180Y-66060498D01*
X125974482Y-66024188D01*
X125917117Y-66018538D01*
X126085120Y-65850535D01*
X126238005Y-65621727D01*
X126343314Y-65367490D01*
X126397000Y-65097592D01*
X126397000Y-64822408D01*
X126343314Y-64552510D01*
X126238005Y-64298273D01*
X126085120Y-64069465D01*
X125890535Y-63874880D01*
X125661727Y-63721995D01*
X125584485Y-63690000D01*
X125661727Y-63658005D01*
X125890535Y-63505120D01*
X126085120Y-63310535D01*
X126238005Y-63081727D01*
X126343314Y-62827490D01*
X126397000Y-62557592D01*
X126397000Y-62282408D01*
X126343314Y-62012510D01*
X126238005Y-61758273D01*
X126085120Y-61529465D01*
X125890535Y-61334880D01*
X125680724Y-61194688D01*
X125881355Y-61075178D01*
X126097588Y-60880269D01*
X126271641Y-60646920D01*
X126396825Y-60384099D01*
X126441476Y-60236890D01*
X126320155Y-60007000D01*
X125127000Y-60007000D01*
X125127000Y-60027000D01*
X124873000Y-60027000D01*
X124873000Y-60007000D01*
X123679845Y-60007000D01*
X123558524Y-60236890D01*
X123603175Y-60384099D01*
X123728359Y-60646920D01*
X123902412Y-60880269D01*
X124118645Y-61075178D01*
X124319276Y-61194688D01*
X124109465Y-61334880D01*
X123914880Y-61529465D01*
X123761995Y-61758273D01*
X123656686Y-62012510D01*
X123603000Y-62282408D01*
X123603000Y-62557592D01*
X123656686Y-62827490D01*
X123761995Y-63081727D01*
X123914880Y-63310535D01*
X124109465Y-63505120D01*
X124338273Y-63658005D01*
X124415515Y-63690000D01*
X124338273Y-63721995D01*
X124109465Y-63874880D01*
X124071345Y-63913000D01*
X105928655Y-63913000D01*
X105890535Y-63874880D01*
X105661727Y-63721995D01*
X105584485Y-63690000D01*
X105661727Y-63658005D01*
X105890535Y-63505120D01*
X106085120Y-63310535D01*
X106238005Y-63081727D01*
X106343314Y-62827490D01*
X106397000Y-62557592D01*
X106397000Y-62282408D01*
X106343314Y-62012510D01*
X106238005Y-61758273D01*
X106085120Y-61529465D01*
X105890535Y-61334880D01*
X105680724Y-61194688D01*
X105881355Y-61075178D01*
X106097588Y-60880269D01*
X106271641Y-60646920D01*
X106396825Y-60384099D01*
X106441476Y-60236890D01*
X106320155Y-60007000D01*
X105127000Y-60007000D01*
X105127000Y-60027000D01*
X104873000Y-60027000D01*
X104873000Y-60007000D01*
X103679845Y-60007000D01*
X103558524Y-60236890D01*
X103603175Y-60384099D01*
X103728359Y-60646920D01*
X103902412Y-60880269D01*
X104118645Y-61075178D01*
X104319276Y-61194688D01*
X104109465Y-61334880D01*
X103914880Y-61529465D01*
X103761995Y-61758273D01*
X103656686Y-62012510D01*
X103603000Y-62282408D01*
X103603000Y-62557592D01*
X103656686Y-62827490D01*
X103761995Y-63081727D01*
X103914880Y-63310535D01*
X104109465Y-63505120D01*
X104338273Y-63658005D01*
X104415515Y-63690000D01*
X104338273Y-63721995D01*
X104109465Y-63874880D01*
X104071345Y-63913000D01*
X98973681Y-63913000D01*
X95627000Y-60566319D01*
X95627000Y-59523110D01*
X103558524Y-59523110D01*
X103679845Y-59753000D01*
X104873000Y-59753000D01*
X104873000Y-58559186D01*
X105127000Y-58559186D01*
X105127000Y-59753000D01*
X106320155Y-59753000D01*
X106441476Y-59523110D01*
X123558524Y-59523110D01*
X123679845Y-59753000D01*
X124873000Y-59753000D01*
X124873000Y-58559186D01*
X125127000Y-58559186D01*
X125127000Y-59753000D01*
X126320155Y-59753000D01*
X126441476Y-59523110D01*
X126396825Y-59375901D01*
X126271641Y-59113080D01*
X126097588Y-58879731D01*
X125881355Y-58684822D01*
X125631252Y-58535843D01*
X125356891Y-58438519D01*
X125127000Y-58559186D01*
X124873000Y-58559186D01*
X124643109Y-58438519D01*
X124368748Y-58535843D01*
X124118645Y-58684822D01*
X123902412Y-58879731D01*
X123728359Y-59113080D01*
X123603175Y-59375901D01*
X123558524Y-59523110D01*
X106441476Y-59523110D01*
X106396825Y-59375901D01*
X106271641Y-59113080D01*
X106097588Y-58879731D01*
X105881355Y-58684822D01*
X105631252Y-58535843D01*
X105356891Y-58438519D01*
X105127000Y-58559186D01*
X104873000Y-58559186D01*
X104643109Y-58438519D01*
X104368748Y-58535843D01*
X104118645Y-58684822D01*
X103902412Y-58879731D01*
X103728359Y-59113080D01*
X103603175Y-59375901D01*
X103558524Y-59523110D01*
X95627000Y-59523110D01*
X95627000Y-56806606D01*
X96410197Y-57589803D01*
G37*
%TD.AperFunction*%
%TD*%
D25*
%TO.N,GND*%
X137373000Y-59052606D02*
X137373000Y-73947394D01*
X126947394Y-84373000D01*
X123127000Y-84373000D01*
X123127000Y-82482408D01*
X123603000Y-82482408D01*
X123603000Y-82757592D01*
X123656686Y-83027490D01*
X123761995Y-83281727D01*
X123914880Y-83510535D01*
X124109465Y-83705120D01*
X124338273Y-83858005D01*
X124592510Y-83963314D01*
X124862408Y-84017000D01*
X125137592Y-84017000D01*
X125407490Y-83963314D01*
X125661727Y-83858005D01*
X125890535Y-83705120D01*
X126085120Y-83510535D01*
X126147618Y-83417000D01*
X126340852Y-83417000D01*
X126380000Y-83420856D01*
X126419148Y-83417000D01*
X126419151Y-83417000D01*
X126536239Y-83405468D01*
X126686474Y-83359894D01*
X126824932Y-83285887D01*
X126946291Y-83186291D01*
X126971251Y-83155877D01*
X135535884Y-74591245D01*
X135566291Y-74566291D01*
X135591248Y-74535881D01*
X135665887Y-74444933D01*
X135739893Y-74306475D01*
X135739894Y-74306474D01*
X135785468Y-74156239D01*
X135797000Y-74039151D01*
X135797000Y-74039149D01*
X135800856Y-74000000D01*
X135797000Y-73960852D01*
X135797000Y-68647618D01*
X135890535Y-68585120D01*
X136085120Y-68390535D01*
X136238005Y-68161727D01*
X136343314Y-67907490D01*
X136397000Y-67637592D01*
X136397000Y-67362408D01*
X136343314Y-67092510D01*
X136238005Y-66838273D01*
X136085120Y-66609465D01*
X135890535Y-66414880D01*
X135661727Y-66261995D01*
X135619487Y-66244499D01*
X135850934Y-66105536D01*
X136058067Y-65917516D01*
X136224539Y-65692699D01*
X136343952Y-65439725D01*
X136383971Y-65307783D01*
X136276448Y-65087000D01*
X135127000Y-65087000D01*
X135127000Y-65107000D01*
X134873000Y-65107000D01*
X134873000Y-65087000D01*
X133723552Y-65087000D01*
X133616029Y-65307783D01*
X133656048Y-65439725D01*
X133775461Y-65692699D01*
X133941933Y-65917516D01*
X134149066Y-66105536D01*
X134380513Y-66244499D01*
X134338273Y-66261995D01*
X134109465Y-66414880D01*
X133914880Y-66609465D01*
X133761995Y-66838273D01*
X133656686Y-67092510D01*
X133603000Y-67362408D01*
X133603000Y-67637592D01*
X133656686Y-67907490D01*
X133761995Y-68161727D01*
X133914880Y-68390535D01*
X134109465Y-68585120D01*
X134203001Y-68647619D01*
X134203000Y-73669871D01*
X126108467Y-81764405D01*
X126085120Y-81729465D01*
X125890535Y-81534880D01*
X125661727Y-81381995D01*
X125619487Y-81364499D01*
X125850934Y-81225536D01*
X126058067Y-81037516D01*
X126224539Y-80812699D01*
X126343952Y-80559725D01*
X126383971Y-80427783D01*
X126276448Y-80207000D01*
X125127000Y-80207000D01*
X125127000Y-80227000D01*
X124873000Y-80227000D01*
X124873000Y-80207000D01*
X123723552Y-80207000D01*
X123616029Y-80427783D01*
X123656048Y-80559725D01*
X123775461Y-80812699D01*
X123941933Y-81037516D01*
X124149066Y-81225536D01*
X124380513Y-81364499D01*
X124338273Y-81381995D01*
X124109465Y-81534880D01*
X123914880Y-81729465D01*
X123761995Y-81958273D01*
X123656686Y-82212510D01*
X123603000Y-82482408D01*
X123127000Y-82482408D01*
X123127000Y-78337000D01*
X123852382Y-78337000D01*
X123914880Y-78430535D01*
X124109465Y-78625120D01*
X124338273Y-78778005D01*
X124380513Y-78795501D01*
X124149066Y-78934464D01*
X123941933Y-79122484D01*
X123775461Y-79347301D01*
X123656048Y-79600275D01*
X123616029Y-79732217D01*
X123723552Y-79953000D01*
X124873000Y-79953000D01*
X124873000Y-79933000D01*
X125127000Y-79933000D01*
X125127000Y-79953000D01*
X126276448Y-79953000D01*
X126383971Y-79732217D01*
X126343952Y-79600275D01*
X126224539Y-79347301D01*
X126058067Y-79122484D01*
X125850934Y-78934464D01*
X125619487Y-78795501D01*
X125661727Y-78778005D01*
X125890535Y-78625120D01*
X126085120Y-78430535D01*
X126147618Y-78337000D01*
X127420852Y-78337000D01*
X127460000Y-78340856D01*
X127499148Y-78337000D01*
X127499151Y-78337000D01*
X127616239Y-78325468D01*
X127766474Y-78279894D01*
X127904932Y-78205887D01*
X128026291Y-78106291D01*
X128051251Y-78075877D01*
X133035877Y-73091251D01*
X133066291Y-73066291D01*
X133137604Y-72979395D01*
X133165887Y-72944933D01*
X133227234Y-72830159D01*
X133239894Y-72806474D01*
X133285468Y-72656239D01*
X133297000Y-72539151D01*
X133297000Y-72539150D01*
X133300856Y-72500001D01*
X133297000Y-72460852D01*
X133297000Y-64330128D01*
X134116984Y-63510144D01*
X134338273Y-63658005D01*
X134380513Y-63675501D01*
X134149066Y-63814464D01*
X133941933Y-64002484D01*
X133775461Y-64227301D01*
X133656048Y-64480275D01*
X133616029Y-64612217D01*
X133723552Y-64833000D01*
X134873000Y-64833000D01*
X134873000Y-64813000D01*
X135127000Y-64813000D01*
X135127000Y-64833000D01*
X136276448Y-64833000D01*
X136383971Y-64612217D01*
X136343952Y-64480275D01*
X136224539Y-64227301D01*
X136058067Y-64002484D01*
X135850934Y-63814464D01*
X135619487Y-63675501D01*
X135661727Y-63658005D01*
X135890535Y-63505120D01*
X136085120Y-63310535D01*
X136238005Y-63081727D01*
X136343314Y-62827490D01*
X136397000Y-62557592D01*
X136397000Y-62282408D01*
X136343314Y-62012510D01*
X136238005Y-61758273D01*
X136085120Y-61529465D01*
X135890535Y-61334880D01*
X135852604Y-61309535D01*
X135963112Y-61298651D01*
X136071877Y-61265658D01*
X136172115Y-61212079D01*
X136259975Y-61139975D01*
X136332079Y-61052115D01*
X136385658Y-60951877D01*
X136418651Y-60843112D01*
X136429792Y-60730000D01*
X136427000Y-60151250D01*
X136282750Y-60007000D01*
X135127000Y-60007000D01*
X135127000Y-60027000D01*
X134873000Y-60027000D01*
X134873000Y-60007000D01*
X133717250Y-60007000D01*
X133573000Y-60151250D01*
X133570208Y-60730000D01*
X133581349Y-60843112D01*
X133614342Y-60951877D01*
X133667921Y-61052115D01*
X133740025Y-61139975D01*
X133827885Y-61212079D01*
X133928123Y-61265658D01*
X134036888Y-61298651D01*
X134147396Y-61309535D01*
X134109465Y-61334880D01*
X133914880Y-61529465D01*
X133824571Y-61664621D01*
X133773526Y-61680106D01*
X133709074Y-61714556D01*
X133635067Y-61754113D01*
X133584393Y-61795700D01*
X133513709Y-61853709D01*
X133488749Y-61884123D01*
X131964123Y-63408749D01*
X131933709Y-63433709D01*
X131908752Y-63464120D01*
X131834113Y-63555068D01*
X131822912Y-63576024D01*
X131760106Y-63693527D01*
X131714532Y-63843762D01*
X131707713Y-63913000D01*
X131699144Y-64000000D01*
X131703000Y-64039148D01*
X131703001Y-72169871D01*
X127129872Y-76743000D01*
X126147618Y-76743000D01*
X126085120Y-76649465D01*
X125890535Y-76454880D01*
X125852604Y-76429535D01*
X125963112Y-76418651D01*
X126071877Y-76385658D01*
X126172115Y-76332079D01*
X126259975Y-76259975D01*
X126332079Y-76172115D01*
X126385658Y-76071877D01*
X126418651Y-75963112D01*
X126429792Y-75850000D01*
X126427000Y-75271250D01*
X126282750Y-75127000D01*
X125127000Y-75127000D01*
X125127000Y-75147000D01*
X124873000Y-75147000D01*
X124873000Y-75127000D01*
X123717250Y-75127000D01*
X123573000Y-75271250D01*
X123570208Y-75850000D01*
X123581349Y-75963112D01*
X123614342Y-76071877D01*
X123667921Y-76172115D01*
X123740025Y-76259975D01*
X123827885Y-76332079D01*
X123928123Y-76385658D01*
X124036888Y-76418651D01*
X124147396Y-76429535D01*
X124109465Y-76454880D01*
X123914880Y-76649465D01*
X123852382Y-76743000D01*
X123127000Y-76743000D01*
X123127000Y-74150000D01*
X123570208Y-74150000D01*
X123573000Y-74728750D01*
X123717250Y-74873000D01*
X124873000Y-74873000D01*
X124873000Y-73717250D01*
X125127000Y-73717250D01*
X125127000Y-74873000D01*
X126282750Y-74873000D01*
X126427000Y-74728750D01*
X126429792Y-74150000D01*
X126418651Y-74036888D01*
X126385658Y-73928123D01*
X126332079Y-73827885D01*
X126259975Y-73740025D01*
X126172115Y-73667921D01*
X126071877Y-73614342D01*
X125963112Y-73581349D01*
X125850000Y-73570208D01*
X125271250Y-73573000D01*
X125127000Y-73717250D01*
X124873000Y-73717250D01*
X124728750Y-73573000D01*
X124150000Y-73570208D01*
X124036888Y-73581349D01*
X123928123Y-73614342D01*
X123827885Y-73667921D01*
X123740025Y-73740025D01*
X123667921Y-73827885D01*
X123614342Y-73928123D01*
X123581349Y-74036888D01*
X123570208Y-74150000D01*
X123127000Y-74150000D01*
X123127000Y-73127000D01*
X127000000Y-73127000D01*
X127024776Y-73124560D01*
X127048601Y-73117333D01*
X127070557Y-73105597D01*
X127089803Y-73089803D01*
X131089803Y-69089803D01*
X131105597Y-69070557D01*
X131117333Y-69048601D01*
X131124560Y-69024776D01*
X131127000Y-69000000D01*
X131127000Y-59052606D01*
X131149606Y-59030000D01*
X133570208Y-59030000D01*
X133573000Y-59608750D01*
X133717250Y-59753000D01*
X134873000Y-59753000D01*
X134873000Y-58597250D01*
X135127000Y-58597250D01*
X135127000Y-59753000D01*
X136282750Y-59753000D01*
X136427000Y-59608750D01*
X136429792Y-59030000D01*
X136418651Y-58916888D01*
X136385658Y-58808123D01*
X136332079Y-58707885D01*
X136259975Y-58620025D01*
X136172115Y-58547921D01*
X136071877Y-58494342D01*
X135963112Y-58461349D01*
X135850000Y-58450208D01*
X135271250Y-58453000D01*
X135127000Y-58597250D01*
X134873000Y-58597250D01*
X134728750Y-58453000D01*
X134150000Y-58450208D01*
X134036888Y-58461349D01*
X133928123Y-58494342D01*
X133827885Y-58547921D01*
X133740025Y-58620025D01*
X133667921Y-58707885D01*
X133614342Y-58808123D01*
X133581349Y-58916888D01*
X133570208Y-59030000D01*
X131149606Y-59030000D01*
X132552606Y-57627000D01*
X135947394Y-57627000D01*
X137373000Y-59052606D01*
%TA.AperFunction,Conductor*%
D26*
G36*
X137373000Y-59052606D02*
G01*
X137373000Y-73947394D01*
X126947394Y-84373000D01*
X123127000Y-84373000D01*
X123127000Y-82482408D01*
X123603000Y-82482408D01*
X123603000Y-82757592D01*
X123656686Y-83027490D01*
X123761995Y-83281727D01*
X123914880Y-83510535D01*
X124109465Y-83705120D01*
X124338273Y-83858005D01*
X124592510Y-83963314D01*
X124862408Y-84017000D01*
X125137592Y-84017000D01*
X125407490Y-83963314D01*
X125661727Y-83858005D01*
X125890535Y-83705120D01*
X126085120Y-83510535D01*
X126147618Y-83417000D01*
X126340852Y-83417000D01*
X126380000Y-83420856D01*
X126419148Y-83417000D01*
X126419151Y-83417000D01*
X126536239Y-83405468D01*
X126686474Y-83359894D01*
X126824932Y-83285887D01*
X126946291Y-83186291D01*
X126971251Y-83155877D01*
X135535884Y-74591245D01*
X135566291Y-74566291D01*
X135591248Y-74535881D01*
X135665887Y-74444933D01*
X135739893Y-74306475D01*
X135739894Y-74306474D01*
X135785468Y-74156239D01*
X135797000Y-74039151D01*
X135797000Y-74039149D01*
X135800856Y-74000000D01*
X135797000Y-73960852D01*
X135797000Y-68647618D01*
X135890535Y-68585120D01*
X136085120Y-68390535D01*
X136238005Y-68161727D01*
X136343314Y-67907490D01*
X136397000Y-67637592D01*
X136397000Y-67362408D01*
X136343314Y-67092510D01*
X136238005Y-66838273D01*
X136085120Y-66609465D01*
X135890535Y-66414880D01*
X135661727Y-66261995D01*
X135619487Y-66244499D01*
X135850934Y-66105536D01*
X136058067Y-65917516D01*
X136224539Y-65692699D01*
X136343952Y-65439725D01*
X136383971Y-65307783D01*
X136276448Y-65087000D01*
X135127000Y-65087000D01*
X135127000Y-65107000D01*
X134873000Y-65107000D01*
X134873000Y-65087000D01*
X133723552Y-65087000D01*
X133616029Y-65307783D01*
X133656048Y-65439725D01*
X133775461Y-65692699D01*
X133941933Y-65917516D01*
X134149066Y-66105536D01*
X134380513Y-66244499D01*
X134338273Y-66261995D01*
X134109465Y-66414880D01*
X133914880Y-66609465D01*
X133761995Y-66838273D01*
X133656686Y-67092510D01*
X133603000Y-67362408D01*
X133603000Y-67637592D01*
X133656686Y-67907490D01*
X133761995Y-68161727D01*
X133914880Y-68390535D01*
X134109465Y-68585120D01*
X134203001Y-68647619D01*
X134203000Y-73669871D01*
X126108467Y-81764405D01*
X126085120Y-81729465D01*
X125890535Y-81534880D01*
X125661727Y-81381995D01*
X125619487Y-81364499D01*
X125850934Y-81225536D01*
X126058067Y-81037516D01*
X126224539Y-80812699D01*
X126343952Y-80559725D01*
X126383971Y-80427783D01*
X126276448Y-80207000D01*
X125127000Y-80207000D01*
X125127000Y-80227000D01*
X124873000Y-80227000D01*
X124873000Y-80207000D01*
X123723552Y-80207000D01*
X123616029Y-80427783D01*
X123656048Y-80559725D01*
X123775461Y-80812699D01*
X123941933Y-81037516D01*
X124149066Y-81225536D01*
X124380513Y-81364499D01*
X124338273Y-81381995D01*
X124109465Y-81534880D01*
X123914880Y-81729465D01*
X123761995Y-81958273D01*
X123656686Y-82212510D01*
X123603000Y-82482408D01*
X123127000Y-82482408D01*
X123127000Y-78337000D01*
X123852382Y-78337000D01*
X123914880Y-78430535D01*
X124109465Y-78625120D01*
X124338273Y-78778005D01*
X124380513Y-78795501D01*
X124149066Y-78934464D01*
X123941933Y-79122484D01*
X123775461Y-79347301D01*
X123656048Y-79600275D01*
X123616029Y-79732217D01*
X123723552Y-79953000D01*
X124873000Y-79953000D01*
X124873000Y-79933000D01*
X125127000Y-79933000D01*
X125127000Y-79953000D01*
X126276448Y-79953000D01*
X126383971Y-79732217D01*
X126343952Y-79600275D01*
X126224539Y-79347301D01*
X126058067Y-79122484D01*
X125850934Y-78934464D01*
X125619487Y-78795501D01*
X125661727Y-78778005D01*
X125890535Y-78625120D01*
X126085120Y-78430535D01*
X126147618Y-78337000D01*
X127420852Y-78337000D01*
X127460000Y-78340856D01*
X127499148Y-78337000D01*
X127499151Y-78337000D01*
X127616239Y-78325468D01*
X127766474Y-78279894D01*
X127904932Y-78205887D01*
X128026291Y-78106291D01*
X128051251Y-78075877D01*
X133035877Y-73091251D01*
X133066291Y-73066291D01*
X133137604Y-72979395D01*
X133165887Y-72944933D01*
X133227234Y-72830159D01*
X133239894Y-72806474D01*
X133285468Y-72656239D01*
X133297000Y-72539151D01*
X133297000Y-72539150D01*
X133300856Y-72500001D01*
X133297000Y-72460852D01*
X133297000Y-64330128D01*
X134116984Y-63510144D01*
X134338273Y-63658005D01*
X134380513Y-63675501D01*
X134149066Y-63814464D01*
X133941933Y-64002484D01*
X133775461Y-64227301D01*
X133656048Y-64480275D01*
X133616029Y-64612217D01*
X133723552Y-64833000D01*
X134873000Y-64833000D01*
X134873000Y-64813000D01*
X135127000Y-64813000D01*
X135127000Y-64833000D01*
X136276448Y-64833000D01*
X136383971Y-64612217D01*
X136343952Y-64480275D01*
X136224539Y-64227301D01*
X136058067Y-64002484D01*
X135850934Y-63814464D01*
X135619487Y-63675501D01*
X135661727Y-63658005D01*
X135890535Y-63505120D01*
X136085120Y-63310535D01*
X136238005Y-63081727D01*
X136343314Y-62827490D01*
X136397000Y-62557592D01*
X136397000Y-62282408D01*
X136343314Y-62012510D01*
X136238005Y-61758273D01*
X136085120Y-61529465D01*
X135890535Y-61334880D01*
X135852604Y-61309535D01*
X135963112Y-61298651D01*
X136071877Y-61265658D01*
X136172115Y-61212079D01*
X136259975Y-61139975D01*
X136332079Y-61052115D01*
X136385658Y-60951877D01*
X136418651Y-60843112D01*
X136429792Y-60730000D01*
X136427000Y-60151250D01*
X136282750Y-60007000D01*
X135127000Y-60007000D01*
X135127000Y-60027000D01*
X134873000Y-60027000D01*
X134873000Y-60007000D01*
X133717250Y-60007000D01*
X133573000Y-60151250D01*
X133570208Y-60730000D01*
X133581349Y-60843112D01*
X133614342Y-60951877D01*
X133667921Y-61052115D01*
X133740025Y-61139975D01*
X133827885Y-61212079D01*
X133928123Y-61265658D01*
X134036888Y-61298651D01*
X134147396Y-61309535D01*
X134109465Y-61334880D01*
X133914880Y-61529465D01*
X133824571Y-61664621D01*
X133773526Y-61680106D01*
X133709074Y-61714556D01*
X133635067Y-61754113D01*
X133584393Y-61795700D01*
X133513709Y-61853709D01*
X133488749Y-61884123D01*
X131964123Y-63408749D01*
X131933709Y-63433709D01*
X131908752Y-63464120D01*
X131834113Y-63555068D01*
X131822912Y-63576024D01*
X131760106Y-63693527D01*
X131714532Y-63843762D01*
X131707713Y-63913000D01*
X131699144Y-64000000D01*
X131703000Y-64039148D01*
X131703001Y-72169871D01*
X127129872Y-76743000D01*
X126147618Y-76743000D01*
X126085120Y-76649465D01*
X125890535Y-76454880D01*
X125852604Y-76429535D01*
X125963112Y-76418651D01*
X126071877Y-76385658D01*
X126172115Y-76332079D01*
X126259975Y-76259975D01*
X126332079Y-76172115D01*
X126385658Y-76071877D01*
X126418651Y-75963112D01*
X126429792Y-75850000D01*
X126427000Y-75271250D01*
X126282750Y-75127000D01*
X125127000Y-75127000D01*
X125127000Y-75147000D01*
X124873000Y-75147000D01*
X124873000Y-75127000D01*
X123717250Y-75127000D01*
X123573000Y-75271250D01*
X123570208Y-75850000D01*
X123581349Y-75963112D01*
X123614342Y-76071877D01*
X123667921Y-76172115D01*
X123740025Y-76259975D01*
X123827885Y-76332079D01*
X123928123Y-76385658D01*
X124036888Y-76418651D01*
X124147396Y-76429535D01*
X124109465Y-76454880D01*
X123914880Y-76649465D01*
X123852382Y-76743000D01*
X123127000Y-76743000D01*
X123127000Y-74150000D01*
X123570208Y-74150000D01*
X123573000Y-74728750D01*
X123717250Y-74873000D01*
X124873000Y-74873000D01*
X124873000Y-73717250D01*
X125127000Y-73717250D01*
X125127000Y-74873000D01*
X126282750Y-74873000D01*
X126427000Y-74728750D01*
X126429792Y-74150000D01*
X126418651Y-74036888D01*
X126385658Y-73928123D01*
X126332079Y-73827885D01*
X126259975Y-73740025D01*
X126172115Y-73667921D01*
X126071877Y-73614342D01*
X125963112Y-73581349D01*
X125850000Y-73570208D01*
X125271250Y-73573000D01*
X125127000Y-73717250D01*
X124873000Y-73717250D01*
X124728750Y-73573000D01*
X124150000Y-73570208D01*
X124036888Y-73581349D01*
X123928123Y-73614342D01*
X123827885Y-73667921D01*
X123740025Y-73740025D01*
X123667921Y-73827885D01*
X123614342Y-73928123D01*
X123581349Y-74036888D01*
X123570208Y-74150000D01*
X123127000Y-74150000D01*
X123127000Y-73127000D01*
X127000000Y-73127000D01*
X127024776Y-73124560D01*
X127048601Y-73117333D01*
X127070557Y-73105597D01*
X127089803Y-73089803D01*
X131089803Y-69089803D01*
X131105597Y-69070557D01*
X131117333Y-69048601D01*
X131124560Y-69024776D01*
X131127000Y-69000000D01*
X131127000Y-59052606D01*
X131149606Y-59030000D01*
X133570208Y-59030000D01*
X133573000Y-59608750D01*
X133717250Y-59753000D01*
X134873000Y-59753000D01*
X134873000Y-58597250D01*
X135127000Y-58597250D01*
X135127000Y-59753000D01*
X136282750Y-59753000D01*
X136427000Y-59608750D01*
X136429792Y-59030000D01*
X136418651Y-58916888D01*
X136385658Y-58808123D01*
X136332079Y-58707885D01*
X136259975Y-58620025D01*
X136172115Y-58547921D01*
X136071877Y-58494342D01*
X135963112Y-58461349D01*
X135850000Y-58450208D01*
X135271250Y-58453000D01*
X135127000Y-58597250D01*
X134873000Y-58597250D01*
X134728750Y-58453000D01*
X134150000Y-58450208D01*
X134036888Y-58461349D01*
X133928123Y-58494342D01*
X133827885Y-58547921D01*
X133740025Y-58620025D01*
X133667921Y-58707885D01*
X133614342Y-58808123D01*
X133581349Y-58916888D01*
X133570208Y-59030000D01*
X131149606Y-59030000D01*
X132552606Y-57627000D01*
X135947394Y-57627000D01*
X137373000Y-59052606D01*
G37*
%TD.AperFunction*%
%TD*%
D25*
%TO.N,GND*%
X123914880Y-78430535D02*
X124109465Y-78625120D01*
X124319276Y-78765312D01*
X124118645Y-78884822D01*
X123902412Y-79079731D01*
X123728359Y-79313080D01*
X123603175Y-79575901D01*
X123558524Y-79723110D01*
X123679845Y-79953000D01*
X124873000Y-79953000D01*
X124873000Y-79933000D01*
X125127000Y-79933000D01*
X125127000Y-79953000D01*
X126320155Y-79953000D01*
X126441476Y-79723110D01*
X126396825Y-79575901D01*
X126271641Y-79313080D01*
X126097588Y-79079731D01*
X125881355Y-78884822D01*
X125680724Y-78765312D01*
X125890535Y-78625120D01*
X126085120Y-78430535D01*
X126147618Y-78337000D01*
X126873000Y-78337000D01*
X126873000Y-80999872D01*
X126108467Y-81764405D01*
X126085120Y-81729465D01*
X125890535Y-81534880D01*
X125680724Y-81394688D01*
X125881355Y-81275178D01*
X126097588Y-81080269D01*
X126271641Y-80846920D01*
X126396825Y-80584099D01*
X126441476Y-80436890D01*
X126320155Y-80207000D01*
X125127000Y-80207000D01*
X125127000Y-80227000D01*
X124873000Y-80227000D01*
X124873000Y-80207000D01*
X123679845Y-80207000D01*
X123558524Y-80436890D01*
X123603175Y-80584099D01*
X123728359Y-80846920D01*
X123902412Y-81080269D01*
X124118645Y-81275178D01*
X124319276Y-81394688D01*
X124109465Y-81534880D01*
X123914880Y-81729465D01*
X123761995Y-81958273D01*
X123656686Y-82212510D01*
X123603000Y-82482408D01*
X123603000Y-82757592D01*
X123656686Y-83027490D01*
X123761995Y-83281727D01*
X123914880Y-83510535D01*
X124109465Y-83705120D01*
X124338273Y-83858005D01*
X124592510Y-83963314D01*
X124862408Y-84017000D01*
X125137592Y-84017000D01*
X125407490Y-83963314D01*
X125661727Y-83858005D01*
X125890535Y-83705120D01*
X126085120Y-83510535D01*
X126147618Y-83417000D01*
X126340852Y-83417000D01*
X126380000Y-83420856D01*
X126419148Y-83417000D01*
X126419151Y-83417000D01*
X126536239Y-83405468D01*
X126686474Y-83359894D01*
X126824932Y-83285887D01*
X126873000Y-83246439D01*
X126873000Y-83447394D01*
X125947394Y-84373000D01*
X103552606Y-84373000D01*
X99589803Y-80410197D01*
X99570557Y-80394403D01*
X99548601Y-80382667D01*
X99524776Y-80375440D01*
X99500000Y-80373000D01*
X93627000Y-80373000D01*
X93627000Y-80297000D01*
X101549872Y-80297000D01*
X103624947Y-82372075D01*
X103603000Y-82482408D01*
X103603000Y-82757592D01*
X103656686Y-83027490D01*
X103761995Y-83281727D01*
X103914880Y-83510535D01*
X104109465Y-83705120D01*
X104338273Y-83858005D01*
X104592510Y-83963314D01*
X104862408Y-84017000D01*
X105137592Y-84017000D01*
X105407490Y-83963314D01*
X105661727Y-83858005D01*
X105890535Y-83705120D01*
X106085120Y-83510535D01*
X106238005Y-83281727D01*
X106343314Y-83027490D01*
X106397000Y-82757592D01*
X106397000Y-82482408D01*
X106343314Y-82212510D01*
X106238005Y-81958273D01*
X106085120Y-81729465D01*
X105890535Y-81534880D01*
X105680724Y-81394688D01*
X105881355Y-81275178D01*
X106097588Y-81080269D01*
X106271641Y-80846920D01*
X106396825Y-80584099D01*
X106441476Y-80436890D01*
X106320155Y-80207000D01*
X105127000Y-80207000D01*
X105127000Y-80227000D01*
X104873000Y-80227000D01*
X104873000Y-80207000D01*
X104853000Y-80207000D01*
X104853000Y-79953000D01*
X104873000Y-79953000D01*
X104873000Y-79933000D01*
X105127000Y-79933000D01*
X105127000Y-79953000D01*
X106320155Y-79953000D01*
X106441476Y-79723110D01*
X106396825Y-79575901D01*
X106271641Y-79313080D01*
X106097588Y-79079731D01*
X105881355Y-78884822D01*
X105680724Y-78765312D01*
X105890535Y-78625120D01*
X106085120Y-78430535D01*
X106147618Y-78337000D01*
X123852382Y-78337000D01*
X123914880Y-78430535D01*
%TA.AperFunction,Conductor*%
D26*
G36*
X123914880Y-78430535D02*
G01*
X124109465Y-78625120D01*
X124319276Y-78765312D01*
X124118645Y-78884822D01*
X123902412Y-79079731D01*
X123728359Y-79313080D01*
X123603175Y-79575901D01*
X123558524Y-79723110D01*
X123679845Y-79953000D01*
X124873000Y-79953000D01*
X124873000Y-79933000D01*
X125127000Y-79933000D01*
X125127000Y-79953000D01*
X126320155Y-79953000D01*
X126441476Y-79723110D01*
X126396825Y-79575901D01*
X126271641Y-79313080D01*
X126097588Y-79079731D01*
X125881355Y-78884822D01*
X125680724Y-78765312D01*
X125890535Y-78625120D01*
X126085120Y-78430535D01*
X126147618Y-78337000D01*
X126873000Y-78337000D01*
X126873000Y-80999872D01*
X126108467Y-81764405D01*
X126085120Y-81729465D01*
X125890535Y-81534880D01*
X125680724Y-81394688D01*
X125881355Y-81275178D01*
X126097588Y-81080269D01*
X126271641Y-80846920D01*
X126396825Y-80584099D01*
X126441476Y-80436890D01*
X126320155Y-80207000D01*
X125127000Y-80207000D01*
X125127000Y-80227000D01*
X124873000Y-80227000D01*
X124873000Y-80207000D01*
X123679845Y-80207000D01*
X123558524Y-80436890D01*
X123603175Y-80584099D01*
X123728359Y-80846920D01*
X123902412Y-81080269D01*
X124118645Y-81275178D01*
X124319276Y-81394688D01*
X124109465Y-81534880D01*
X123914880Y-81729465D01*
X123761995Y-81958273D01*
X123656686Y-82212510D01*
X123603000Y-82482408D01*
X123603000Y-82757592D01*
X123656686Y-83027490D01*
X123761995Y-83281727D01*
X123914880Y-83510535D01*
X124109465Y-83705120D01*
X124338273Y-83858005D01*
X124592510Y-83963314D01*
X124862408Y-84017000D01*
X125137592Y-84017000D01*
X125407490Y-83963314D01*
X125661727Y-83858005D01*
X125890535Y-83705120D01*
X126085120Y-83510535D01*
X126147618Y-83417000D01*
X126340852Y-83417000D01*
X126380000Y-83420856D01*
X126419148Y-83417000D01*
X126419151Y-83417000D01*
X126536239Y-83405468D01*
X126686474Y-83359894D01*
X126824932Y-83285887D01*
X126873000Y-83246439D01*
X126873000Y-83447394D01*
X125947394Y-84373000D01*
X103552606Y-84373000D01*
X99589803Y-80410197D01*
X99570557Y-80394403D01*
X99548601Y-80382667D01*
X99524776Y-80375440D01*
X99500000Y-80373000D01*
X93627000Y-80373000D01*
X93627000Y-80297000D01*
X101549872Y-80297000D01*
X103624947Y-82372075D01*
X103603000Y-82482408D01*
X103603000Y-82757592D01*
X103656686Y-83027490D01*
X103761995Y-83281727D01*
X103914880Y-83510535D01*
X104109465Y-83705120D01*
X104338273Y-83858005D01*
X104592510Y-83963314D01*
X104862408Y-84017000D01*
X105137592Y-84017000D01*
X105407490Y-83963314D01*
X105661727Y-83858005D01*
X105890535Y-83705120D01*
X106085120Y-83510535D01*
X106238005Y-83281727D01*
X106343314Y-83027490D01*
X106397000Y-82757592D01*
X106397000Y-82482408D01*
X106343314Y-82212510D01*
X106238005Y-81958273D01*
X106085120Y-81729465D01*
X105890535Y-81534880D01*
X105680724Y-81394688D01*
X105881355Y-81275178D01*
X106097588Y-81080269D01*
X106271641Y-80846920D01*
X106396825Y-80584099D01*
X106441476Y-80436890D01*
X106320155Y-80207000D01*
X105127000Y-80207000D01*
X105127000Y-80227000D01*
X104873000Y-80227000D01*
X104873000Y-80207000D01*
X104853000Y-80207000D01*
X104853000Y-79953000D01*
X104873000Y-79953000D01*
X104873000Y-79933000D01*
X105127000Y-79933000D01*
X105127000Y-79953000D01*
X106320155Y-79953000D01*
X106441476Y-79723110D01*
X106396825Y-79575901D01*
X106271641Y-79313080D01*
X106097588Y-79079731D01*
X105881355Y-78884822D01*
X105680724Y-78765312D01*
X105890535Y-78625120D01*
X106085120Y-78430535D01*
X106147618Y-78337000D01*
X123852382Y-78337000D01*
X123914880Y-78430535D01*
G37*
%TD.AperFunction*%
D25*
X103914880Y-78430535D02*
X104109465Y-78625120D01*
X104319276Y-78765312D01*
X104118645Y-78884822D01*
X103902412Y-79079731D01*
X103728359Y-79313080D01*
X103603175Y-79575901D01*
X103558524Y-79723110D01*
X103679844Y-79952998D01*
X103515000Y-79952998D01*
X103515000Y-80007872D01*
X102567128Y-79060000D01*
X103290129Y-78337000D01*
X103852382Y-78337000D01*
X103914880Y-78430535D01*
%TA.AperFunction,Conductor*%
D26*
G36*
X103914880Y-78430535D02*
G01*
X104109465Y-78625120D01*
X104319276Y-78765312D01*
X104118645Y-78884822D01*
X103902412Y-79079731D01*
X103728359Y-79313080D01*
X103603175Y-79575901D01*
X103558524Y-79723110D01*
X103679844Y-79952998D01*
X103515000Y-79952998D01*
X103515000Y-80007872D01*
X102567128Y-79060000D01*
X103290129Y-78337000D01*
X103852382Y-78337000D01*
X103914880Y-78430535D01*
G37*
%TD.AperFunction*%
D25*
X96200904Y-72380510D02*
X96225182Y-72417611D01*
X96230229Y-72423800D01*
X96354633Y-72574178D01*
X96391430Y-72610719D01*
X96427692Y-72647748D01*
X96433845Y-72652839D01*
X96585087Y-72776189D01*
X96619343Y-72798949D01*
X96910197Y-73089803D01*
X96929443Y-73105597D01*
X96951399Y-73117333D01*
X96975224Y-73124560D01*
X97000000Y-73127000D01*
X125947394Y-73127000D01*
X126873000Y-74052606D01*
X126873000Y-76743000D01*
X126147618Y-76743000D01*
X126085120Y-76649465D01*
X125917117Y-76481462D01*
X125974482Y-76475812D01*
X126094180Y-76439502D01*
X126204494Y-76380537D01*
X126301185Y-76301185D01*
X126380537Y-76204494D01*
X126439502Y-76094180D01*
X126475812Y-75974482D01*
X126488072Y-75850000D01*
X126485000Y-75285750D01*
X126326250Y-75127000D01*
X125127000Y-75127000D01*
X125127000Y-75147000D01*
X124873000Y-75147000D01*
X124873000Y-75127000D01*
X123673750Y-75127000D01*
X123515000Y-75285750D01*
X123511928Y-75850000D01*
X123524188Y-75974482D01*
X123560498Y-76094180D01*
X123619463Y-76204494D01*
X123698815Y-76301185D01*
X123795506Y-76380537D01*
X123905820Y-76439502D01*
X124025518Y-76475812D01*
X124082883Y-76481462D01*
X123914880Y-76649465D01*
X123852382Y-76743000D01*
X106147618Y-76743000D01*
X106085120Y-76649465D01*
X105917117Y-76481462D01*
X105974482Y-76475812D01*
X106094180Y-76439502D01*
X106204494Y-76380537D01*
X106301185Y-76301185D01*
X106380537Y-76204494D01*
X106439502Y-76094180D01*
X106475812Y-75974482D01*
X106488072Y-75850000D01*
X106485000Y-75285750D01*
X106326250Y-75127000D01*
X105127000Y-75127000D01*
X105127000Y-75147000D01*
X104873000Y-75147000D01*
X104873000Y-75127000D01*
X103673750Y-75127000D01*
X103515000Y-75285750D01*
X103511928Y-75850000D01*
X103524188Y-75974482D01*
X103560498Y-76094180D01*
X103619463Y-76204494D01*
X103698815Y-76301185D01*
X103795506Y-76380537D01*
X103905820Y-76439502D01*
X104025518Y-76475812D01*
X104082883Y-76481462D01*
X103914880Y-76649465D01*
X103852382Y-76743000D01*
X102999148Y-76743000D01*
X102960000Y-76739144D01*
X102920851Y-76743000D01*
X102920849Y-76743000D01*
X102803761Y-76754532D01*
X102653526Y-76800106D01*
X102589293Y-76834439D01*
X102515067Y-76874113D01*
X102424119Y-76948752D01*
X102393709Y-76973709D01*
X102368754Y-77004117D01*
X101369882Y-78002990D01*
X93627000Y-78002990D01*
X93627000Y-74150000D01*
X103511928Y-74150000D01*
X103515000Y-74714250D01*
X103673750Y-74873000D01*
X104873000Y-74873000D01*
X104873000Y-73673750D01*
X105127000Y-73673750D01*
X105127000Y-74873000D01*
X106326250Y-74873000D01*
X106485000Y-74714250D01*
X106488072Y-74150000D01*
X123511928Y-74150000D01*
X123515000Y-74714250D01*
X123673750Y-74873000D01*
X124873000Y-74873000D01*
X124873000Y-73673750D01*
X125127000Y-73673750D01*
X125127000Y-74873000D01*
X126326250Y-74873000D01*
X126485000Y-74714250D01*
X126488072Y-74150000D01*
X126475812Y-74025518D01*
X126439502Y-73905820D01*
X126380537Y-73795506D01*
X126301185Y-73698815D01*
X126204494Y-73619463D01*
X126094180Y-73560498D01*
X125974482Y-73524188D01*
X125850000Y-73511928D01*
X125285750Y-73515000D01*
X125127000Y-73673750D01*
X124873000Y-73673750D01*
X124714250Y-73515000D01*
X124150000Y-73511928D01*
X124025518Y-73524188D01*
X123905820Y-73560498D01*
X123795506Y-73619463D01*
X123698815Y-73698815D01*
X123619463Y-73795506D01*
X123560498Y-73905820D01*
X123524188Y-74025518D01*
X123511928Y-74150000D01*
X106488072Y-74150000D01*
X106475812Y-74025518D01*
X106439502Y-73905820D01*
X106380537Y-73795506D01*
X106301185Y-73698815D01*
X106204494Y-73619463D01*
X106094180Y-73560498D01*
X105974482Y-73524188D01*
X105850000Y-73511928D01*
X105285750Y-73515000D01*
X105127000Y-73673750D01*
X104873000Y-73673750D01*
X104714250Y-73515000D01*
X104150000Y-73511928D01*
X104025518Y-73524188D01*
X103905820Y-73560498D01*
X103795506Y-73619463D01*
X103698815Y-73698815D01*
X103619463Y-73795506D01*
X103560498Y-73905820D01*
X103524188Y-74025518D01*
X103511928Y-74150000D01*
X93627000Y-74150000D01*
X93627000Y-72127000D01*
X95947394Y-72127000D01*
X96200904Y-72380510D01*
%TA.AperFunction,Conductor*%
D26*
G36*
X96200904Y-72380510D02*
G01*
X96225182Y-72417611D01*
X96230229Y-72423800D01*
X96354633Y-72574178D01*
X96391430Y-72610719D01*
X96427692Y-72647748D01*
X96433845Y-72652839D01*
X96585087Y-72776189D01*
X96619343Y-72798949D01*
X96910197Y-73089803D01*
X96929443Y-73105597D01*
X96951399Y-73117333D01*
X96975224Y-73124560D01*
X97000000Y-73127000D01*
X125947394Y-73127000D01*
X126873000Y-74052606D01*
X126873000Y-76743000D01*
X126147618Y-76743000D01*
X126085120Y-76649465D01*
X125917117Y-76481462D01*
X125974482Y-76475812D01*
X126094180Y-76439502D01*
X126204494Y-76380537D01*
X126301185Y-76301185D01*
X126380537Y-76204494D01*
X126439502Y-76094180D01*
X126475812Y-75974482D01*
X126488072Y-75850000D01*
X126485000Y-75285750D01*
X126326250Y-75127000D01*
X125127000Y-75127000D01*
X125127000Y-75147000D01*
X124873000Y-75147000D01*
X124873000Y-75127000D01*
X123673750Y-75127000D01*
X123515000Y-75285750D01*
X123511928Y-75850000D01*
X123524188Y-75974482D01*
X123560498Y-76094180D01*
X123619463Y-76204494D01*
X123698815Y-76301185D01*
X123795506Y-76380537D01*
X123905820Y-76439502D01*
X124025518Y-76475812D01*
X124082883Y-76481462D01*
X123914880Y-76649465D01*
X123852382Y-76743000D01*
X106147618Y-76743000D01*
X106085120Y-76649465D01*
X105917117Y-76481462D01*
X105974482Y-76475812D01*
X106094180Y-76439502D01*
X106204494Y-76380537D01*
X106301185Y-76301185D01*
X106380537Y-76204494D01*
X106439502Y-76094180D01*
X106475812Y-75974482D01*
X106488072Y-75850000D01*
X106485000Y-75285750D01*
X106326250Y-75127000D01*
X105127000Y-75127000D01*
X105127000Y-75147000D01*
X104873000Y-75147000D01*
X104873000Y-75127000D01*
X103673750Y-75127000D01*
X103515000Y-75285750D01*
X103511928Y-75850000D01*
X103524188Y-75974482D01*
X103560498Y-76094180D01*
X103619463Y-76204494D01*
X103698815Y-76301185D01*
X103795506Y-76380537D01*
X103905820Y-76439502D01*
X104025518Y-76475812D01*
X104082883Y-76481462D01*
X103914880Y-76649465D01*
X103852382Y-76743000D01*
X102999148Y-76743000D01*
X102960000Y-76739144D01*
X102920851Y-76743000D01*
X102920849Y-76743000D01*
X102803761Y-76754532D01*
X102653526Y-76800106D01*
X102589293Y-76834439D01*
X102515067Y-76874113D01*
X102424119Y-76948752D01*
X102393709Y-76973709D01*
X102368754Y-77004117D01*
X101369882Y-78002990D01*
X93627000Y-78002990D01*
X93627000Y-74150000D01*
X103511928Y-74150000D01*
X103515000Y-74714250D01*
X103673750Y-74873000D01*
X104873000Y-74873000D01*
X104873000Y-73673750D01*
X105127000Y-73673750D01*
X105127000Y-74873000D01*
X106326250Y-74873000D01*
X106485000Y-74714250D01*
X106488072Y-74150000D01*
X123511928Y-74150000D01*
X123515000Y-74714250D01*
X123673750Y-74873000D01*
X124873000Y-74873000D01*
X124873000Y-73673750D01*
X125127000Y-73673750D01*
X125127000Y-74873000D01*
X126326250Y-74873000D01*
X126485000Y-74714250D01*
X126488072Y-74150000D01*
X126475812Y-74025518D01*
X126439502Y-73905820D01*
X126380537Y-73795506D01*
X126301185Y-73698815D01*
X126204494Y-73619463D01*
X126094180Y-73560498D01*
X125974482Y-73524188D01*
X125850000Y-73511928D01*
X125285750Y-73515000D01*
X125127000Y-73673750D01*
X124873000Y-73673750D01*
X124714250Y-73515000D01*
X124150000Y-73511928D01*
X124025518Y-73524188D01*
X123905820Y-73560498D01*
X123795506Y-73619463D01*
X123698815Y-73698815D01*
X123619463Y-73795506D01*
X123560498Y-73905820D01*
X123524188Y-74025518D01*
X123511928Y-74150000D01*
X106488072Y-74150000D01*
X106475812Y-74025518D01*
X106439502Y-73905820D01*
X106380537Y-73795506D01*
X106301185Y-73698815D01*
X106204494Y-73619463D01*
X106094180Y-73560498D01*
X105974482Y-73524188D01*
X105850000Y-73511928D01*
X105285750Y-73515000D01*
X105127000Y-73673750D01*
X104873000Y-73673750D01*
X104714250Y-73515000D01*
X104150000Y-73511928D01*
X104025518Y-73524188D01*
X103905820Y-73560498D01*
X103795506Y-73619463D01*
X103698815Y-73698815D01*
X103619463Y-73795506D01*
X103560498Y-73905820D01*
X103524188Y-74025518D01*
X103511928Y-74150000D01*
X93627000Y-74150000D01*
X93627000Y-72127000D01*
X95947394Y-72127000D01*
X96200904Y-72380510D01*
G37*
%TD.AperFunction*%
%TD*%
M02*
