%TF.GenerationSoftware,KiCad,Pcbnew,(5.1.9)-1*%
%TF.CreationDate,2021-03-12T00:34:36-05:00*%
%TF.ProjectId,SummingBoard,53756d6d-696e-4674-926f-6172642e6b69,rev?*%
%TF.SameCoordinates,Original*%
%TF.FileFunction,Legend,Top*%
%TF.FilePolarity,Positive*%
%FSLAX46Y46*%
G04 Gerber Fmt 4.6, Leading zero omitted, Abs format (unit mm)*
G04 Created by KiCad (PCBNEW (5.1.9)-1) date 2021-03-12 00:34:36*
%MOMM*%
%LPD*%
G01*
G04 APERTURE LIST*
%ADD10C,0.150000*%
%ADD11C,0.300000*%
%ADD12C,0.120000*%
%TA.AperFunction,Profile*%
%ADD13C,0.050000*%
%TD*%
G04 APERTURE END LIST*
D10*
X135878087Y-72682148D02*
X135878087Y-72614805D01*
X135911759Y-72513790D01*
X136080118Y-72345431D01*
X136181133Y-72311759D01*
X136248477Y-72311759D01*
X136349492Y-72345431D01*
X136416835Y-72412774D01*
X136484179Y-72547461D01*
X136484179Y-73355583D01*
X136921912Y-72917851D01*
D11*
X129078679Y-77931472D02*
X129078679Y-78066159D01*
X128943992Y-78335533D01*
X128809305Y-78470220D01*
X128539931Y-78604907D01*
X128270557Y-78604907D01*
X128068527Y-78537564D01*
X127731809Y-78335533D01*
X127529779Y-78133503D01*
X127327748Y-77796785D01*
X127260405Y-77594755D01*
X127260405Y-77325381D01*
X127395092Y-77056007D01*
X127529779Y-76921320D01*
X127799153Y-76786633D01*
X127933840Y-76786633D01*
X130425549Y-76853976D02*
X129684771Y-76113198D01*
X129482740Y-76045854D01*
X129280710Y-76113198D01*
X129011336Y-76382572D01*
X128943992Y-76584602D01*
X130358206Y-76786633D02*
X130290862Y-76988663D01*
X129954145Y-77325381D01*
X129752114Y-77392724D01*
X129550084Y-77325381D01*
X129415397Y-77190694D01*
X129348053Y-76988663D01*
X129415397Y-76786633D01*
X129752114Y-76449915D01*
X129819458Y-76247885D01*
X132041793Y-76315228D02*
X131907106Y-76315228D01*
X131570389Y-76247885D01*
X131368358Y-76180541D01*
X131098984Y-76045854D01*
X130694923Y-75776480D01*
X130425549Y-75507106D01*
X130156175Y-75103045D01*
X130021488Y-74833671D01*
X129954145Y-74631641D01*
X129886801Y-74294923D01*
X129886801Y-74160236D01*
X130896954Y-73554145D02*
X131166328Y-73284771D01*
X131368358Y-73217427D01*
X131637732Y-73217427D01*
X131974450Y-73419458D01*
X132445854Y-73890862D01*
X132647885Y-74227580D01*
X132647885Y-74496954D01*
X132580541Y-74698984D01*
X132311167Y-74968358D01*
X132109137Y-75035702D01*
X131839763Y-75035702D01*
X131503045Y-74833671D01*
X131031641Y-74362267D01*
X130829610Y-74025549D01*
X130829610Y-73756175D01*
X130896954Y-73554145D01*
X133523350Y-73756175D02*
X132109137Y-72341962D01*
X132782572Y-73015397D02*
X133590694Y-72207275D01*
X134331472Y-72948053D02*
X132917259Y-71533840D01*
X135408968Y-72948053D02*
X135408968Y-72813366D01*
X135341625Y-72476649D01*
X135274281Y-72274618D01*
X135139594Y-72005244D01*
X134870220Y-71601183D01*
X134600846Y-71331809D01*
X134196785Y-71062435D01*
X133927411Y-70927748D01*
X133725381Y-70860405D01*
X133388663Y-70793061D01*
X133253976Y-70793061D01*
D12*
X78661904Y-84695238D02*
X79233333Y-84695238D01*
X79347619Y-84733333D01*
X79423809Y-84809523D01*
X79461904Y-84923809D01*
X79461904Y-85000000D01*
X79461904Y-83933333D02*
X79461904Y-84314285D01*
X78661904Y-84314285D01*
X79385714Y-83209523D02*
X79423809Y-83247619D01*
X79461904Y-83361904D01*
X79461904Y-83438095D01*
X79423809Y-83552380D01*
X79347619Y-83628571D01*
X79271428Y-83666666D01*
X79119047Y-83704761D01*
X79004761Y-83704761D01*
X78852380Y-83666666D01*
X78776190Y-83628571D01*
X78700000Y-83552380D01*
X78661904Y-83438095D01*
X78661904Y-83361904D01*
X78700000Y-83247619D01*
X78738095Y-83209523D01*
X78661904Y-82638095D02*
X79233333Y-82638095D01*
X79347619Y-82676190D01*
X79423809Y-82752380D01*
X79461904Y-82866666D01*
X79461904Y-82942857D01*
X79461904Y-81876190D02*
X79461904Y-82257142D01*
X78661904Y-82257142D01*
X79385714Y-81152380D02*
X79423809Y-81190476D01*
X79461904Y-81304761D01*
X79461904Y-81380952D01*
X79423809Y-81495238D01*
X79347619Y-81571428D01*
X79271428Y-81609523D01*
X79119047Y-81647619D01*
X79004761Y-81647619D01*
X78852380Y-81609523D01*
X78776190Y-81571428D01*
X78700000Y-81495238D01*
X78661904Y-81380952D01*
X78661904Y-81304761D01*
X78700000Y-81190476D01*
X78738095Y-81152380D01*
X78661904Y-80580952D02*
X79233333Y-80580952D01*
X79347619Y-80619047D01*
X79423809Y-80695238D01*
X79461904Y-80809523D01*
X79461904Y-80885714D01*
X79461904Y-79819047D02*
X79461904Y-80200000D01*
X78661904Y-80200000D01*
X79385714Y-79095238D02*
X79423809Y-79133333D01*
X79461904Y-79247619D01*
X79461904Y-79323809D01*
X79423809Y-79438095D01*
X79347619Y-79514285D01*
X79271428Y-79552380D01*
X79119047Y-79590476D01*
X79004761Y-79590476D01*
X78852380Y-79552380D01*
X78776190Y-79514285D01*
X78700000Y-79438095D01*
X78661904Y-79323809D01*
X78661904Y-79247619D01*
X78700000Y-79133333D01*
X78738095Y-79095238D01*
X78661904Y-78523809D02*
X79233333Y-78523809D01*
X79347619Y-78561904D01*
X79423809Y-78638095D01*
X79461904Y-78752380D01*
X79461904Y-78828571D01*
X79461904Y-77761904D02*
X79461904Y-78142857D01*
X78661904Y-78142857D01*
X79385714Y-77038095D02*
X79423809Y-77076190D01*
X79461904Y-77190476D01*
X79461904Y-77266666D01*
X79423809Y-77380952D01*
X79347619Y-77457142D01*
X79271428Y-77495238D01*
X79119047Y-77533333D01*
X79004761Y-77533333D01*
X78852380Y-77495238D01*
X78776190Y-77457142D01*
X78700000Y-77380952D01*
X78661904Y-77266666D01*
X78661904Y-77190476D01*
X78700000Y-77076190D01*
X78738095Y-77038095D01*
D10*
X114033333Y-81961904D02*
X114300000Y-82761904D01*
X114566666Y-81961904D01*
X115290476Y-82685714D02*
X115252380Y-82723809D01*
X115138095Y-82761904D01*
X115061904Y-82761904D01*
X114947619Y-82723809D01*
X114871428Y-82647619D01*
X114833333Y-82571428D01*
X114795238Y-82419047D01*
X114795238Y-82304761D01*
X114833333Y-82152380D01*
X114871428Y-82076190D01*
X114947619Y-82000000D01*
X115061904Y-81961904D01*
X115138095Y-81961904D01*
X115252380Y-82000000D01*
X115290476Y-82038095D01*
X116090476Y-82685714D02*
X116052380Y-82723809D01*
X115938095Y-82761904D01*
X115861904Y-82761904D01*
X115747619Y-82723809D01*
X115671428Y-82647619D01*
X115633333Y-82571428D01*
X115595238Y-82419047D01*
X115595238Y-82304761D01*
X115633333Y-82152380D01*
X115671428Y-82076190D01*
X115747619Y-82000000D01*
X115861904Y-81961904D01*
X115938095Y-81961904D01*
X116052380Y-82000000D01*
X116090476Y-82038095D01*
X132261904Y-62990476D02*
X133061904Y-62723809D01*
X132261904Y-62457142D01*
X132642857Y-62190476D02*
X132642857Y-61923809D01*
X133061904Y-61809523D02*
X133061904Y-62190476D01*
X132261904Y-62190476D01*
X132261904Y-61809523D01*
X132642857Y-61466666D02*
X132642857Y-61200000D01*
X133061904Y-61085714D02*
X133061904Y-61466666D01*
X132261904Y-61466666D01*
X132261904Y-61085714D01*
X111295238Y-62533333D02*
X111676190Y-62533333D01*
X111219047Y-62761904D02*
X111485714Y-61961904D01*
X111752380Y-62761904D01*
X112361904Y-62228571D02*
X112361904Y-62761904D01*
X112019047Y-62228571D02*
X112019047Y-62647619D01*
X112057142Y-62723809D01*
X112133333Y-62761904D01*
X112247619Y-62761904D01*
X112323809Y-62723809D01*
X112361904Y-62685714D01*
X113085714Y-62761904D02*
X113085714Y-61961904D01*
X113085714Y-62723809D02*
X113009523Y-62761904D01*
X112857142Y-62761904D01*
X112780952Y-62723809D01*
X112742857Y-62685714D01*
X112704761Y-62609523D01*
X112704761Y-62380952D01*
X112742857Y-62304761D01*
X112780952Y-62266666D01*
X112857142Y-62228571D01*
X113009523Y-62228571D01*
X113085714Y-62266666D01*
X113466666Y-62761904D02*
X113466666Y-62228571D01*
X113466666Y-61961904D02*
X113428571Y-62000000D01*
X113466666Y-62038095D01*
X113504761Y-62000000D01*
X113466666Y-61961904D01*
X113466666Y-62038095D01*
X113961904Y-62761904D02*
X113885714Y-62723809D01*
X113847619Y-62685714D01*
X113809523Y-62609523D01*
X113809523Y-62380952D01*
X113847619Y-62304761D01*
X113885714Y-62266666D01*
X113961904Y-62228571D01*
X114076190Y-62228571D01*
X114152380Y-62266666D01*
X114190476Y-62304761D01*
X114228571Y-62380952D01*
X114228571Y-62609523D01*
X114190476Y-62685714D01*
X114152380Y-62723809D01*
X114076190Y-62761904D01*
X113961904Y-62761904D01*
X114571428Y-62457142D02*
X115180952Y-62457142D01*
X116019047Y-62761904D02*
X115752380Y-62380952D01*
X115561904Y-62761904D02*
X115561904Y-61961904D01*
X115866666Y-61961904D01*
X115942857Y-62000000D01*
X115980952Y-62038095D01*
X116019047Y-62114285D01*
X116019047Y-62228571D01*
X115980952Y-62304761D01*
X115942857Y-62342857D01*
X115866666Y-62380952D01*
X115561904Y-62380952D01*
X116361904Y-62761904D02*
X116361904Y-62228571D01*
X116361904Y-61961904D02*
X116323809Y-62000000D01*
X116361904Y-62038095D01*
X116400000Y-62000000D01*
X116361904Y-61961904D01*
X116361904Y-62038095D01*
X117085714Y-62228571D02*
X117085714Y-62876190D01*
X117047619Y-62952380D01*
X117009523Y-62990476D01*
X116933333Y-63028571D01*
X116819047Y-63028571D01*
X116742857Y-62990476D01*
X117085714Y-62723809D02*
X117009523Y-62761904D01*
X116857142Y-62761904D01*
X116780952Y-62723809D01*
X116742857Y-62685714D01*
X116704761Y-62609523D01*
X116704761Y-62380952D01*
X116742857Y-62304761D01*
X116780952Y-62266666D01*
X116857142Y-62228571D01*
X117009523Y-62228571D01*
X117085714Y-62266666D01*
X117466666Y-62761904D02*
X117466666Y-61961904D01*
X117809523Y-62761904D02*
X117809523Y-62342857D01*
X117771428Y-62266666D01*
X117695238Y-62228571D01*
X117580952Y-62228571D01*
X117504761Y-62266666D01*
X117466666Y-62304761D01*
X118076190Y-62228571D02*
X118380952Y-62228571D01*
X118190476Y-61961904D02*
X118190476Y-62647619D01*
X118228571Y-62723809D01*
X118304761Y-62761904D01*
X118380952Y-62761904D01*
X132300000Y-59809523D02*
X132261904Y-59885714D01*
X132261904Y-60000000D01*
X132300000Y-60114285D01*
X132376190Y-60190476D01*
X132452380Y-60228571D01*
X132604761Y-60266666D01*
X132719047Y-60266666D01*
X132871428Y-60228571D01*
X132947619Y-60190476D01*
X133023809Y-60114285D01*
X133061904Y-60000000D01*
X133061904Y-59923809D01*
X133023809Y-59809523D01*
X132985714Y-59771428D01*
X132719047Y-59771428D01*
X132719047Y-59923809D01*
X133061904Y-59428571D02*
X132261904Y-59428571D01*
X133061904Y-58971428D01*
X132261904Y-58971428D01*
X133061904Y-58590476D02*
X132261904Y-58590476D01*
X132261904Y-58400000D01*
X132300000Y-58285714D01*
X132376190Y-58209523D01*
X132452380Y-58171428D01*
X132604761Y-58133333D01*
X132719047Y-58133333D01*
X132871428Y-58171428D01*
X132947619Y-58209523D01*
X133023809Y-58285714D01*
X133061904Y-58400000D01*
X133061904Y-58590476D01*
X132261904Y-69266666D02*
X133061904Y-69000000D01*
X132261904Y-68733333D01*
X132985714Y-68009523D02*
X133023809Y-68047619D01*
X133061904Y-68161904D01*
X133061904Y-68238095D01*
X133023809Y-68352380D01*
X132947619Y-68428571D01*
X132871428Y-68466666D01*
X132719047Y-68504761D01*
X132604761Y-68504761D01*
X132452380Y-68466666D01*
X132376190Y-68428571D01*
X132300000Y-68352380D01*
X132261904Y-68238095D01*
X132261904Y-68161904D01*
X132300000Y-68047619D01*
X132338095Y-68009523D01*
X132985714Y-67209523D02*
X133023809Y-67247619D01*
X133061904Y-67361904D01*
X133061904Y-67438095D01*
X133023809Y-67552380D01*
X132947619Y-67628571D01*
X132871428Y-67666666D01*
X132719047Y-67704761D01*
X132604761Y-67704761D01*
X132452380Y-67666666D01*
X132376190Y-67628571D01*
X132300000Y-67552380D01*
X132261904Y-67438095D01*
X132261904Y-67361904D01*
X132300000Y-67247619D01*
X132338095Y-67209523D01*
X132300000Y-65709523D02*
X132261904Y-65785714D01*
X132261904Y-65900000D01*
X132300000Y-66014285D01*
X132376190Y-66090476D01*
X132452380Y-66128571D01*
X132604761Y-66166666D01*
X132719047Y-66166666D01*
X132871428Y-66128571D01*
X132947619Y-66090476D01*
X133023809Y-66014285D01*
X133061904Y-65900000D01*
X133061904Y-65823809D01*
X133023809Y-65709523D01*
X132985714Y-65671428D01*
X132719047Y-65671428D01*
X132719047Y-65823809D01*
X133061904Y-65328571D02*
X132261904Y-65328571D01*
X133061904Y-64871428D01*
X132261904Y-64871428D01*
X133061904Y-64490476D02*
X132261904Y-64490476D01*
X132261904Y-64300000D01*
X132300000Y-64185714D01*
X132376190Y-64109523D01*
X132452380Y-64071428D01*
X132604761Y-64033333D01*
X132719047Y-64033333D01*
X132871428Y-64071428D01*
X132947619Y-64109523D01*
X133023809Y-64185714D01*
X133061904Y-64300000D01*
X133061904Y-64490476D01*
D13*
X97000000Y-57000000D02*
X136500000Y-57000000D01*
X94500000Y-54500000D02*
X97000000Y-57000000D01*
X66500000Y-54500000D02*
X94500000Y-54500000D01*
X138000000Y-58500000D02*
X136500000Y-57000000D01*
X138000000Y-74500000D02*
X138000000Y-58500000D01*
X126500000Y-86000000D02*
X138000000Y-74500000D01*
X98000000Y-86000000D02*
X126500000Y-86000000D01*
X96500000Y-87500000D02*
X98000000Y-86000000D01*
X96500000Y-97000000D02*
X96500000Y-87500000D01*
X92500000Y-101000000D02*
X96500000Y-97000000D01*
X86500000Y-101000000D02*
X92500000Y-101000000D01*
X82500000Y-101000000D02*
X86500000Y-101000000D01*
X82500000Y-99500000D02*
X82500000Y-101000000D01*
X78500000Y-99500000D02*
X82500000Y-99500000D01*
X78500000Y-101000000D02*
X78500000Y-99500000D01*
X68500000Y-101000000D02*
X78500000Y-101000000D01*
X64500000Y-97000000D02*
X68500000Y-101000000D01*
X64500000Y-56500000D02*
X64500000Y-97000000D01*
X64500000Y-56500000D02*
X66500000Y-54500000D01*
X110500000Y-72500000D02*
X115000000Y-72500000D01*
X115000000Y-70500000D02*
X110500000Y-70500000D01*
X115000000Y-70500000D02*
G75*
G02*
X115000000Y-72500000I0J-1000000D01*
G01*
X110500000Y-72500000D02*
G75*
G02*
X110500000Y-70500000I0J1000000D01*
G01*
X130000000Y-67500000D02*
X130000000Y-60000000D01*
X128000000Y-60000000D02*
X128000000Y-67500000D01*
X128000000Y-60000000D02*
G75*
G02*
X130000000Y-60000000I1000000J0D01*
G01*
X130000000Y-67500000D02*
G75*
G02*
X128000000Y-67500000I-1000000J0D01*
G01*
X119500000Y-72500000D02*
X126000000Y-72500000D01*
X119500000Y-70500000D02*
X126000000Y-70500000D01*
X106000000Y-72500000D02*
X97500000Y-72500000D01*
X97500000Y-70500000D02*
X106000000Y-70500000D01*
X97500000Y-72500000D02*
G75*
G02*
X97500000Y-70500000I0J1000000D01*
G01*
X106000000Y-70500000D02*
G75*
G02*
X106000000Y-72500000I0J-1000000D01*
G01*
X126000000Y-70500000D02*
G75*
G02*
X126000000Y-72500000I0J-1000000D01*
G01*
X119500000Y-72500000D02*
G75*
G02*
X119500000Y-70500000I0J1000000D01*
G01*
X67500000Y-82000000D02*
G75*
G02*
X67500000Y-81000000I0J500000D01*
G01*
X93500000Y-81000000D02*
G75*
G02*
X93500000Y-82000000I0J-500000D01*
G01*
X83500000Y-82000000D02*
G75*
G02*
X83500000Y-81000000I0J500000D01*
G01*
X77500000Y-81000000D02*
G75*
G02*
X77500000Y-82000000I0J-500000D01*
G01*
X67500000Y-81000000D02*
X77500000Y-81000000D01*
X77500000Y-82000000D02*
X67500000Y-82000000D01*
X93500000Y-82000000D02*
X83500000Y-82000000D01*
X83500000Y-81000000D02*
X93500000Y-81000000D01*
D12*
%TO.C,U1*%
X75360000Y-68136500D02*
X85640000Y-68136500D01*
X75360000Y-57736500D02*
X75360000Y-68136500D01*
X85640000Y-57736500D02*
X75360000Y-57736500D01*
X85640000Y-68136500D02*
X85640000Y-57736500D01*
X77850000Y-68076500D02*
X79500000Y-68076500D01*
X77850000Y-57796500D02*
X77850000Y-68076500D01*
X83150000Y-57796500D02*
X77850000Y-57796500D01*
X83150000Y-68076500D02*
X83150000Y-57796500D01*
X81500000Y-68076500D02*
X83150000Y-68076500D01*
X79500000Y-68076500D02*
G75*
G02*
X81500000Y-68076500I1000000J0D01*
G01*
D10*
%TO.C,T2*%
X80000000Y-88000000D02*
X80000000Y-74000000D01*
X65000000Y-88000000D02*
X80000000Y-88000000D01*
X65000000Y-88000000D02*
X65000000Y-74000000D01*
X65000000Y-74000000D02*
X80000000Y-74000000D01*
X67500000Y-81500000D02*
X77500000Y-81500000D01*
X67500000Y-80500000D02*
X77500000Y-80500000D01*
X69000000Y-82800000D02*
X69000000Y-85000000D01*
X76000000Y-82800000D02*
X76000000Y-85000000D01*
X76000000Y-77000000D02*
X76000000Y-79200000D01*
X69000000Y-77000000D02*
X69000000Y-79200000D01*
D11*
X68600000Y-83000000D02*
G75*
G03*
X68600000Y-83000000I-100000J0D01*
G01*
X76600000Y-79000000D02*
G75*
G03*
X76600000Y-79000000I-100000J0D01*
G01*
D10*
X74600000Y-79200000D02*
G75*
G03*
X76000000Y-79200000I700000J200000D01*
G01*
X73200000Y-79200000D02*
G75*
G03*
X74600000Y-79200000I700000J200000D01*
G01*
X70400000Y-79200000D02*
G75*
G03*
X71800000Y-79200000I700000J200000D01*
G01*
X71800000Y-79200000D02*
G75*
G03*
X73200000Y-79200000I700000J200000D01*
G01*
X69000000Y-79200000D02*
G75*
G03*
X70400000Y-79200000I700000J200000D01*
G01*
X69000000Y-82800000D02*
G75*
G02*
X70400000Y-82800000I700000J-200000D01*
G01*
X70400000Y-82800000D02*
G75*
G02*
X71800000Y-82800000I700000J-200000D01*
G01*
X71800000Y-82800000D02*
G75*
G02*
X73200000Y-82800000I700000J-200000D01*
G01*
X73200000Y-82800000D02*
G75*
G02*
X74600000Y-82800000I700000J-200000D01*
G01*
X74600000Y-82800000D02*
G75*
G02*
X76000000Y-82800000I700000J-200000D01*
G01*
%TO.C,T1*%
X96000000Y-88000000D02*
X96000000Y-74000000D01*
X81000000Y-88000000D02*
X96000000Y-88000000D01*
X81000000Y-88000000D02*
X81000000Y-74000000D01*
X81000000Y-74000000D02*
X96000000Y-74000000D01*
X83500000Y-81500000D02*
X93500000Y-81500000D01*
X83500000Y-80500000D02*
X93500000Y-80500000D01*
X85000000Y-82800000D02*
X85000000Y-85000000D01*
X92000000Y-82800000D02*
X92000000Y-85000000D01*
X92000000Y-77000000D02*
X92000000Y-79200000D01*
X85000000Y-77000000D02*
X85000000Y-79200000D01*
D11*
X84600000Y-83000000D02*
G75*
G03*
X84600000Y-83000000I-100000J0D01*
G01*
X92600000Y-79000000D02*
G75*
G03*
X92600000Y-79000000I-100000J0D01*
G01*
D10*
X90600000Y-79200000D02*
G75*
G03*
X92000000Y-79200000I700000J200000D01*
G01*
X89200000Y-79200000D02*
G75*
G03*
X90600000Y-79200000I700000J200000D01*
G01*
X86400000Y-79200000D02*
G75*
G03*
X87800000Y-79200000I700000J200000D01*
G01*
X87800000Y-79200000D02*
G75*
G03*
X89200000Y-79200000I700000J200000D01*
G01*
X85000000Y-79200000D02*
G75*
G03*
X86400000Y-79200000I700000J200000D01*
G01*
X85000000Y-82800000D02*
G75*
G02*
X86400000Y-82800000I700000J-200000D01*
G01*
X86400000Y-82800000D02*
G75*
G02*
X87800000Y-82800000I700000J-200000D01*
G01*
X87800000Y-82800000D02*
G75*
G02*
X89200000Y-82800000I700000J-200000D01*
G01*
X89200000Y-82800000D02*
G75*
G02*
X90600000Y-82800000I700000J-200000D01*
G01*
X90600000Y-82800000D02*
G75*
G02*
X92000000Y-82800000I700000J-200000D01*
G01*
D12*
%TO.C,Ro4*%
X72000000Y-69040000D02*
X72000000Y-69000000D01*
X72860000Y-69900000D02*
G75*
G03*
X72860000Y-69900000I-860000J0D01*
G01*
%TO.C,Ro3*%
X89000000Y-69040000D02*
X89000000Y-69000000D01*
X89860000Y-69900000D02*
G75*
G03*
X89860000Y-69900000I-860000J0D01*
G01*
%TO.C,Rf7*%
X72000000Y-63346500D02*
X72000000Y-63306500D01*
X72860000Y-64206500D02*
G75*
G03*
X72860000Y-64206500I-860000J0D01*
G01*
%TO.C,Rf6*%
X89000000Y-63346500D02*
X89000000Y-63306500D01*
X89860000Y-64206500D02*
G75*
G03*
X89860000Y-64206500I-860000J0D01*
G01*
D10*
%TO.C,J6*%
X74500000Y-101000000D02*
X74500000Y-88800000D01*
X74500000Y-88800000D02*
X86500000Y-88800000D01*
X78500000Y-99500000D02*
X78500000Y-101000000D01*
X74500000Y-101000000D02*
X78500000Y-101000000D01*
X86500000Y-101000000D02*
X86500000Y-88800000D01*
X82500000Y-99500000D02*
X82500000Y-101000000D01*
X86500000Y-101000000D02*
X82500000Y-101000000D01*
X78500000Y-99500000D02*
X82500000Y-99500000D01*
D12*
%TO.C,J5*%
X123670000Y-73670000D02*
X125000000Y-73670000D01*
X123670000Y-75000000D02*
X123670000Y-73670000D01*
X126330000Y-76270000D02*
X123670000Y-76270000D01*
X126330000Y-83950000D02*
X126330000Y-76270000D01*
X123670000Y-83950000D02*
X126330000Y-83950000D01*
X123670000Y-76270000D02*
X123670000Y-83950000D01*
%TO.C,J4*%
X126330000Y-68830000D02*
X125000000Y-68830000D01*
X126330000Y-67500000D02*
X126330000Y-68830000D01*
X123670000Y-66230000D02*
X126330000Y-66230000D01*
X123670000Y-58550000D02*
X123670000Y-66230000D01*
X126330000Y-58550000D02*
X123670000Y-58550000D01*
X126330000Y-66230000D02*
X126330000Y-58550000D01*
%TO.C,J3*%
X103670000Y-73670000D02*
X105000000Y-73670000D01*
X103670000Y-75000000D02*
X103670000Y-73670000D01*
X106330000Y-76270000D02*
X103670000Y-76270000D01*
X106330000Y-83950000D02*
X106330000Y-76270000D01*
X103670000Y-83950000D02*
X106330000Y-83950000D01*
X103670000Y-76270000D02*
X103670000Y-83950000D01*
%TO.C,J2*%
X106330000Y-68830000D02*
X105000000Y-68830000D01*
X106330000Y-67500000D02*
X106330000Y-68830000D01*
X103670000Y-66230000D02*
X106330000Y-66230000D01*
X103670000Y-58550000D02*
X103670000Y-66230000D01*
X106330000Y-58550000D02*
X103670000Y-58550000D01*
X106330000Y-66230000D02*
X106330000Y-58550000D01*
%TO.C,J1*%
X133670000Y-58550000D02*
X135000000Y-58550000D01*
X133670000Y-59880000D02*
X133670000Y-58550000D01*
X136330000Y-61150000D02*
X133670000Y-61150000D01*
X136330000Y-68830000D02*
X136330000Y-61150000D01*
X133670000Y-68830000D02*
X136330000Y-68830000D01*
X133670000Y-61150000D02*
X133670000Y-68830000D01*
%TO.C,C4*%
X81290000Y-70250000D02*
X81290000Y-69640000D01*
X81290000Y-72360000D02*
X81290000Y-71750000D01*
X85210000Y-70250000D02*
X85210000Y-69640000D01*
X85210000Y-72360000D02*
X85210000Y-71750000D01*
X85210000Y-69640000D02*
X81290000Y-69640000D01*
X85210000Y-72360000D02*
X81290000Y-72360000D01*
%TO.C,C3*%
X75790000Y-70250000D02*
X75790000Y-69640000D01*
X75790000Y-72360000D02*
X75790000Y-71750000D01*
X79710000Y-70250000D02*
X79710000Y-69640000D01*
X79710000Y-72360000D02*
X79710000Y-71750000D01*
X79710000Y-69640000D02*
X75790000Y-69640000D01*
X79710000Y-72360000D02*
X75790000Y-72360000D01*
%TD*%
%TO.C,U1*%
X79890476Y-63061904D02*
X79890476Y-63709523D01*
X79928571Y-63785714D01*
X79966666Y-63823809D01*
X80042857Y-63861904D01*
X80195238Y-63861904D01*
X80271428Y-63823809D01*
X80309523Y-63785714D01*
X80347619Y-63709523D01*
X80347619Y-63061904D01*
X81147619Y-63861904D02*
X80690476Y-63861904D01*
X80919047Y-63861904D02*
X80919047Y-63061904D01*
X80842857Y-63176190D01*
X80766666Y-63252380D01*
X80690476Y-63290476D01*
X78804761Y-61561904D02*
X79261904Y-61561904D01*
X79033333Y-62361904D02*
X79033333Y-61561904D01*
X79909523Y-62361904D02*
X79528571Y-62361904D01*
X79528571Y-61561904D01*
X80328571Y-61561904D02*
X80404761Y-61561904D01*
X80480952Y-61600000D01*
X80519047Y-61638095D01*
X80557142Y-61714285D01*
X80595238Y-61866666D01*
X80595238Y-62057142D01*
X80557142Y-62209523D01*
X80519047Y-62285714D01*
X80480952Y-62323809D01*
X80404761Y-62361904D01*
X80328571Y-62361904D01*
X80252380Y-62323809D01*
X80214285Y-62285714D01*
X80176190Y-62209523D01*
X80138095Y-62057142D01*
X80138095Y-61866666D01*
X80176190Y-61714285D01*
X80214285Y-61638095D01*
X80252380Y-61600000D01*
X80328571Y-61561904D01*
X81052380Y-61904761D02*
X80976190Y-61866666D01*
X80938095Y-61828571D01*
X80900000Y-61752380D01*
X80900000Y-61714285D01*
X80938095Y-61638095D01*
X80976190Y-61600000D01*
X81052380Y-61561904D01*
X81204761Y-61561904D01*
X81280952Y-61600000D01*
X81319047Y-61638095D01*
X81357142Y-61714285D01*
X81357142Y-61752380D01*
X81319047Y-61828571D01*
X81280952Y-61866666D01*
X81204761Y-61904761D01*
X81052380Y-61904761D01*
X80976190Y-61942857D01*
X80938095Y-61980952D01*
X80900000Y-62057142D01*
X80900000Y-62209523D01*
X80938095Y-62285714D01*
X80976190Y-62323809D01*
X81052380Y-62361904D01*
X81204761Y-62361904D01*
X81280952Y-62323809D01*
X81319047Y-62285714D01*
X81357142Y-62209523D01*
X81357142Y-62057142D01*
X81319047Y-61980952D01*
X81280952Y-61942857D01*
X81204761Y-61904761D01*
X81661904Y-61638095D02*
X81700000Y-61600000D01*
X81776190Y-61561904D01*
X81966666Y-61561904D01*
X82042857Y-61600000D01*
X82080952Y-61638095D01*
X82119047Y-61714285D01*
X82119047Y-61790476D01*
X82080952Y-61904761D01*
X81623809Y-62361904D01*
X82119047Y-62361904D01*
%TO.C,T2*%
X71990476Y-84961904D02*
X72447619Y-84961904D01*
X72219047Y-85761904D02*
X72219047Y-84961904D01*
X72676190Y-85038095D02*
X72714285Y-85000000D01*
X72790476Y-84961904D01*
X72980952Y-84961904D01*
X73057142Y-85000000D01*
X73095238Y-85038095D01*
X73133333Y-85114285D01*
X73133333Y-85190476D01*
X73095238Y-85304761D01*
X72638095Y-85761904D01*
X73133333Y-85761904D01*
X70238095Y-87661904D02*
X70238095Y-87242857D01*
X70200000Y-87166666D01*
X70123809Y-87128571D01*
X69971428Y-87128571D01*
X69895238Y-87166666D01*
X70238095Y-87623809D02*
X70161904Y-87661904D01*
X69971428Y-87661904D01*
X69895238Y-87623809D01*
X69857142Y-87547619D01*
X69857142Y-87471428D01*
X69895238Y-87395238D01*
X69971428Y-87357142D01*
X70161904Y-87357142D01*
X70238095Y-87319047D01*
X70961904Y-87128571D02*
X70961904Y-87661904D01*
X70619047Y-87128571D02*
X70619047Y-87547619D01*
X70657142Y-87623809D01*
X70733333Y-87661904D01*
X70847619Y-87661904D01*
X70923809Y-87623809D01*
X70961904Y-87585714D01*
X71685714Y-87661904D02*
X71685714Y-86861904D01*
X71685714Y-87623809D02*
X71609523Y-87661904D01*
X71457142Y-87661904D01*
X71380952Y-87623809D01*
X71342857Y-87585714D01*
X71304761Y-87509523D01*
X71304761Y-87280952D01*
X71342857Y-87204761D01*
X71380952Y-87166666D01*
X71457142Y-87128571D01*
X71609523Y-87128571D01*
X71685714Y-87166666D01*
X72066666Y-87661904D02*
X72066666Y-87128571D01*
X72066666Y-86861904D02*
X72028571Y-86900000D01*
X72066666Y-86938095D01*
X72104761Y-86900000D01*
X72066666Y-86861904D01*
X72066666Y-86938095D01*
X72561904Y-87661904D02*
X72485714Y-87623809D01*
X72447619Y-87585714D01*
X72409523Y-87509523D01*
X72409523Y-87280952D01*
X72447619Y-87204761D01*
X72485714Y-87166666D01*
X72561904Y-87128571D01*
X72676190Y-87128571D01*
X72752380Y-87166666D01*
X72790476Y-87204761D01*
X72828571Y-87280952D01*
X72828571Y-87509523D01*
X72790476Y-87585714D01*
X72752380Y-87623809D01*
X72676190Y-87661904D01*
X72561904Y-87661904D01*
X74200000Y-87661904D02*
X73742857Y-87661904D01*
X73971428Y-87661904D02*
X73971428Y-86861904D01*
X73895238Y-86976190D01*
X73819047Y-87052380D01*
X73742857Y-87090476D01*
X74542857Y-87585714D02*
X74580952Y-87623809D01*
X74542857Y-87661904D01*
X74504761Y-87623809D01*
X74542857Y-87585714D01*
X74542857Y-87661904D01*
X74542857Y-87166666D02*
X74580952Y-87204761D01*
X74542857Y-87242857D01*
X74504761Y-87204761D01*
X74542857Y-87166666D01*
X74542857Y-87242857D01*
X75342857Y-87661904D02*
X74885714Y-87661904D01*
X75114285Y-87661904D02*
X75114285Y-86861904D01*
X75038095Y-86976190D01*
X74961904Y-87052380D01*
X74885714Y-87090476D01*
%TO.C,T1*%
X87890476Y-84961904D02*
X88347619Y-84961904D01*
X88119047Y-85761904D02*
X88119047Y-84961904D01*
X89033333Y-85761904D02*
X88576190Y-85761904D01*
X88804761Y-85761904D02*
X88804761Y-84961904D01*
X88728571Y-85076190D01*
X88652380Y-85152380D01*
X88576190Y-85190476D01*
X86138095Y-87761904D02*
X86138095Y-87342857D01*
X86100000Y-87266666D01*
X86023809Y-87228571D01*
X85871428Y-87228571D01*
X85795238Y-87266666D01*
X86138095Y-87723809D02*
X86061904Y-87761904D01*
X85871428Y-87761904D01*
X85795238Y-87723809D01*
X85757142Y-87647619D01*
X85757142Y-87571428D01*
X85795238Y-87495238D01*
X85871428Y-87457142D01*
X86061904Y-87457142D01*
X86138095Y-87419047D01*
X86861904Y-87228571D02*
X86861904Y-87761904D01*
X86519047Y-87228571D02*
X86519047Y-87647619D01*
X86557142Y-87723809D01*
X86633333Y-87761904D01*
X86747619Y-87761904D01*
X86823809Y-87723809D01*
X86861904Y-87685714D01*
X87585714Y-87761904D02*
X87585714Y-86961904D01*
X87585714Y-87723809D02*
X87509523Y-87761904D01*
X87357142Y-87761904D01*
X87280952Y-87723809D01*
X87242857Y-87685714D01*
X87204761Y-87609523D01*
X87204761Y-87380952D01*
X87242857Y-87304761D01*
X87280952Y-87266666D01*
X87357142Y-87228571D01*
X87509523Y-87228571D01*
X87585714Y-87266666D01*
X87966666Y-87761904D02*
X87966666Y-87228571D01*
X87966666Y-86961904D02*
X87928571Y-87000000D01*
X87966666Y-87038095D01*
X88004761Y-87000000D01*
X87966666Y-86961904D01*
X87966666Y-87038095D01*
X88461904Y-87761904D02*
X88385714Y-87723809D01*
X88347619Y-87685714D01*
X88309523Y-87609523D01*
X88309523Y-87380952D01*
X88347619Y-87304761D01*
X88385714Y-87266666D01*
X88461904Y-87228571D01*
X88576190Y-87228571D01*
X88652380Y-87266666D01*
X88690476Y-87304761D01*
X88728571Y-87380952D01*
X88728571Y-87609523D01*
X88690476Y-87685714D01*
X88652380Y-87723809D01*
X88576190Y-87761904D01*
X88461904Y-87761904D01*
X90100000Y-87761904D02*
X89642857Y-87761904D01*
X89871428Y-87761904D02*
X89871428Y-86961904D01*
X89795238Y-87076190D01*
X89719047Y-87152380D01*
X89642857Y-87190476D01*
X90442857Y-87685714D02*
X90480952Y-87723809D01*
X90442857Y-87761904D01*
X90404761Y-87723809D01*
X90442857Y-87685714D01*
X90442857Y-87761904D01*
X90442857Y-87266666D02*
X90480952Y-87304761D01*
X90442857Y-87342857D01*
X90404761Y-87304761D01*
X90442857Y-87266666D01*
X90442857Y-87342857D01*
X91242857Y-87761904D02*
X90785714Y-87761904D01*
X91014285Y-87761904D02*
X91014285Y-86961904D01*
X90938095Y-87076190D01*
X90861904Y-87152380D01*
X90785714Y-87190476D01*
%TO.C,Ro4*%
X70501904Y-68245238D02*
X70120952Y-68511904D01*
X70501904Y-68702380D02*
X69701904Y-68702380D01*
X69701904Y-68397619D01*
X69740000Y-68321428D01*
X69778095Y-68283333D01*
X69854285Y-68245238D01*
X69968571Y-68245238D01*
X70044761Y-68283333D01*
X70082857Y-68321428D01*
X70120952Y-68397619D01*
X70120952Y-68702380D01*
X70501904Y-67788095D02*
X70463809Y-67864285D01*
X70425714Y-67902380D01*
X70349523Y-67940476D01*
X70120952Y-67940476D01*
X70044761Y-67902380D01*
X70006666Y-67864285D01*
X69968571Y-67788095D01*
X69968571Y-67673809D01*
X70006666Y-67597619D01*
X70044761Y-67559523D01*
X70120952Y-67521428D01*
X70349523Y-67521428D01*
X70425714Y-67559523D01*
X70463809Y-67597619D01*
X70501904Y-67673809D01*
X70501904Y-67788095D01*
X69968571Y-66835714D02*
X70501904Y-66835714D01*
X69663809Y-67026190D02*
X70235238Y-67216666D01*
X70235238Y-66721428D01*
X70611904Y-71033333D02*
X70611904Y-71490476D01*
X70611904Y-71261904D02*
X69811904Y-71261904D01*
X69926190Y-71338095D01*
X70002380Y-71414285D01*
X70040476Y-71490476D01*
X69811904Y-70538095D02*
X69811904Y-70461904D01*
X69850000Y-70385714D01*
X69888095Y-70347619D01*
X69964285Y-70309523D01*
X70116666Y-70271428D01*
X70307142Y-70271428D01*
X70459523Y-70309523D01*
X70535714Y-70347619D01*
X70573809Y-70385714D01*
X70611904Y-70461904D01*
X70611904Y-70538095D01*
X70573809Y-70614285D01*
X70535714Y-70652380D01*
X70459523Y-70690476D01*
X70307142Y-70728571D01*
X70116666Y-70728571D01*
X69964285Y-70690476D01*
X69888095Y-70652380D01*
X69850000Y-70614285D01*
X69811904Y-70538095D01*
X69811904Y-69776190D02*
X69811904Y-69700000D01*
X69850000Y-69623809D01*
X69888095Y-69585714D01*
X69964285Y-69547619D01*
X70116666Y-69509523D01*
X70307142Y-69509523D01*
X70459523Y-69547619D01*
X70535714Y-69585714D01*
X70573809Y-69623809D01*
X70611904Y-69700000D01*
X70611904Y-69776190D01*
X70573809Y-69852380D01*
X70535714Y-69890476D01*
X70459523Y-69928571D01*
X70307142Y-69966666D01*
X70116666Y-69966666D01*
X69964285Y-69928571D01*
X69888095Y-69890476D01*
X69850000Y-69852380D01*
X69811904Y-69776190D01*
%TO.C,Ro3*%
X91111904Y-68245238D02*
X90730952Y-68511904D01*
X91111904Y-68702380D02*
X90311904Y-68702380D01*
X90311904Y-68397619D01*
X90350000Y-68321428D01*
X90388095Y-68283333D01*
X90464285Y-68245238D01*
X90578571Y-68245238D01*
X90654761Y-68283333D01*
X90692857Y-68321428D01*
X90730952Y-68397619D01*
X90730952Y-68702380D01*
X91111904Y-67788095D02*
X91073809Y-67864285D01*
X91035714Y-67902380D01*
X90959523Y-67940476D01*
X90730952Y-67940476D01*
X90654761Y-67902380D01*
X90616666Y-67864285D01*
X90578571Y-67788095D01*
X90578571Y-67673809D01*
X90616666Y-67597619D01*
X90654761Y-67559523D01*
X90730952Y-67521428D01*
X90959523Y-67521428D01*
X91035714Y-67559523D01*
X91073809Y-67597619D01*
X91111904Y-67673809D01*
X91111904Y-67788095D01*
X90311904Y-67254761D02*
X90311904Y-66759523D01*
X90616666Y-67026190D01*
X90616666Y-66911904D01*
X90654761Y-66835714D01*
X90692857Y-66797619D01*
X90769047Y-66759523D01*
X90959523Y-66759523D01*
X91035714Y-66797619D01*
X91073809Y-66835714D01*
X91111904Y-66911904D01*
X91111904Y-67140476D01*
X91073809Y-67216666D01*
X91035714Y-67254761D01*
X91111904Y-71033333D02*
X91111904Y-71490476D01*
X91111904Y-71261904D02*
X90311904Y-71261904D01*
X90426190Y-71338095D01*
X90502380Y-71414285D01*
X90540476Y-71490476D01*
X90311904Y-70538095D02*
X90311904Y-70461904D01*
X90350000Y-70385714D01*
X90388095Y-70347619D01*
X90464285Y-70309523D01*
X90616666Y-70271428D01*
X90807142Y-70271428D01*
X90959523Y-70309523D01*
X91035714Y-70347619D01*
X91073809Y-70385714D01*
X91111904Y-70461904D01*
X91111904Y-70538095D01*
X91073809Y-70614285D01*
X91035714Y-70652380D01*
X90959523Y-70690476D01*
X90807142Y-70728571D01*
X90616666Y-70728571D01*
X90464285Y-70690476D01*
X90388095Y-70652380D01*
X90350000Y-70614285D01*
X90311904Y-70538095D01*
X90311904Y-69776190D02*
X90311904Y-69700000D01*
X90350000Y-69623809D01*
X90388095Y-69585714D01*
X90464285Y-69547619D01*
X90616666Y-69509523D01*
X90807142Y-69509523D01*
X90959523Y-69547619D01*
X91035714Y-69585714D01*
X91073809Y-69623809D01*
X91111904Y-69700000D01*
X91111904Y-69776190D01*
X91073809Y-69852380D01*
X91035714Y-69890476D01*
X90959523Y-69928571D01*
X90807142Y-69966666D01*
X90616666Y-69966666D01*
X90464285Y-69928571D01*
X90388095Y-69890476D01*
X90350000Y-69852380D01*
X90311904Y-69776190D01*
%TO.C,Rf7*%
X70501904Y-62418404D02*
X70120952Y-62685071D01*
X70501904Y-62875547D02*
X69701904Y-62875547D01*
X69701904Y-62570785D01*
X69740000Y-62494595D01*
X69778095Y-62456500D01*
X69854285Y-62418404D01*
X69968571Y-62418404D01*
X70044761Y-62456500D01*
X70082857Y-62494595D01*
X70120952Y-62570785D01*
X70120952Y-62875547D01*
X69968571Y-62189833D02*
X69968571Y-61885071D01*
X70501904Y-62075547D02*
X69816190Y-62075547D01*
X69740000Y-62037452D01*
X69701904Y-61961261D01*
X69701904Y-61885071D01*
X69701904Y-61694595D02*
X69701904Y-61161261D01*
X70501904Y-61504119D01*
X70611904Y-64801738D02*
X70611904Y-65258880D01*
X70611904Y-65030309D02*
X69811904Y-65030309D01*
X69926190Y-65106500D01*
X70002380Y-65182690D01*
X70040476Y-65258880D01*
X70611904Y-64458880D02*
X69811904Y-64458880D01*
X70307142Y-64382690D02*
X70611904Y-64154119D01*
X70078571Y-64154119D02*
X70383333Y-64458880D01*
%TO.C,Rf6*%
X91111904Y-62418404D02*
X90730952Y-62685071D01*
X91111904Y-62875547D02*
X90311904Y-62875547D01*
X90311904Y-62570785D01*
X90350000Y-62494595D01*
X90388095Y-62456500D01*
X90464285Y-62418404D01*
X90578571Y-62418404D01*
X90654761Y-62456500D01*
X90692857Y-62494595D01*
X90730952Y-62570785D01*
X90730952Y-62875547D01*
X90578571Y-62189833D02*
X90578571Y-61885071D01*
X91111904Y-62075547D02*
X90426190Y-62075547D01*
X90350000Y-62037452D01*
X90311904Y-61961261D01*
X90311904Y-61885071D01*
X90311904Y-61275547D02*
X90311904Y-61427928D01*
X90350000Y-61504119D01*
X90388095Y-61542214D01*
X90502380Y-61618404D01*
X90654761Y-61656500D01*
X90959523Y-61656500D01*
X91035714Y-61618404D01*
X91073809Y-61580309D01*
X91111904Y-61504119D01*
X91111904Y-61351738D01*
X91073809Y-61275547D01*
X91035714Y-61237452D01*
X90959523Y-61199357D01*
X90769047Y-61199357D01*
X90692857Y-61237452D01*
X90654761Y-61275547D01*
X90616666Y-61351738D01*
X90616666Y-61504119D01*
X90654761Y-61580309D01*
X90692857Y-61618404D01*
X90769047Y-61656500D01*
X91111904Y-64651738D02*
X91111904Y-65108880D01*
X91111904Y-64880309D02*
X90311904Y-64880309D01*
X90426190Y-64956500D01*
X90502380Y-65032690D01*
X90540476Y-65108880D01*
X91111904Y-64308880D02*
X90311904Y-64308880D01*
X90807142Y-64232690D02*
X91111904Y-64004119D01*
X90578571Y-64004119D02*
X90883333Y-64308880D01*
%TO.C,J6*%
X79983333Y-94561904D02*
X79983333Y-95133333D01*
X79945238Y-95247619D01*
X79869047Y-95323809D01*
X79754761Y-95361904D01*
X79678571Y-95361904D01*
X80707142Y-94561904D02*
X80554761Y-94561904D01*
X80478571Y-94600000D01*
X80440476Y-94638095D01*
X80364285Y-94752380D01*
X80326190Y-94904761D01*
X80326190Y-95209523D01*
X80364285Y-95285714D01*
X80402380Y-95323809D01*
X80478571Y-95361904D01*
X80630952Y-95361904D01*
X80707142Y-95323809D01*
X80745238Y-95285714D01*
X80783333Y-95209523D01*
X80783333Y-95019047D01*
X80745238Y-94942857D01*
X80707142Y-94904761D01*
X80630952Y-94866666D01*
X80478571Y-94866666D01*
X80402380Y-94904761D01*
X80364285Y-94942857D01*
X80326190Y-95019047D01*
X84061904Y-92926190D02*
X83947619Y-92888095D01*
X83757142Y-92888095D01*
X83680952Y-92926190D01*
X83642857Y-92964285D01*
X83604761Y-93040476D01*
X83604761Y-93116666D01*
X83642857Y-93192857D01*
X83680952Y-93230952D01*
X83757142Y-93269047D01*
X83909523Y-93307142D01*
X83985714Y-93345238D01*
X84023809Y-93383333D01*
X84061904Y-93459523D01*
X84061904Y-93535714D01*
X84023809Y-93611904D01*
X83985714Y-93650000D01*
X83909523Y-93688095D01*
X83719047Y-93688095D01*
X83604761Y-93650000D01*
X83033333Y-93688095D02*
X83033333Y-93116666D01*
X83071428Y-93002380D01*
X83147619Y-92926190D01*
X83261904Y-92888095D01*
X83338095Y-92888095D01*
X82233333Y-92888095D02*
X82690476Y-92888095D01*
X82461904Y-92888095D02*
X82461904Y-93688095D01*
X82538095Y-93573809D01*
X82614285Y-93497619D01*
X82690476Y-93459523D01*
X82080952Y-92811904D02*
X81471428Y-92811904D01*
X81357142Y-93688095D02*
X80861904Y-93688095D01*
X81128571Y-93383333D01*
X81014285Y-93383333D01*
X80938095Y-93345238D01*
X80900000Y-93307142D01*
X80861904Y-93230952D01*
X80861904Y-93040476D01*
X80900000Y-92964285D01*
X80938095Y-92926190D01*
X81014285Y-92888095D01*
X81242857Y-92888095D01*
X81319047Y-92926190D01*
X81357142Y-92964285D01*
X80138095Y-93688095D02*
X80519047Y-93688095D01*
X80557142Y-93307142D01*
X80519047Y-93345238D01*
X80442857Y-93383333D01*
X80252380Y-93383333D01*
X80176190Y-93345238D01*
X80138095Y-93307142D01*
X80100000Y-93230952D01*
X80100000Y-93040476D01*
X80138095Y-92964285D01*
X80176190Y-92926190D01*
X80252380Y-92888095D01*
X80442857Y-92888095D01*
X80519047Y-92926190D01*
X80557142Y-92964285D01*
X79795238Y-93611904D02*
X79757142Y-93650000D01*
X79680952Y-93688095D01*
X79490476Y-93688095D01*
X79414285Y-93650000D01*
X79376190Y-93611904D01*
X79338095Y-93535714D01*
X79338095Y-93459523D01*
X79376190Y-93345238D01*
X79833333Y-92888095D01*
X79338095Y-92888095D01*
X78614285Y-93688095D02*
X78995238Y-93688095D01*
X79033333Y-93307142D01*
X78995238Y-93345238D01*
X78919047Y-93383333D01*
X78728571Y-93383333D01*
X78652380Y-93345238D01*
X78614285Y-93307142D01*
X78576190Y-93230952D01*
X78576190Y-93040476D01*
X78614285Y-92964285D01*
X78652380Y-92926190D01*
X78728571Y-92888095D01*
X78919047Y-92888095D01*
X78995238Y-92926190D01*
X79033333Y-92964285D01*
X78233333Y-92888095D02*
X78233333Y-93688095D01*
X77776190Y-92888095D01*
X77776190Y-93688095D01*
X76976190Y-93650000D02*
X77052380Y-93688095D01*
X77166666Y-93688095D01*
X77280952Y-93650000D01*
X77357142Y-93573809D01*
X77395238Y-93497619D01*
X77433333Y-93345238D01*
X77433333Y-93230952D01*
X77395238Y-93078571D01*
X77357142Y-93002380D01*
X77280952Y-92926190D01*
X77166666Y-92888095D01*
X77090476Y-92888095D01*
X76976190Y-92926190D01*
X76938095Y-92964285D01*
X76938095Y-93230952D01*
X77090476Y-93230952D01*
%TO.C,J5*%
X121533333Y-82061904D02*
X121533333Y-82633333D01*
X121495238Y-82747619D01*
X121419047Y-82823809D01*
X121304761Y-82861904D01*
X121228571Y-82861904D01*
X122295238Y-82061904D02*
X121914285Y-82061904D01*
X121876190Y-82442857D01*
X121914285Y-82404761D01*
X121990476Y-82366666D01*
X122180952Y-82366666D01*
X122257142Y-82404761D01*
X122295238Y-82442857D01*
X122333333Y-82519047D01*
X122333333Y-82709523D01*
X122295238Y-82785714D01*
X122257142Y-82823809D01*
X122180952Y-82861904D01*
X121990476Y-82861904D01*
X121914285Y-82823809D01*
X121876190Y-82785714D01*
X115771428Y-84261904D02*
X115771428Y-83461904D01*
X116076190Y-83461904D01*
X116152380Y-83500000D01*
X116190476Y-83538095D01*
X116228571Y-83614285D01*
X116228571Y-83728571D01*
X116190476Y-83804761D01*
X116152380Y-83842857D01*
X116076190Y-83880952D01*
X115771428Y-83880952D01*
X116723809Y-83461904D02*
X116876190Y-83461904D01*
X116952380Y-83500000D01*
X117028571Y-83576190D01*
X117066666Y-83728571D01*
X117066666Y-83995238D01*
X117028571Y-84147619D01*
X116952380Y-84223809D01*
X116876190Y-84261904D01*
X116723809Y-84261904D01*
X116647619Y-84223809D01*
X116571428Y-84147619D01*
X116533333Y-83995238D01*
X116533333Y-83728571D01*
X116571428Y-83576190D01*
X116647619Y-83500000D01*
X116723809Y-83461904D01*
X117752380Y-83728571D02*
X117752380Y-84261904D01*
X117409523Y-83728571D02*
X117409523Y-84147619D01*
X117447619Y-84223809D01*
X117523809Y-84261904D01*
X117638095Y-84261904D01*
X117714285Y-84223809D01*
X117752380Y-84185714D01*
X118019047Y-83728571D02*
X118323809Y-83728571D01*
X118133333Y-83461904D02*
X118133333Y-84147619D01*
X118171428Y-84223809D01*
X118247619Y-84261904D01*
X118323809Y-84261904D01*
X119047619Y-84185714D02*
X119009523Y-84223809D01*
X118895238Y-84261904D01*
X118819047Y-84261904D01*
X118704761Y-84223809D01*
X118628571Y-84147619D01*
X118590476Y-84071428D01*
X118552380Y-83919047D01*
X118552380Y-83804761D01*
X118590476Y-83652380D01*
X118628571Y-83576190D01*
X118704761Y-83500000D01*
X118819047Y-83461904D01*
X118895238Y-83461904D01*
X119009523Y-83500000D01*
X119047619Y-83538095D01*
X119504761Y-84261904D02*
X119428571Y-84223809D01*
X119390476Y-84185714D01*
X119352380Y-84109523D01*
X119352380Y-83880952D01*
X119390476Y-83804761D01*
X119428571Y-83766666D01*
X119504761Y-83728571D01*
X119619047Y-83728571D01*
X119695238Y-83766666D01*
X119733333Y-83804761D01*
X119771428Y-83880952D01*
X119771428Y-84109523D01*
X119733333Y-84185714D01*
X119695238Y-84223809D01*
X119619047Y-84261904D01*
X119504761Y-84261904D01*
X120114285Y-83728571D02*
X120114285Y-84261904D01*
X120114285Y-83804761D02*
X120152380Y-83766666D01*
X120228571Y-83728571D01*
X120342857Y-83728571D01*
X120419047Y-83766666D01*
X120457142Y-83842857D01*
X120457142Y-84261904D01*
X121257142Y-84261904D02*
X120799999Y-84261904D01*
X121028571Y-84261904D02*
X121028571Y-83461904D01*
X120952380Y-83576190D01*
X120876190Y-83652380D01*
X120799999Y-83690476D01*
X121523809Y-84261904D02*
X121942857Y-83728571D01*
X121523809Y-83728571D02*
X121942857Y-84261904D01*
X122590476Y-83728571D02*
X122590476Y-84261904D01*
X122399999Y-83423809D02*
X122209523Y-83995238D01*
X122704761Y-83995238D01*
%TO.C,J4*%
X120561904Y-67266666D02*
X121133333Y-67266666D01*
X121247619Y-67304761D01*
X121323809Y-67380952D01*
X121361904Y-67495238D01*
X121361904Y-67571428D01*
X120828571Y-66542857D02*
X121361904Y-66542857D01*
X120523809Y-66733333D02*
X121095238Y-66923809D01*
X121095238Y-66428571D01*
X121323809Y-65404761D02*
X121361904Y-65290476D01*
X121361904Y-65100000D01*
X121323809Y-65023809D01*
X121285714Y-64985714D01*
X121209523Y-64947619D01*
X121133333Y-64947619D01*
X121057142Y-64985714D01*
X121019047Y-65023809D01*
X120980952Y-65100000D01*
X120942857Y-65252380D01*
X120904761Y-65328571D01*
X120866666Y-65366666D01*
X120790476Y-65404761D01*
X120714285Y-65404761D01*
X120638095Y-65366666D01*
X120600000Y-65328571D01*
X120561904Y-65252380D01*
X120561904Y-65061904D01*
X120600000Y-64947619D01*
X121361904Y-64604761D02*
X120828571Y-64604761D01*
X120561904Y-64604761D02*
X120600000Y-64642857D01*
X120638095Y-64604761D01*
X120600000Y-64566666D01*
X120561904Y-64604761D01*
X120638095Y-64604761D01*
X120828571Y-63880952D02*
X121476190Y-63880952D01*
X121552380Y-63919047D01*
X121590476Y-63957142D01*
X121628571Y-64033333D01*
X121628571Y-64147619D01*
X121590476Y-64223809D01*
X121323809Y-63880952D02*
X121361904Y-63957142D01*
X121361904Y-64109523D01*
X121323809Y-64185714D01*
X121285714Y-64223809D01*
X121209523Y-64261904D01*
X120980952Y-64261904D01*
X120904761Y-64223809D01*
X120866666Y-64185714D01*
X120828571Y-64109523D01*
X120828571Y-63957142D01*
X120866666Y-63880952D01*
X120828571Y-63500000D02*
X121361904Y-63500000D01*
X120904761Y-63500000D02*
X120866666Y-63461904D01*
X120828571Y-63385714D01*
X120828571Y-63271428D01*
X120866666Y-63195238D01*
X120942857Y-63157142D01*
X121361904Y-63157142D01*
X121361904Y-62776190D02*
X120561904Y-62776190D01*
X120828571Y-62395238D02*
X121361904Y-62395238D01*
X120904761Y-62395238D02*
X120866666Y-62357142D01*
X120828571Y-62280952D01*
X120828571Y-62166666D01*
X120866666Y-62090476D01*
X120942857Y-62052380D01*
X121361904Y-62052380D01*
X121285714Y-61214285D02*
X121323809Y-61252380D01*
X121361904Y-61366666D01*
X121361904Y-61442857D01*
X121323809Y-61557142D01*
X121247619Y-61633333D01*
X121171428Y-61671428D01*
X121019047Y-61709523D01*
X120904761Y-61709523D01*
X120752380Y-61671428D01*
X120676190Y-61633333D01*
X120600000Y-61557142D01*
X120561904Y-61442857D01*
X120561904Y-61366666D01*
X120600000Y-61252380D01*
X120638095Y-61214285D01*
X121361904Y-60757142D02*
X121323809Y-60833333D01*
X121285714Y-60871428D01*
X121209523Y-60909523D01*
X120980952Y-60909523D01*
X120904761Y-60871428D01*
X120866666Y-60833333D01*
X120828571Y-60757142D01*
X120828571Y-60642857D01*
X120866666Y-60566666D01*
X120904761Y-60528571D01*
X120980952Y-60490476D01*
X121209523Y-60490476D01*
X121285714Y-60528571D01*
X121323809Y-60566666D01*
X121361904Y-60642857D01*
X121361904Y-60757142D01*
X120828571Y-60147619D02*
X121361904Y-60147619D01*
X120904761Y-60147619D02*
X120866666Y-60109523D01*
X120828571Y-60033333D01*
X120828571Y-59919047D01*
X120866666Y-59842857D01*
X120942857Y-59804761D01*
X121361904Y-59804761D01*
X121361904Y-59004761D02*
X121361904Y-59461904D01*
X121361904Y-59233333D02*
X120561904Y-59233333D01*
X120676190Y-59309523D01*
X120752380Y-59385714D01*
X120790476Y-59461904D01*
X121361904Y-58738095D02*
X120828571Y-58319047D01*
X120828571Y-58738095D02*
X121361904Y-58319047D01*
X120828571Y-57671428D02*
X121361904Y-57671428D01*
X120523809Y-57861904D02*
X121095238Y-58052380D01*
X121095238Y-57557142D01*
%TO.C,J3*%
X108733333Y-76061904D02*
X108733333Y-76633333D01*
X108695238Y-76747619D01*
X108619047Y-76823809D01*
X108504761Y-76861904D01*
X108428571Y-76861904D01*
X109038095Y-76061904D02*
X109533333Y-76061904D01*
X109266666Y-76366666D01*
X109380952Y-76366666D01*
X109457142Y-76404761D01*
X109495238Y-76442857D01*
X109533333Y-76519047D01*
X109533333Y-76709523D01*
X109495238Y-76785714D01*
X109457142Y-76823809D01*
X109380952Y-76861904D01*
X109152380Y-76861904D01*
X109076190Y-76823809D01*
X109038095Y-76785714D01*
X108071428Y-75361904D02*
X108071428Y-74561904D01*
X108376190Y-74561904D01*
X108452380Y-74600000D01*
X108490476Y-74638095D01*
X108528571Y-74714285D01*
X108528571Y-74828571D01*
X108490476Y-74904761D01*
X108452380Y-74942857D01*
X108376190Y-74980952D01*
X108071428Y-74980952D01*
X109023809Y-74561904D02*
X109176190Y-74561904D01*
X109252380Y-74600000D01*
X109328571Y-74676190D01*
X109366666Y-74828571D01*
X109366666Y-75095238D01*
X109328571Y-75247619D01*
X109252380Y-75323809D01*
X109176190Y-75361904D01*
X109023809Y-75361904D01*
X108947619Y-75323809D01*
X108871428Y-75247619D01*
X108833333Y-75095238D01*
X108833333Y-74828571D01*
X108871428Y-74676190D01*
X108947619Y-74600000D01*
X109023809Y-74561904D01*
X110052380Y-74828571D02*
X110052380Y-75361904D01*
X109709523Y-74828571D02*
X109709523Y-75247619D01*
X109747619Y-75323809D01*
X109823809Y-75361904D01*
X109938095Y-75361904D01*
X110014285Y-75323809D01*
X110052380Y-75285714D01*
X110319047Y-74828571D02*
X110623809Y-74828571D01*
X110433333Y-74561904D02*
X110433333Y-75247619D01*
X110471428Y-75323809D01*
X110547619Y-75361904D01*
X110623809Y-75361904D01*
X111347619Y-75285714D02*
X111309523Y-75323809D01*
X111195238Y-75361904D01*
X111119047Y-75361904D01*
X111004761Y-75323809D01*
X110928571Y-75247619D01*
X110890476Y-75171428D01*
X110852380Y-75019047D01*
X110852380Y-74904761D01*
X110890476Y-74752380D01*
X110928571Y-74676190D01*
X111004761Y-74600000D01*
X111119047Y-74561904D01*
X111195238Y-74561904D01*
X111309523Y-74600000D01*
X111347619Y-74638095D01*
X111804761Y-75361904D02*
X111728571Y-75323809D01*
X111690476Y-75285714D01*
X111652380Y-75209523D01*
X111652380Y-74980952D01*
X111690476Y-74904761D01*
X111728571Y-74866666D01*
X111804761Y-74828571D01*
X111919047Y-74828571D01*
X111995238Y-74866666D01*
X112033333Y-74904761D01*
X112071428Y-74980952D01*
X112071428Y-75209523D01*
X112033333Y-75285714D01*
X111995238Y-75323809D01*
X111919047Y-75361904D01*
X111804761Y-75361904D01*
X112414285Y-74828571D02*
X112414285Y-75361904D01*
X112414285Y-74904761D02*
X112452380Y-74866666D01*
X112528571Y-74828571D01*
X112642857Y-74828571D01*
X112719047Y-74866666D01*
X112757142Y-74942857D01*
X112757142Y-75361904D01*
X113557142Y-75361904D02*
X113099999Y-75361904D01*
X113328571Y-75361904D02*
X113328571Y-74561904D01*
X113252380Y-74676190D01*
X113176190Y-74752380D01*
X113099999Y-74790476D01*
X113823809Y-75361904D02*
X114242857Y-74828571D01*
X113823809Y-74828571D02*
X114242857Y-75361904D01*
X114890476Y-74828571D02*
X114890476Y-75361904D01*
X114699999Y-74523809D02*
X114509523Y-75095238D01*
X115004761Y-75095238D01*
%TO.C,J2*%
X108561904Y-67266666D02*
X109133333Y-67266666D01*
X109247619Y-67304761D01*
X109323809Y-67380952D01*
X109361904Y-67495238D01*
X109361904Y-67571428D01*
X108638095Y-66923809D02*
X108600000Y-66885714D01*
X108561904Y-66809523D01*
X108561904Y-66619047D01*
X108600000Y-66542857D01*
X108638095Y-66504761D01*
X108714285Y-66466666D01*
X108790476Y-66466666D01*
X108904761Y-66504761D01*
X109361904Y-66961904D01*
X109361904Y-66466666D01*
X109323809Y-65404761D02*
X109361904Y-65290476D01*
X109361904Y-65100000D01*
X109323809Y-65023809D01*
X109285714Y-64985714D01*
X109209523Y-64947619D01*
X109133333Y-64947619D01*
X109057142Y-64985714D01*
X109019047Y-65023809D01*
X108980952Y-65100000D01*
X108942857Y-65252380D01*
X108904761Y-65328571D01*
X108866666Y-65366666D01*
X108790476Y-65404761D01*
X108714285Y-65404761D01*
X108638095Y-65366666D01*
X108600000Y-65328571D01*
X108561904Y-65252380D01*
X108561904Y-65061904D01*
X108600000Y-64947619D01*
X109361904Y-64604761D02*
X108828571Y-64604761D01*
X108561904Y-64604761D02*
X108600000Y-64642857D01*
X108638095Y-64604761D01*
X108600000Y-64566666D01*
X108561904Y-64604761D01*
X108638095Y-64604761D01*
X108828571Y-63880952D02*
X109476190Y-63880952D01*
X109552380Y-63919047D01*
X109590476Y-63957142D01*
X109628571Y-64033333D01*
X109628571Y-64147619D01*
X109590476Y-64223809D01*
X109323809Y-63880952D02*
X109361904Y-63957142D01*
X109361904Y-64109523D01*
X109323809Y-64185714D01*
X109285714Y-64223809D01*
X109209523Y-64261904D01*
X108980952Y-64261904D01*
X108904761Y-64223809D01*
X108866666Y-64185714D01*
X108828571Y-64109523D01*
X108828571Y-63957142D01*
X108866666Y-63880952D01*
X108828571Y-63500000D02*
X109361904Y-63500000D01*
X108904761Y-63500000D02*
X108866666Y-63461904D01*
X108828571Y-63385714D01*
X108828571Y-63271428D01*
X108866666Y-63195238D01*
X108942857Y-63157142D01*
X109361904Y-63157142D01*
X109361904Y-62776190D02*
X108561904Y-62776190D01*
X108828571Y-62395238D02*
X109361904Y-62395238D01*
X108904761Y-62395238D02*
X108866666Y-62357142D01*
X108828571Y-62280952D01*
X108828571Y-62166666D01*
X108866666Y-62090476D01*
X108942857Y-62052380D01*
X109361904Y-62052380D01*
X109285714Y-61214285D02*
X109323809Y-61252380D01*
X109361904Y-61366666D01*
X109361904Y-61442857D01*
X109323809Y-61557142D01*
X109247619Y-61633333D01*
X109171428Y-61671428D01*
X109019047Y-61709523D01*
X108904761Y-61709523D01*
X108752380Y-61671428D01*
X108676190Y-61633333D01*
X108600000Y-61557142D01*
X108561904Y-61442857D01*
X108561904Y-61366666D01*
X108600000Y-61252380D01*
X108638095Y-61214285D01*
X109361904Y-60757142D02*
X109323809Y-60833333D01*
X109285714Y-60871428D01*
X109209523Y-60909523D01*
X108980952Y-60909523D01*
X108904761Y-60871428D01*
X108866666Y-60833333D01*
X108828571Y-60757142D01*
X108828571Y-60642857D01*
X108866666Y-60566666D01*
X108904761Y-60528571D01*
X108980952Y-60490476D01*
X109209523Y-60490476D01*
X109285714Y-60528571D01*
X109323809Y-60566666D01*
X109361904Y-60642857D01*
X109361904Y-60757142D01*
X108828571Y-60147619D02*
X109361904Y-60147619D01*
X108904761Y-60147619D02*
X108866666Y-60109523D01*
X108828571Y-60033333D01*
X108828571Y-59919047D01*
X108866666Y-59842857D01*
X108942857Y-59804761D01*
X109361904Y-59804761D01*
X109361904Y-59004761D02*
X109361904Y-59461904D01*
X109361904Y-59233333D02*
X108561904Y-59233333D01*
X108676190Y-59309523D01*
X108752380Y-59385714D01*
X108790476Y-59461904D01*
X109361904Y-58738095D02*
X108828571Y-58319047D01*
X108828571Y-58738095D02*
X109361904Y-58319047D01*
X108828571Y-57671428D02*
X109361904Y-57671428D01*
X108523809Y-57861904D02*
X109095238Y-58052380D01*
X109095238Y-57557142D01*
X104733333Y-69391904D02*
X104733333Y-69963333D01*
X104695238Y-70077619D01*
X104619047Y-70153809D01*
X104504761Y-70191904D01*
X104428571Y-70191904D01*
X105076190Y-69468095D02*
X105114285Y-69430000D01*
X105190476Y-69391904D01*
X105380952Y-69391904D01*
X105457142Y-69430000D01*
X105495238Y-69468095D01*
X105533333Y-69544285D01*
X105533333Y-69620476D01*
X105495238Y-69734761D01*
X105038095Y-70191904D01*
X105533333Y-70191904D01*
%TO.C,J1*%
X136661904Y-67966666D02*
X137233333Y-67966666D01*
X137347619Y-68004761D01*
X137423809Y-68080952D01*
X137461904Y-68195238D01*
X137461904Y-68271428D01*
X137461904Y-67166666D02*
X137461904Y-67623809D01*
X137461904Y-67395238D02*
X136661904Y-67395238D01*
X136776190Y-67471428D01*
X136852380Y-67547619D01*
X136890476Y-67623809D01*
X137461904Y-64771428D02*
X136661904Y-64771428D01*
X136661904Y-64466666D01*
X136700000Y-64390476D01*
X136738095Y-64352380D01*
X136814285Y-64314285D01*
X136928571Y-64314285D01*
X137004761Y-64352380D01*
X137042857Y-64390476D01*
X137080952Y-64466666D01*
X137080952Y-64771428D01*
X137461904Y-63971428D02*
X136661904Y-63971428D01*
X136928571Y-63590476D02*
X137461904Y-63590476D01*
X137004761Y-63590476D02*
X136966666Y-63552380D01*
X136928571Y-63476190D01*
X136928571Y-63361904D01*
X136966666Y-63285714D01*
X137042857Y-63247619D01*
X137461904Y-63247619D01*
X137385714Y-62409523D02*
X137423809Y-62447619D01*
X137461904Y-62561904D01*
X137461904Y-62638095D01*
X137423809Y-62752380D01*
X137347619Y-62828571D01*
X137271428Y-62866666D01*
X137119047Y-62904761D01*
X137004761Y-62904761D01*
X136852380Y-62866666D01*
X136776190Y-62828571D01*
X136700000Y-62752380D01*
X136661904Y-62638095D01*
X136661904Y-62561904D01*
X136700000Y-62447619D01*
X136738095Y-62409523D01*
X137461904Y-61952380D02*
X137423809Y-62028571D01*
X137385714Y-62066666D01*
X137309523Y-62104761D01*
X137080952Y-62104761D01*
X137004761Y-62066666D01*
X136966666Y-62028571D01*
X136928571Y-61952380D01*
X136928571Y-61838095D01*
X136966666Y-61761904D01*
X137004761Y-61723809D01*
X137080952Y-61685714D01*
X137309523Y-61685714D01*
X137385714Y-61723809D01*
X137423809Y-61761904D01*
X137461904Y-61838095D01*
X137461904Y-61952380D01*
X136928571Y-61342857D02*
X137461904Y-61342857D01*
X137004761Y-61342857D02*
X136966666Y-61304761D01*
X136928571Y-61228571D01*
X136928571Y-61114285D01*
X136966666Y-61038095D01*
X137042857Y-61000000D01*
X137461904Y-61000000D01*
X137461904Y-60200000D02*
X137461904Y-60657142D01*
X137461904Y-60428571D02*
X136661904Y-60428571D01*
X136776190Y-60504761D01*
X136852380Y-60580952D01*
X136890476Y-60657142D01*
X137461904Y-59933333D02*
X136928571Y-59514285D01*
X136928571Y-59933333D02*
X137461904Y-59514285D01*
X136928571Y-58866666D02*
X137461904Y-58866666D01*
X136623809Y-59057142D02*
X137195238Y-59247619D01*
X137195238Y-58752380D01*
%TO.C,C4*%
X84366666Y-73535714D02*
X84328571Y-73573809D01*
X84214285Y-73611904D01*
X84138095Y-73611904D01*
X84023809Y-73573809D01*
X83947619Y-73497619D01*
X83909523Y-73421428D01*
X83871428Y-73269047D01*
X83871428Y-73154761D01*
X83909523Y-73002380D01*
X83947619Y-72926190D01*
X84023809Y-72850000D01*
X84138095Y-72811904D01*
X84214285Y-72811904D01*
X84328571Y-72850000D01*
X84366666Y-72888095D01*
X85052380Y-73078571D02*
X85052380Y-73611904D01*
X84861904Y-72773809D02*
X84671428Y-73345238D01*
X85166666Y-73345238D01*
X86611904Y-71988095D02*
X86611904Y-72445238D01*
X86611904Y-72216666D02*
X85811904Y-72216666D01*
X85926190Y-72292857D01*
X86002380Y-72369047D01*
X86040476Y-72445238D01*
X85811904Y-71492857D02*
X85811904Y-71416666D01*
X85850000Y-71340476D01*
X85888095Y-71302380D01*
X85964285Y-71264285D01*
X86116666Y-71226190D01*
X86307142Y-71226190D01*
X86459523Y-71264285D01*
X86535714Y-71302380D01*
X86573809Y-71340476D01*
X86611904Y-71416666D01*
X86611904Y-71492857D01*
X86573809Y-71569047D01*
X86535714Y-71607142D01*
X86459523Y-71645238D01*
X86307142Y-71683333D01*
X86116666Y-71683333D01*
X85964285Y-71645238D01*
X85888095Y-71607142D01*
X85850000Y-71569047D01*
X85811904Y-71492857D01*
X85811904Y-70730952D02*
X85811904Y-70654761D01*
X85850000Y-70578571D01*
X85888095Y-70540476D01*
X85964285Y-70502380D01*
X86116666Y-70464285D01*
X86307142Y-70464285D01*
X86459523Y-70502380D01*
X86535714Y-70540476D01*
X86573809Y-70578571D01*
X86611904Y-70654761D01*
X86611904Y-70730952D01*
X86573809Y-70807142D01*
X86535714Y-70845238D01*
X86459523Y-70883333D01*
X86307142Y-70921428D01*
X86116666Y-70921428D01*
X85964285Y-70883333D01*
X85888095Y-70845238D01*
X85850000Y-70807142D01*
X85811904Y-70730952D01*
X86078571Y-70121428D02*
X86611904Y-70121428D01*
X86154761Y-70121428D02*
X86116666Y-70083333D01*
X86078571Y-70007142D01*
X86078571Y-69892857D01*
X86116666Y-69816666D01*
X86192857Y-69778571D01*
X86611904Y-69778571D01*
X86192857Y-69130952D02*
X86192857Y-69397619D01*
X86611904Y-69397619D02*
X85811904Y-69397619D01*
X85811904Y-69016666D01*
%TO.C,C3*%
X76366666Y-73535714D02*
X76328571Y-73573809D01*
X76214285Y-73611904D01*
X76138095Y-73611904D01*
X76023809Y-73573809D01*
X75947619Y-73497619D01*
X75909523Y-73421428D01*
X75871428Y-73269047D01*
X75871428Y-73154761D01*
X75909523Y-73002380D01*
X75947619Y-72926190D01*
X76023809Y-72850000D01*
X76138095Y-72811904D01*
X76214285Y-72811904D01*
X76328571Y-72850000D01*
X76366666Y-72888095D01*
X76633333Y-72811904D02*
X77128571Y-72811904D01*
X76861904Y-73116666D01*
X76976190Y-73116666D01*
X77052380Y-73154761D01*
X77090476Y-73192857D01*
X77128571Y-73269047D01*
X77128571Y-73459523D01*
X77090476Y-73535714D01*
X77052380Y-73573809D01*
X76976190Y-73611904D01*
X76747619Y-73611904D01*
X76671428Y-73573809D01*
X76633333Y-73535714D01*
X75111904Y-71988095D02*
X75111904Y-72445238D01*
X75111904Y-72216666D02*
X74311904Y-72216666D01*
X74426190Y-72292857D01*
X74502380Y-72369047D01*
X74540476Y-72445238D01*
X74311904Y-71492857D02*
X74311904Y-71416666D01*
X74350000Y-71340476D01*
X74388095Y-71302380D01*
X74464285Y-71264285D01*
X74616666Y-71226190D01*
X74807142Y-71226190D01*
X74959523Y-71264285D01*
X75035714Y-71302380D01*
X75073809Y-71340476D01*
X75111904Y-71416666D01*
X75111904Y-71492857D01*
X75073809Y-71569047D01*
X75035714Y-71607142D01*
X74959523Y-71645238D01*
X74807142Y-71683333D01*
X74616666Y-71683333D01*
X74464285Y-71645238D01*
X74388095Y-71607142D01*
X74350000Y-71569047D01*
X74311904Y-71492857D01*
X74311904Y-70730952D02*
X74311904Y-70654761D01*
X74350000Y-70578571D01*
X74388095Y-70540476D01*
X74464285Y-70502380D01*
X74616666Y-70464285D01*
X74807142Y-70464285D01*
X74959523Y-70502380D01*
X75035714Y-70540476D01*
X75073809Y-70578571D01*
X75111904Y-70654761D01*
X75111904Y-70730952D01*
X75073809Y-70807142D01*
X75035714Y-70845238D01*
X74959523Y-70883333D01*
X74807142Y-70921428D01*
X74616666Y-70921428D01*
X74464285Y-70883333D01*
X74388095Y-70845238D01*
X74350000Y-70807142D01*
X74311904Y-70730952D01*
X74578571Y-70121428D02*
X75111904Y-70121428D01*
X74654761Y-70121428D02*
X74616666Y-70083333D01*
X74578571Y-70007142D01*
X74578571Y-69892857D01*
X74616666Y-69816666D01*
X74692857Y-69778571D01*
X75111904Y-69778571D01*
X74692857Y-69130952D02*
X74692857Y-69397619D01*
X75111904Y-69397619D02*
X74311904Y-69397619D01*
X74311904Y-69016666D01*
%TD*%
M02*
